<?xml version="1.0" encoding="utf-8"?><svg xml:space="preserve" viewBox="0 0 100 100" y="0px" x="0px" xmlns:xlink="http://www.w3.org/1999/xlink" xmlns="http://www.w3.org/2000/svg" id="圖層_1" version="1.1" width="200px" height="200px" style="width:100%;height:100%;background-size:initial;background-repeat-y:initial;background-repeat-x:initial;background-position-y:initial;background-position-x:initial;background-origin:initial;background-color:initial;background-clip:initial;background-attachment:initial;animation-play-state:paused" ><g class="ldl-scale" style="transform-origin:50% 50%;transform:rotate(0deg) scale(0.8, 0.8);animation-play-state:paused" ><path d="M53.1,14.2l8.5,17.1c0.5,1,1.5,1.7,2.6,1.9 L83.1,36c2.8,0.4,4,3.9,1.9,5.9L71.3,55.2c-0.8,0.8-1.2,1.9-1,3.1l3.2,18.8c0.5,2.8-2.5,5-5,3.6l-16.9-8.9c-1-0.5-2.2-0.5-3.2,0 l-16.9,8.9c-2.5,1.3-5.5-0.8-5-3.6l3.2-18.8c0.2-1.1-0.2-2.3-1-3.1L15,41.9c-2-2-0.9-5.5,1.9-5.9l18.9-2.7c1.1-0.2,2.1-0.9,2.6-1.9 l8.5-17.1C48.2,11.6,51.8,11.6,53.1,14.2z" stroke-miterlimit="10" stroke-width="3.5" stroke="#333435" fill="#F5E169" style="stroke:rgb(51, 52, 53);fill:rgb(245, 225, 105);animation-play-state:paused" ></path>
<metadata xmlns:d="https://loading.io/stock/" style="animation-play-state:paused" ><d:name style="animation-play-state:paused" >star</d:name>


<d:tags style="animation-play-state:paused" >star,favorite</d:tags>


<d:license style="animation-play-state:paused" >by</d:license>


<d:slug style="animation-play-state:paused" >46446t</d:slug></metadata></g><!-- generated by https://loading.io/ --></svg>