<?xml version="1.0" encoding="utf-8"?>
<svg xml:space="preserve" viewBox="0 0 100 100" y="0" x="0" xmlns="http://www.w3.org/2000/svg" id="圖層_1" version="1.1" style="height: 100%; width: 100%; background: none; shape-rendering: auto;" width="200px" height="200px"><g class="ldl-scale" style="transform-origin: 50% 50%; transform: rotate(0deg) scale(0.8, 0.8);"><g class="ldl-ani"><g class="ldl-layer"><g class="ldl-ani" style="transform-origin: 50px 50px; animation: 1.11111s linear -0.740741s infinite normal forwards running static-0c13cc83-c289-435e-b494-0107fc22fc96;"><circle fill="#77a4bd" r="40" cy="50" cx="50" style="fill: rgb(255, 255, 255);"></circle></g></g><g class="ldl-layer"><g class="ldl-ani" style="transform-origin: 50px 50px; animation: 1.11111s linear -0.925926s infinite normal forwards running static-0c13cc83-c289-435e-b494-0107fc22fc96;"><path stroke="#fff" fill="#f8eaec" d="M11.7 61.6h0l.1.2h0l-.1-.2z" style="stroke: rgb(0, 0, 0); fill: rgb(255, 255, 255);"></path></g></g><g class="ldl-layer"><g class="ldl-ani" style="transform-origin: 50px 50px; animation: 1.11111s linear -1.11111s infinite normal forwards running static-0c13cc83-c289-435e-b494-0107fc22fc96;"><path fill="#f5e6c8" d="M81 59.2c-.3-1-1-1.1-1.8-.4v-.7c-.4.2-.7.2-1 0 .3-.3.4-.7.3-1.1-.7 0-.9-.5-.7-1.5l-.2.1c-.6-.8-2.8-.8-3.7-.9-.2-.7-.7-1-1.3-.9-.3-.5-.7-.8-1.3-1l.5-.3c-.5.1-.9.2-1.4.3-.4.1-1.8.4-2.3.4-.1-.4-.4-.6-.9-.5l-.3-.5c-.2.2-.3.3-.1.6-.5.5-.8 1-.8 1.7-.2-.2-.6-1.9-.3-1.6l.4-.1c-.1-1.4-.4.3-1.8.4-.1.5-.4 1-.9 1.4-.3.1-.6.3-.7.6-.5-.2-1-.3-1.5-.4v-.1c-.5.2-1.4.4-1.8.5-.1.1-.2.1-.3 0-.8-.7-1.7-2.9-.8-4.1-.2-.2-2.8-1.1-3.3-.3-.1 0-.2-.1-.3-.1l-.1.1-.2-.1c.3-.5.5-1.1.5-1.7h-.1v-.1c.1-.1.2 0 .3.2.4-.4.4-.7.1-1 .1-.3.2-.6.3-.8.6-.2 1.2-.5 1.1-.5l-.4.2c1.3-.1 2.4.3 3.3 1.1l-.4.4.9-.2c.4-.1.8-.1 1.2-.2 0 .2.1.3.3.4-.3.2-.8.3-1.3.1 0 .4.2.5.6.2.8-.1 1-.2 1.3.3 0-.3.1-.5.4-.6.3 0 .8-.2 1.2 0 .3-.4.2-.5-.4-.5v-.2c-.4-.1-1.1-.2-1.5-.1-.5-.2-.8-.2-.9 0-.2 0-.3 0-.6.1-1.4-.8-4-2-5.6-.6-2.9 1.2-6.7 3.4-6.1-2.3.3-3 2.3-4.3 5.1-3.4-.2-.1-.3-.3-.3-.6 2.6-.9 2 .8 3.3-.1.1.1 2.1 3.7 2.6 3.2-.4-1.9-1-3.5-.4-5.4.4-1.2 1.7-1.2 1.7-2.7-.1-.3-.4-.6-.7-.8l.4.1c-.2-.2-.2-.4-.2-.7 0 .4.2.6.5.7l-.1.5h.1c.4-.6.3-1.1-.1-1.5.2 0 .3.1.4.3.2-.3.3-.6.2-1h-.2l.1-.2v.1c.3 0 .7-.1.9-.3-.3-.1-.6-.1-.9.1.5-.3 1.1-.5 1.7-.7 0-.2 0-.3-.2-.3l.1.2c-.6-.7-.4-1.5.8-2.1l-.2-.2c.4-.1.7-.2 1.1-.3-.3.6-.8.4-.3 1.1 1 .1 1.7-.6 2.1-1.9-.3-.1-.5-.2-.6-.6-.2.2-.3.3-.4.5-.4.2-.7.1-1-.2v.1c-.2-.2-.4-.6-.5-1.1-1.1-.1-1.9.5-2.4 1.6 1.1-2.7 2.2-2.1 3.5-3.1-.3.7-.2 1.2.4 1.4-.3.9.6.2 1.6.2l-.1.3c.3-.1.4-.3.4-.6.2.2.3.8.8.5-.2-.4-.5-.8-.7-1.1l-.1.3c0-.4-.2-.6-.6-.5l-.1.2-.4-.1v-.2l-.3-.1-.1.2c0-.3-.1-.6-.1-.9.1-.1.2-.3.4-.4-.9-1-4.5-3-5.5-3.6.2.5 0 .9-.3 1.2-1-1.2-2.6-2-4.3-1.6.4 1 .9 1 .5 1.8 1.3.7 1.4 1.4.2 2.2 1 .9 1.2 1.5.5 1.9-.9-.4-1.4-1.2-1.5-2.1-2-.4-3.6-.7-4.9-1.9 0-.9.7-1.8 1.2-2.3.4-.1.7-.3.9-.6 0 .2-.1.4-.3.6.3-.2.5-.1.6.2.2-.1.5-.3.6-.5.2.2.3.3.4.3.2.1.5 0 .6-.3H54c-.3-.4-.7-.6-1.2-.5v-.1c.1-.2.1-.3.2-.5 1.1.1 1.4-.2.8-.8.1-.2.1-.4 0-.5.1-.1.3-.2.3-.4.3.1.5.2.8.4l-.1.1c.5 0 1 .2 1.4.6-.2.3-.2.6.1.8-.3.1-.7.2-1.1.2l-.2.3c.3.1.7.1 1.1 0l-.1-.1c.4.1.7.2 1.1.4v.1c.7.3 1.4.4 2.1.4-.4-.3-.8-.5-1.3-.7.4.1.9.3 1.4.3-.5-.7-1.2-1.2-1.9-1.5.5-.2 1-.1 1.4.4.1-1.3-.7-1.7-2.3-1.4l.3-.3c-.1-.1-2.7-1.1-3.2-1.1-.1.2-.2.3-.5.3 0-.2-.1-.3-.1-.4.1.1.2.1.2.1.2-.1.4-.1.6-.1-.3-.3-.7-.4-1-.3-.1 0-.2-.1-.2 0 .1 0 .1-.1.2-.1-.1 0-.3-.1-.4-.1.1 0 .2-.1.1-.3.2-.1.3-.2.2-.3 2-.1 3.7 1.1 5.6 1.6h-.6c.5.7.9.8 1 .2.4.2.6.4.3.7 1.5 1.6 3.6 2.9 5.8 2.8-.8-.7-1.5-1.5-2-2.5.5-.5.4-1-.3-1.5.4-.4.3-.8-.3-1.3-.1.1-.3.1-.4.2-.2-.2-.4-.4-.7-.4.3 0 .5.1.8.1v-.2c-.5-.1-1-.3-1.4-.4h.4c-.2-.1-.5-.2-.8-.2.2-.2 0-.4-.5-.3l.1-.1c-.2 0-.5-.1-.6-.2-.4-.1-.8-.2-1.1-.3v-.1c-.8-.8-1.6-1-2.2-.5 0-.4-.4-.6-1.1-.4l.3.3c-.2-.1-.4-.2-.6-.2l.1.1c-.3.1-.3.1-.5.1.1-.1.2-.2.2-.3-.4-.2-.9-.1-1.3.2l.2.1-.2.1c.2.3.4.4.8.4-.3 0-.5 0-.8-.1l.1.2c-.3-.1-.5 0-.7.2l.2.1c-.1 0-.1.1-.1.1-.4 0-.7.1-1 .2v.2c-.3-.2-.5-.1-.8.2 0 .1.1.2.2.2.3.2.6.3 1 .2-.1.2-.3.2-.6.1 0 0 0 .1.1.1-.3-.3-.6-.4-1-.4v.1c-.3.1-.3.3-.2.4-.2-.1-.3 0-.5.1h-.2l-.1.3h.3v.2c.1 0 .2 0 .2.1.1 0 .1.1.2.1.1.1.2.2.3.2-.2.1-.3.3-.3.6-.3-.1-.5 0-.7.2l.2.3-.4-.1v.1c.2.1.5.3.6.5h.2c-.1.1-.2.2-.4.3.2.2.4.2.6.3.1.1.1.2.1.3-.2-.1-.4 0-.4.3-.1-.6-.3-.6-.6-.2-.5 0-.9-.1-1.3-.1.2-.1.4-.3.5-.5l-.1-.2c.3.1.4 0 .5-.2-.6-.1-.8-.3-.7-.7 0-.4-.1-.7-.6-.6.1.3 0 .4-.2.6 0-.6-.1-.7-.5-.4-.1-.3-.4-.3-.7-.1l.2-.2c-.1-.1-.2-.1-.3-.1h.1c-.3-.4-.8-.6-1.4-.5 0 .5-.3.8-1 .8.2.1.3.3.2.5.5 0 .8-.2 1.2-.4l-.3.3c.2.1.4.2.6.2H45v.2c.4 0 .8.1 1.2.2H45l.1.4c.4-.1.5 0 .5.3l.6.3c-.4.1-.9.1-1.3-.1l.5-.2c-.4-.5-.9-.8-1.6-.9-.1.1-.3.2-.5.1l.2-.3-.5.3c.1-.2 0-.4-.1-.5-.1.1-.3.2-.4.2v-.2c-1.6 0-2.5 0-3.4-1.2l.1-.1c-.1-.1-.2-.1-.3-.1.2-.1.2-.2.1-.3-1.7-.4-2.5.2-3.6 1.4l-.4-.2.3-.2c-.9-.3-1.5.1-1.2.7v.1c.2-.1.3-.1.5 0-.3.1-.8.3-.9.3l-.4.1v-.1c-.8.1-1.6.6-2 1.3h.3c-.2.2-.4.4-.7.6.1.1.3.1.5 0l-.2.2.2-.1-.2.3.3-.1v.1h.4c-1.1.6-2.4 1-3.6 1.2 2.2.2 4-1 6-1.6-.2.5-.7.7-1.3.8.9-.1 1.2-.1 1.8-.4 0 1.4 3.4 2.5 1.8 4.4.2.3.2.6 0 .9l.3.3c-.4.4-.4.7-.2 1-.1-.1-.3-.1-.5-.2-.3.3.2.9.5 1.1.1.4.4.6.8.5 0-.4-.1-.6-.2-.9.5.4 1 .9.3 1.8.1-.5-.1-.7-.5-.9-1.3 4.5-1.8 5.6-.1 9.4.7 1.6 1.6 3.3 1.1 4.4.2.3.5.6.7.8l.1-.1c.6.3.8.8.6 1.5.2.9.6 1.4 1.3 1.4.4-.3-2.3-5.4-1.5-4-.1-.8-.3-1.6-.5-2.4 1.5.7 1.1 3.2 2.7 3.9l-.1.4c1.2.9 2 2.3 2.2 3.8l-.2.1c2.4 3.2 8.2 5.1 11.9 5 .2 0 .3.1.3.3v.1l-.1-.1-.1.1c.5.4.9.8 1.4 1.2l-.2.1.2.1c-.1.4 0 .7.4.8.1-.1.2-.2.1-.4.2 0 .2.1.2.3.3.4.8.8 1.2 1v-.2c.8 0 .7.3 1.2.2l.1.4c.2 0 .4-.1.6-.3-.4-.9.2-1 1.2-.6l-.2.2c.4.4 1.1 1.9.7 2.7l.2.1c-.1.2-1.1 1.2-1 1.5l-.2.1.1.2c-.7.5-1.1 1-1.4 1.7.1.3.1.6 0 .8l.4.3.3-.3c-.5.7-.9 1.8-.9 2.6 1.4 1 2.5 3 2.9 4.5.7.9 1.7 1.5 2.9 1.7 2.2 3.5-3 9.5-5 12.5.3-.2.6-.3.9-.4-.6.6-1.2 1.2-2.1 1.6h.6c-1.1.3-1.5.7-1.1 1.2-.2 0-.3.2-.2.3.9.2 1.8.1 2.6-.3l-.1-.1c.7-.5 1.6-1.1 2.4-1.5-.2.1-.4 0-.6-.2 1.9-.1 2.8-.7 2.7-1.8-.2.2-.4.2-.5.1 1.4-1.6 3.7-1.4 5.1-3l-.4.4.2-.3-.4-.3.2-.2c7.1-.1 13.6-12.8 14.7-18.9.3-2.1-2.7-1.5-3.6-1.1zM52.6 15.5h.3c-.1 0-.1.1-.2.1l-.1-.1zM50 17.3c.1 0 0 0 0 0zm2.2-.6c-.1.1-.1.2-.2.2-.1-.1-.2-.1-.2-.2.2.1.3.1.4 0zm-.9-1.2s.1 0 0 0l.1.1c-.1 0-.2.1-.3.2.2 0 .4.1.5.3-.1-.1-.3-.1-.5-.1l.1.2c-.1 0-.3 0-.4-.1V16c-.1-.1-.2-.1-.2-.2.2.1.5-.1.7-.3zm-1.2.1c0-.1 0-.1 0 0 0-.1 0-.1 0 0zm.2.1c0-.1 0-.1-.1-.1h.2c0 .1 0 .2.1.2-.1-.1-.2-.1-.2-.1zm-.2 1.6c.1 0 .1-.1 0 0h.2l.5-.5c.2.1.4.1.6.1h.2c-.6.6-.6.8 0 .7l-.2.2c.4.3.8.5 1.1.6.1.3 0 .7-.3.9-.2-.4-.3-.5-.6-.9l-.3.3-.1-.4-.5-.1c.5-.4.3-.7-.6-.9zm-3.6 1.8l-.1-.2c.1 0 .2.1.3.1l-.2.1z" style="fill: rgb(0, 0, 0);"></path></g></g><metadata xmlns:d="https://loading.io/stock/">
<d:name>earth</d:name>
<d:tags>globe,map,world,america,planet,pacific ocean,earth,web application</d:tags>
<d:license>by</d:license>
<d:slug>rdvrsz</d:slug>
</metadata></g></g><style id="static-0c13cc83-c289-435e-b494-0107fc22fc96" data-anikit=""> @keyframes static-0c13cc83-c289-435e-b494-0107fc22fc96 { 0% { } 100% { } } </style><!-- [ldio] generated by https://loading.io/ --></svg>