<?xml version="1.0" encoding="utf-8"?><svg xml:space="preserve" viewBox="0 0 100 100" y="0" x="0" xmlns="http://www.w3.org/2000/svg" id="Layer_1" version="1.1" width="200px" height="200px" xmlns:xlink="http://www.w3.org/1999/xlink" style="width:100%;height:100%;background-size:initial;background-repeat-y:initial;background-repeat-x:initial;background-position-y:initial;background-position-x:initial;background-origin:initial;background-color:initial;background-clip:initial;background-attachment:initial;animation-play-state:paused" ><g class="ldl-scale" style="transform-origin:50% 50%;transform:rotate(0deg) scale(0.8, 0.8);animation-play-state:paused" ><path stroke-miterlimit="10" stroke-width="3.5" stroke-linejoin="round" stroke="#333" fill="#fff" d="M68.069 79.279H15.865A4.865 4.865 0 0 1 11 74.414V31.055h57.069v48.224z" style="stroke:rgb(51, 51, 51);fill:rgb(255, 255, 255);animation-play-state:paused" ></path>
<path stroke-miterlimit="10" stroke-width="3.5" stroke="#000" opacity=".2" d="M15.865 79.279h52.203V41.557L11 61.474v12.94a4.865 4.865 0 0 0 4.865 4.865z" style="animation-play-state:paused" ></path>
<path d="M19.037 25.314h57.069v53.965H19.037z" stroke-miterlimit="10" stroke-width="3.5" stroke-linejoin="round" stroke="#333" fill="#fff" style="stroke:rgb(51, 51, 51);fill:rgb(255, 255, 255);animation-play-state:paused" ></path>
<path d="M76.106 41.732L19.037 61.649v17.63h57.069z" stroke-miterlimit="10" stroke-width="3.5" stroke="#000" opacity=".2" style="animation-play-state:paused" ></path>
<path stroke-miterlimit="10" stroke-width="3.5" stroke-linejoin="round" stroke="#333" fill="#fff" d="M84.135 79.279H27.074V20.721H89v53.693a4.865 4.865 0 0 1-4.865 4.865z" style="stroke:rgb(51, 51, 51);fill:rgb(255, 255, 255);animation-play-state:paused" ></path>
<path d="M55.741 36.833h25.26V56h-25.26z" fill="#77a4bd" style="fill:rgb(119, 164, 189);animation-play-state:paused" ></path>
<path d="M35.073 39.229h16.075" stroke-miterlimit="10" stroke-width="3.5" stroke="#333" fill="none" style="stroke:rgb(51, 51, 51);animation-play-state:paused" ></path>
<path d="M35.073 46.417h16.075" stroke-miterlimit="10" stroke-width="3.5" stroke="#333" fill="none" style="stroke:rgb(51, 51, 51);animation-play-state:paused" ></path>
<path d="M35.073 53.604h16.075" stroke-miterlimit="10" stroke-width="3.5" stroke="#333" fill="none" style="stroke:rgb(51, 51, 51);animation-play-state:paused" ></path>
<path d="M35.073 62.945h45.928" stroke-miterlimit="10" stroke-width="3.5" stroke="#333" fill="none" style="stroke:rgb(51, 51, 51);animation-play-state:paused" ></path>
<path d="M35.073 70.945h45.928" stroke-miterlimit="10" stroke-width="3.5" stroke="#333" fill="none" style="stroke:rgb(51, 51, 51);animation-play-state:paused" ></path>
<path d="M35.073 29.945h45.928" stroke-miterlimit="10" stroke-width="3.5" stroke="#333" fill="none" style="stroke:rgb(51, 51, 51);animation-play-state:paused" ></path>
<path stroke-miterlimit="10" stroke-width="3.5" stroke="#000" opacity=".2" d="M62.599 79.279h21.536A4.865 4.865 0 0 0 89 74.414V20.721h-9.69L62.599 79.279z" style="animation-play-state:paused" ></path>
<metadata xmlns:d="https://loading.io/stock/" style="animation-play-state:paused" ><d:name style="animation-play-state:paused" >newspaper</d:name>


<d:tags style="animation-play-state:paused" >newspaper,journalism,journalist,mass media,news media,news report,reporter</d:tags>


<d:license style="animation-play-state:paused" >by</d:license>


<d:slug style="animation-play-state:paused" >p2jxuu</d:slug></metadata></g><!-- generated by https://loading.io/ --></svg>