<svg xmlns="http://www.w3.org/2000/svg" width="301" height="301" viewBox="0 0 301 301" fill="none">
<path d="M239.405 133.526C191.053 104.811 111.299 102.171 65.1416 116.18C57.7274 118.429 49.8901 114.246 47.6453 106.833C45.3991 99.4158 49.5784 91.5826 56.9953 89.3297C109.983 73.2467 198.062 76.3526 253.725 109.395C260.394 113.354 262.578 121.963 258.627 128.618C254.672 135.286 246.054 137.485 239.403 133.526M237.821 176.055C234.429 181.56 227.231 183.286 221.734 179.906C181.425 155.129 119.956 147.95 72.2656 162.426C66.0819 164.293 59.549 160.809 57.671 154.634C56.7757 151.666 57.0938 148.464 58.5557 145.731C60.0175 142.997 62.5038 140.954 65.4694 140.051C119.948 123.518 187.675 131.524 233.973 159.977C239.47 163.362 241.201 170.563 237.821 176.055ZM219.466 216.899C218.827 217.949 217.988 218.862 216.995 219.586C216.003 220.311 214.878 220.832 213.684 221.121C212.49 221.41 211.25 221.461 210.037 221.27C208.823 221.08 207.659 220.652 206.611 220.01C171.387 198.483 127.052 193.621 74.8382 205.548C73.6418 205.821 72.4032 205.856 71.1932 205.651C69.9832 205.446 68.8255 205.004 67.7862 204.352C66.7469 203.699 65.8464 202.848 65.1361 201.847C64.4257 200.846 63.9195 199.715 63.6464 198.519C63.3713 197.322 63.335 196.083 63.5396 194.872C63.7442 193.661 64.1856 192.503 64.8386 191.463C65.4917 190.423 66.3434 189.522 67.3451 188.811C68.3469 188.101 69.4789 187.595 70.6763 187.323C127.815 174.263 176.827 179.883 216.364 204.043C217.412 204.683 218.324 205.524 219.047 206.516C219.77 207.509 220.291 208.634 220.579 209.828C220.867 211.022 220.917 212.261 220.727 213.474C220.536 214.688 220.108 215.851 219.467 216.899M150.672 0.547882C67.8337 0.547882 0.675079 67.7038 0.675079 150.545C0.675079 233.395 67.8337 300.548 150.674 300.548C233.518 300.548 300.675 233.395 300.675 150.545C300.675 67.7052 233.519 0.547882 150.674 0.547882" fill="#1ED760"/>

</svg>
