<?xml version="1.0" encoding="utf-8"?><svg xml:space="preserve" viewBox="0 0 100 100" y="0" x="0" xmlns="http://www.w3.org/2000/svg" id="圖層_1" version="1.1" width="200px" height="200px" xmlns:xlink="http://www.w3.org/1999/xlink" style="width:100%;height:100%;background-size:initial;background-repeat-y:initial;background-repeat-x:initial;background-position-y:initial;background-position-x:initial;background-origin:initial;background-color:initial;background-clip:initial;background-attachment:initial;animation-play-state:paused" ><g class="ldl-scale" style="transform-origin:50% 50%;transform:rotate(0deg) scale(0.8, 0.8);animation-play-state:paused" ><circle stroke-miterlimit="10" stroke-width="3" stroke="#000" fill="#f5e6c8" r="27.3" cy="34.8" cx="50" style="fill:rgb(255, 255, 255);animation-play-state:paused" ></circle>
<path stroke-miterlimit="10" stroke-width="3" stroke="#000" fill="#e15b64" d="M62 67.5H38c-2.3 0-4.2-1.9-4.2-4.2v-.1c0-2.3 1.9-4.2 4.2-4.2h24c2.3 0 4.2 1.9 4.2 4.2v.1c0 2.3-1.9 4.2-4.2 4.2z" style="fill:rgb(225, 91, 100);animation-play-state:paused" ></path>
<path stroke-miterlimit="10" stroke-width="3" stroke="#000" fill="#f5e169" d="M61.9 67.4H38.1c-2.3 0-4.2-1.9-4.2-4.2v0c0-2.3 1.9-4.2 4.2-4.2h23.7c2.3 0 4.2 1.9 4.2 4.2v0c0 2.4-1.8 4.2-4.1 4.2z" style="fill:rgb(245, 225, 105);animation-play-state:paused" ></path>
<path stroke-miterlimit="10" stroke-width="3" stroke="#000" fill="#f5e169" d="M61.9 75.8H38.1c-2.3 0-4.2-1.9-4.2-4.2v0c0-2.3 1.9-4.2 4.2-4.2h23.7c2.3 0 4.2 1.9 4.2 4.2v0c0 2.3-1.8 4.2-4.1 4.2z" style="fill:rgb(245, 225, 105);animation-play-state:paused" ></path>
<path stroke-miterlimit="10" stroke-width="3" stroke="#000" fill="#f5e169" d="M61.9 84.1H38.1c-2.3 0-4.2-1.9-4.2-4.2v0c0-2.3 1.9-4.2 4.2-4.2h23.7c2.3 0 4.2 1.9 4.2 4.2v0c0 2.4-1.8 4.2-4.1 4.2z" style="fill:rgb(245, 225, 105);animation-play-state:paused" ></path>
<path stroke-miterlimit="10" stroke-width="3" stroke="#000" fill="#f5e169" d="M50 92.5h0c-4.2 0-7.6-3.4-7.6-7.6v-.8h15.2v.8c0 4.2-3.4 7.6-7.6 7.6z" style="fill:rgb(245, 225, 105);animation-play-state:paused" ></path>
<metadata xmlns:d="https://loading.io/stock/" style="animation-play-state:paused" ><d:name style="animation-play-state:paused" >bulb</d:name>
<d:tags style="animation-play-state:paused" >light,idea,think,brainstorm,creativity,bulb,web application</d:tags>
<d:license style="animation-play-state:paused" >pro</d:license>
<d:slug style="animation-play-state:paused" >ul0y1x</d:slug></metadata></g><!-- generated by https://loading.io/ --></svg>