<svg xmlns="http://www.w3.org/2000/svg" xmlns:xlink="http://www.w3.org/1999/xlink" width="1080" zoomAndPan="magnify" viewBox="0 0 810 809.999993" height="1080" preserveAspectRatio="xMidYMid meet" version="1.0"><defs><clipPath id="416b2f286e"><path d="M 0 584.664062 L 30.148438 584.664062 L 30.148438 621.757812 L 0 621.757812 Z M 0 584.664062 " clip-rule="nonzero"/></clipPath><clipPath id="dcb84a6aeb"><path d="M 19.011719 584.664062 C 23.339844 584.664062 27.191406 585.988281 30.148438 588.429688 L 30.148438 595.28125 C 27.234375 592.285156 23.382812 590.484375 19.011719 590.484375 C 11.816406 590.484375 6.378906 595.925781 6.378906 603.203125 C 6.378906 610.480469 11.816406 615.878906 19.011719 615.878906 C 23.382812 615.878906 27.234375 614.082031 30.148438 611.082031 L 30.148438 617.9375 C 27.148438 620.417969 23.292969 621.703125 19.011719 621.703125 C 8.476562 621.703125 0 613.910156 0 603.207031 C 0 592.542969 8.476562 584.664062 19.011719 584.664062 " clip-rule="nonzero"/></clipPath><clipPath id="8f2615c936"><path d="M 50.230469 585.304688 L 56.652344 585.304688 L 56.652344 615.28125 L 50.230469 615.28125 Z M 50.230469 615.28125 L 70.871094 615.28125 L 70.871094 621.105469 L 50.230469 621.105469 Z M 50.230469 615.28125 " clip-rule="nonzero"/></clipPath><clipPath id="8307681fa7"><path d="M 89.328125 585.304688 L 112.15625 585.304688 L 112.15625 591.128906 L 89.328125 591.128906 Z M 89.328125 591.128906 L 95.75 591.128906 L 95.75 599.648438 L 89.328125 599.648438 Z M 89.328125 599.648438 L 111.125 599.648438 L 111.125 605.472656 L 89.328125 605.472656 Z M 89.328125 605.472656 L 95.75 605.472656 L 95.75 615.324219 L 89.328125 615.324219 Z M 89.328125 615.324219 L 112.496094 615.324219 L 112.496094 621.144531 L 89.328125 621.144531 Z M 89.328125 615.324219 " clip-rule="nonzero"/></clipPath><clipPath id="6f459f5ebb"><path d="M 128.726562 583.550781 L 164.097656 583.550781 L 164.097656 621.132812 L 128.726562 621.132812 Z M 128.726562 583.550781 " clip-rule="nonzero"/></clipPath><clipPath id="ad53a9f496"><path d="M 151.636719 608.601562 L 146.328125 596.953125 L 141.058594 608.601562 Z M 146.410156 583.550781 L 164.097656 621.105469 L 157.242188 621.105469 L 154.074219 614.167969 L 138.660156 614.167969 L 135.492188 621.105469 L 128.726562 621.105469 Z M 146.410156 583.550781 " clip-rule="nonzero"/></clipPath><clipPath id="e850dc042d"><path d="M 181.914062 583.976562 L 212.746094 583.976562 L 212.746094 622.519531 L 181.914062 622.519531 Z M 181.914062 583.976562 " clip-rule="nonzero"/></clipPath><clipPath id="a57657f18e"><path d="M 181.914062 583.976562 L 206.324219 607.917969 L 206.324219 585.304688 L 212.746094 585.304688 L 212.746094 622.433594 L 188.335938 598.625 L 188.335938 621.105469 L 181.914062 621.105469 Z M 181.914062 583.976562 " clip-rule="nonzero"/></clipPath><clipPath id="128e446e31"><path d="M 233.726562 585.304688 L 240.152344 585.304688 L 240.152344 621.105469 L 233.726562 621.105469 Z M 233.726562 585.304688 " clip-rule="nonzero"/></clipPath><clipPath id="2e5d2c68e8"><path d="M 259.25 584.664062 L 289.398438 584.664062 L 289.398438 621.757812 L 259.25 621.757812 Z M 259.25 584.664062 " clip-rule="nonzero"/></clipPath><clipPath id="a388288b42"><path d="M 278.261719 584.664062 C 282.589844 584.664062 286.441406 585.988281 289.394531 588.429688 L 289.394531 595.28125 C 286.484375 592.285156 282.628906 590.484375 278.261719 590.484375 C 271.070312 590.484375 265.628906 595.925781 265.628906 603.203125 C 265.628906 610.480469 271.070312 615.878906 278.261719 615.878906 C 282.632812 615.878906 286.488281 614.082031 289.394531 611.082031 L 289.394531 617.9375 C 286.398438 620.417969 282.585938 621.703125 278.261719 621.703125 C 267.730469 621.703125 259.25 613.910156 259.25 603.207031 C 259.25 592.542969 267.730469 584.664062 278.261719 584.664062 " clip-rule="nonzero"/></clipPath><clipPath id="cb9d5aa90b"><path d="M 305.5 583.550781 L 340.871094 583.550781 L 340.871094 621.132812 L 305.5 621.132812 Z M 305.5 583.550781 " clip-rule="nonzero"/></clipPath><clipPath id="3bbc64d3e5"><path d="M 328.410156 608.601562 L 323.101562 596.953125 L 317.789062 608.601562 Z M 323.183594 583.550781 L 340.871094 621.105469 L 334.019531 621.105469 L 330.851562 614.167969 L 315.433594 614.167969 L 312.265625 621.105469 L 305.5 621.105469 Z M 323.183594 583.550781 " clip-rule="nonzero"/></clipPath><clipPath id="428d24ffc7"><path d="M 358.6875 585.304688 L 365.109375 585.304688 L 365.109375 615.28125 L 358.6875 615.28125 Z M 358.6875 615.28125 L 379.328125 615.28125 L 379.328125 621.105469 L 358.6875 621.105469 Z M 358.6875 615.28125 " clip-rule="nonzero"/></clipPath><clipPath id="b516a98d64"><path d="M 383.351562 584.363281 L 411.273438 584.363281 L 411.273438 597.132812 L 383.351562 597.132812 Z M 383.351562 584.363281 " clip-rule="nonzero"/></clipPath><clipPath id="58b6d39df2"><path d="M 396.5 584.363281 L 398.296875 584.363281 L 403.90625 590.402344 L 409.515625 584.363281 L 411.230469 584.363281 L 411.230469 597.082031 L 407.546875 597.082031 L 407.546875 591 L 403.863281 595.066406 L 400.136719 591 L 400.136719 597.082031 L 396.457031 597.082031 L 396.457031 584.363281 Z M 387.207031 588.003906 L 383.351562 588.003906 L 383.351562 584.363281 L 394.828125 584.363281 L 394.828125 588.003906 L 391.0625 588.003906 L 391.0625 597.082031 L 387.207031 597.082031 Z M 387.207031 588.003906 " clip-rule="nonzero"/></clipPath><clipPath id="ba30bcfae4"><path d="M 452.082031 584.707031 L 477.007812 584.707031 L 477.007812 621.796875 L 452.082031 621.796875 Z M 452.082031 584.707031 " clip-rule="nonzero"/></clipPath><clipPath id="da66cd11de"><path d="M 452.082031 611.167969 C 454.953125 613.996094 458.761719 615.964844 463.6875 615.964844 C 468.269531 615.964844 470.582031 613.824219 470.582031 611.554688 C 470.582031 608.386719 468.183594 607.1875 462.574219 604.832031 C 457.222656 602.5625 453.070312 599.867188 453.070312 594.253906 C 453.070312 588.34375 458.207031 584.707031 465.101562 584.707031 C 468.441406 584.707031 471.351562 585.519531 473.792969 587.1875 L 473.792969 593.699219 C 471.484375 591.6875 468.867188 590.574219 465.273438 590.574219 C 461.589844 590.574219 459.53125 592.113281 459.53125 594.253906 C 459.53125 597.125 463.214844 598.367188 467.242188 600.164062 C 473.664062 602.992188 477.003906 605.820312 477.003906 611.554688 C 477.003906 617.078125 472.597656 621.707031 464.117188 621.707031 C 459.191406 621.707031 455.210938 620.292969 452.167969 618.066406 L 452.167969 611.167969 Z M 452.082031 611.167969 " clip-rule="nonzero"/></clipPath><clipPath id="d2f085a9e5"><path d="M 495.589844 585.304688 L 524.324219 585.304688 L 524.324219 621.109375 L 495.589844 621.109375 Z M 495.589844 585.304688 " clip-rule="nonzero"/></clipPath><clipPath id="de35dcf444"><path d="M 495.589844 585.304688 L 502.015625 585.304688 L 502.015625 601.578125 L 515.972656 585.304688 L 523.726562 585.304688 L 508.4375 602.777344 L 524.324219 621.105469 L 516.40625 621.105469 L 502.015625 604.359375 L 502.015625 621.105469 L 495.589844 621.105469 Z M 495.589844 585.304688 " clip-rule="nonzero"/></clipPath><clipPath id="af906c2a70"><path d="M 542.011719 585.304688 L 548.4375 585.304688 L 548.4375 621.105469 L 542.011719 621.105469 Z M 542.011719 585.304688 " clip-rule="nonzero"/></clipPath><clipPath id="7009cf86db"><path d="M 569.460938 583.976562 L 600.292969 583.976562 L 600.292969 622.519531 L 569.460938 622.519531 Z M 569.460938 583.976562 " clip-rule="nonzero"/></clipPath><clipPath id="5ad0718cf4"><path d="M 569.460938 583.976562 L 593.871094 607.917969 L 593.871094 585.304688 L 600.292969 585.304688 L 600.292969 622.433594 L 575.886719 598.625 L 575.886719 621.105469 L 569.460938 621.105469 Z M 569.460938 583.976562 " clip-rule="nonzero"/></clipPath><clipPath id="68151571ec"><path d="M 619.136719 584.664062 L 649.285156 584.664062 L 649.285156 621.757812 L 619.136719 621.757812 Z M 619.136719 584.664062 " clip-rule="nonzero"/></clipPath><clipPath id="e67f5615f4"><path d="M 638.148438 584.664062 C 642.472656 584.664062 646.328125 585.988281 649.285156 588.429688 L 649.285156 595.28125 C 646.371094 592.285156 642.515625 590.484375 638.148438 590.484375 C 630.953125 590.484375 625.515625 595.925781 625.515625 603.203125 C 625.515625 610.480469 630.953125 615.878906 638.148438 615.878906 C 642.515625 615.878906 646.371094 614.082031 649.285156 611.082031 L 649.285156 617.9375 C 646.285156 620.417969 642.472656 621.703125 638.148438 621.703125 C 627.613281 621.703125 619.136719 613.910156 619.136719 603.207031 C 619.136719 592.542969 627.613281 584.664062 638.148438 584.664062 " clip-rule="nonzero"/></clipPath><clipPath id="22da8750e4"><path d="M 665.429688 583.550781 L 700.894531 583.550781 L 700.894531 621.222656 L 665.429688 621.222656 Z M 665.429688 583.550781 " clip-rule="nonzero"/></clipPath><clipPath id="c5a917367d"><path d="M 688.339844 608.601562 L 683.027344 596.953125 L 677.71875 608.601562 Z M 683.113281 583.550781 L 700.757812 621.105469 L 693.949219 621.105469 L 690.777344 614.167969 L 675.363281 614.167969 L 672.195312 621.105469 L 665.429688 621.105469 Z M 683.113281 583.550781 " clip-rule="nonzero"/></clipPath><clipPath id="f99b6fca59"><path d="M 718.613281 585.304688 L 746.320312 585.304688 L 746.320312 621.128906 L 718.613281 621.128906 Z M 718.613281 585.304688 " clip-rule="nonzero"/></clipPath><clipPath id="f1643bf83e"><path d="M 731.890625 602.605469 C 735.398438 602.605469 737.800781 600.207031 737.800781 596.738281 C 737.800781 593.441406 735.484375 591.085938 732.402344 591.085938 L 725.078125 591.085938 L 725.078125 602.605469 Z M 718.613281 585.304688 L 732.53125 585.304688 C 738.914062 585.304688 744.136719 590.1875 744.136719 596.652344 C 744.136719 601.363281 741.480469 605.21875 737.625 606.847656 L 746.320312 621.105469 L 739.082031 621.105469 L 731.417969 608.386719 L 725.078125 608.386719 L 725.078125 621.105469 L 718.65625 621.105469 L 718.65625 585.304688 Z M 718.613281 585.304688 " clip-rule="nonzero"/></clipPath><clipPath id="4957fc6977"><path d="M 337.128906 334.203125 L 809.027344 334.203125 L 809.027344 501.449219 L 337.128906 501.449219 Z M 337.128906 334.203125 " clip-rule="nonzero"/></clipPath><clipPath id="8704d5080b"><path d="M 808.84375 396.457031 C 807.429688 395.769531 799.292969 399.839844 787.5625 414.226562 C 785.589844 416.667969 783.535156 419.238281 781.480469 421.847656 C 766.535156 440.863281 747.949219 464.414062 720.84375 461.503906 C 707.65625 460.046875 701.402344 447.628906 698.488281 437.480469 C 695.703125 427.890625 694.507812 416.667969 694.765625 402.195312 C 694.808594 400.394531 694.976562 398.597656 695.148438 396.84375 C 695.621094 392.132812 696.046875 388.0625 693.652344 384.464844 C 691.125 380.65625 685.644531 377.316406 681.273438 374.617188 C 680.417969 374.101562 679.5625 373.589844 678.792969 373.074219 C 675.878906 371.234375 672.710938 369.648438 669.886719 368.277344 C 660.292969 363.570312 648.816406 360.785156 636.78125 360.273438 C 635.796875 360.230469 634.34375 360.144531 632.714844 360.144531 L 630.1875 360.101562 L 630.785156 357.617188 C 634.082031 343.53125 632.753906 337.488281 631.597656 336.292969 C 629.972656 334.621094 628.171875 334.023438 626.375 334.535156 C 623.847656 335.308594 621.792969 338.007812 621.105469 341.515625 L 620.976562 342.328125 C 618.75 356.121094 612.753906 383.097656 597.855469 408.578125 C 575.585938 446.730469 543.125 465.574219 501.632812 464.675781 C 479.492188 464.207031 461.976562 456.796875 449.472656 442.667969 L 448.234375 441.296875 L 449.472656 439.96875 C 461.121094 427.421875 477.09375 407.292969 486.816406 382.414062 C 490.113281 373.894531 492.296875 360.488281 487.5 350.640625 C 484.757812 345.03125 480.09375 341.21875 473.539062 339.25 C 468.660156 337.75 455.898438 338.4375 442.578125 346.53125 C 431.191406 353.421875 416.542969 367.640625 411.234375 395.945312 C 407.9375 413.503906 408.320312 430.933594 412.261719 446.394531 L 412.691406 448.019531 L 411.148438 448.75 C 407.035156 450.632812 403.570312 452.003906 400.1875 453.074219 C 387.808594 456.972656 380.359375 458.769531 359.121094 454.015625 C 350.339844 452.046875 343.492188 453.375 339.851562 457.785156 C 336.722656 461.554688 336.296875 467.335938 338.738281 472.859375 C 342.164062 480.652344 350 485.664062 359.675781 486.175781 C 371.96875 486.863281 393.636719 482.410156 412.308594 471.058594 C 414.191406 469.902344 416.160156 468.621094 418.128906 467.292969 L 419.929688 466.050781 L 421.042969 467.933594 C 433.890625 489.773438 455.6875 501.292969 484.035156 501.292969 C 548.527344 501.292969 598.285156 440.441406 616.015625 399.503906 C 617.855469 395.261719 619.441406 391.410156 620.894531 387.683594 L 621.28125 386.699219 L 622.308594 386.441406 C 637.125 382.84375 654.683594 387.339844 665 397.359375 L 666.285156 398.515625 C 669.710938 401.472656 672.109375 404.425781 669.15625 413.121094 C 668.339844 415.472656 666.839844 418.386719 665.386719 421.214844 C 664.230469 423.484375 663.117188 425.621094 662.433594 427.335938 C 653.226562 450.546875 654.425781 468.191406 666.242188 482.835938 C 675.363281 494.140625 686.453125 499.964844 699.132812 500.050781 L 699.472656 500.050781 C 721.742188 500.050781 746.792969 481.976562 761.824219 463.992188 C 768.074219 456.539062 773.941406 449.257812 779.851562 441.9375 L 787.304688 432.773438 C 808.457031 406.867188 809.65625 397.53125 808.84375 396.460938 M 442.234375 427.460938 L 440.179688 429.390625 L 438.980469 426.863281 C 434.527344 417.398438 431.785156 406.304688 431.355469 395.730469 C 430.585938 377.273438 440.179688 361.511719 449.984375 354.105469 C 456.792969 348.964844 463.988281 347.296875 470.28125 349.394531 C 472.894531 350.25 474.992188 352.347656 476.40625 355.476562 C 479.53125 362.328125 478.804688 372.5625 474.4375 382.925781 C 471.140625 390.933594 460.003906 410.632812 442.234375 427.460938 " clip-rule="nonzero"/></clipPath><clipPath id="611c2dab56"><path d="M 14.019531 188.550781 L 396.210938 188.550781 L 396.210938 517.542969 L 14.019531 517.542969 Z M 14.019531 188.550781 " clip-rule="nonzero"/></clipPath><clipPath id="d00f41911b"><path d="M 135.707031 306.011719 C 89.585938 330.765625 12.417969 372.21875 14.046875 444.289062 C 14.515625 466.042969 22.652344 483.726562 38.199219 496.917969 C 60.679688 515.972656 91.300781 519.484375 110.65625 516.703125 C 151.550781 510.878906 225.292969 486.253906 259.464844 386.992188 L 260.492188 383.953125 L 262.804688 386.179688 C 276.9375 399.925781 295.867188 422.105469 296.9375 456.195312 C 297.921875 488.011719 304.128906 489.726562 304.386719 489.8125 C 306.398438 490.152344 309.527344 481.761719 312.351562 474.351562 C 313.765625 470.585938 315.394531 466.300781 317.277344 461.761719 C 329.097656 433.242188 352.519531 394.746094 370.507812 369.222656 C 391.402344 339.546875 397.957031 329.738281 395.773438 327.167969 C 395.257812 326.570312 394.617188 326.3125 393.632812 326.398438 C 389.476562 326.738281 376.03125 333.550781 340.871094 389.863281 C 321.003906 421.679688 318.433594 427.03125 318.347656 427.246094 L 316.121094 432 L 314.535156 427.03125 C 314.410156 426.605469 301.691406 386.308594 285.546875 363.3125 C 271.285156 343.011719 255.957031 333.121094 243.492188 336.121094 C 237.027344 337.746094 231.203125 344.382812 233.171875 353.550781 C 233.902344 358.945312 236.171875 365.710938 240.109375 374.359375 C 246.277344 387.890625 239.726562 410.632812 223.410156 432.257812 C 203.195312 459.023438 165.683594 485.230469 120.933594 478.421875 C 106.117188 476.195312 94.855469 467.328125 88.429688 452.8125 C 78.839844 431.1875 81.664062 399.800781 94.984375 379.757812 C 115.796875 348.410156 138.921875 329.140625 176.902344 302.503906 C 177.546875 302.03125 177.675781 301.691406 177.71875 301.433594 C 178.015625 299.636719 175.148438 295.824219 172.0625 291.84375 C 164.398438 281.738281 152.792969 266.492188 155.964844 243.324219 C 158.789062 222.636719 174.289062 215.269531 186.667969 215.269531 C 199.558594 215.269531 215.273438 220.453125 217.027344 235.054688 C 217.96875 242.847656 222.296875 249.355469 228.589844 252.484375 C 233.941406 255.140625 239.808594 254.925781 245.164062 251.84375 C 254.882812 246.234375 258.351562 237.28125 254.925781 226.707031 C 248.761719 207.648438 222.550781 188.550781 194.886719 188.550781 C 192.875 188.550781 190.820312 188.636719 188.804688 188.851562 C 169.191406 190.863281 153.691406 200.152344 144.011719 215.742188 C 129.410156 239.292969 140.03125 272.140625 157.460938 291.109375 L 159.128906 292.910156 L 157.03125 294.191406 C 151.378906 297.617188 144.140625 301.515625 135.707031 306.011719 " clip-rule="nonzero"/></clipPath><clipPath id="9c0b017866"><path d="M 764.136719 585.304688 L 786.960938 585.304688 L 786.960938 591.128906 L 764.136719 591.128906 Z M 764.136719 591.128906 L 770.558594 591.128906 L 770.558594 599.648438 L 764.136719 599.648438 Z M 764.136719 599.648438 L 785.933594 599.648438 L 785.933594 605.472656 L 764.136719 605.472656 Z M 764.136719 605.472656 L 770.558594 605.472656 L 770.558594 615.324219 L 764.136719 615.324219 Z M 764.136719 615.324219 L 787.300781 615.324219 L 787.300781 621.144531 L 764.136719 621.144531 Z M 764.136719 615.324219 " clip-rule="nonzero"/></clipPath></defs><g clip-path="url(#416b2f286e)"><g clip-path="url(#dcb84a6aeb)"><path fill="#ffffff" d="M 0 584.664062 L 30.148438 584.664062 L 30.148438 621.757812 L 0 621.757812 Z M 0 584.664062 " fill-opacity="1" fill-rule="nonzero"/></g></g><g clip-path="url(#8f2615c936)"><path fill="#ffffff" d="M 50.230469 585.304688 L 70.871094 585.304688 L 70.871094 621.105469 L 50.230469 621.105469 Z M 50.230469 585.304688 " fill-opacity="1" fill-rule="nonzero"/></g><g clip-path="url(#8307681fa7)"><path fill="#ffffff" d="M 89.328125 585.304688 L 112.496094 585.304688 L 112.496094 621.140625 L 89.328125 621.140625 Z M 89.328125 585.304688 " fill-opacity="1" fill-rule="nonzero"/></g><g clip-path="url(#6f459f5ebb)"><g clip-path="url(#ad53a9f496)"><path fill="#ffffff" d="M 128.726562 583.550781 L 164.097656 583.550781 L 164.097656 621.132812 L 128.726562 621.132812 Z M 128.726562 583.550781 " fill-opacity="1" fill-rule="nonzero"/></g></g><g clip-path="url(#e850dc042d)"><g clip-path="url(#a57657f18e)"><path fill="#ffffff" d="M 181.914062 583.976562 L 212.746094 583.976562 L 212.746094 622.398438 L 181.914062 622.398438 Z M 181.914062 583.976562 " fill-opacity="1" fill-rule="nonzero"/></g></g><g clip-path="url(#128e446e31)"><path fill="#ffffff" d="M 233.726562 585.304688 L 240.152344 585.304688 L 240.152344 621.109375 L 233.726562 621.109375 Z M 233.726562 585.304688 " fill-opacity="1" fill-rule="nonzero"/></g><g clip-path="url(#2e5d2c68e8)"><g clip-path="url(#a388288b42)"><path fill="#ffffff" d="M 259.25 584.664062 L 289.398438 584.664062 L 289.398438 621.757812 L 259.25 621.757812 Z M 259.25 584.664062 " fill-opacity="1" fill-rule="nonzero"/></g></g><g clip-path="url(#cb9d5aa90b)"><g clip-path="url(#3bbc64d3e5)"><path fill="#ffffff" d="M 305.5 583.550781 L 340.871094 583.550781 L 340.871094 621.132812 L 305.5 621.132812 Z M 305.5 583.550781 " fill-opacity="1" fill-rule="nonzero"/></g></g><g clip-path="url(#428d24ffc7)"><path fill="#ffffff" d="M 358.6875 585.304688 L 379.328125 585.304688 L 379.328125 621.105469 L 358.6875 621.105469 Z M 358.6875 585.304688 " fill-opacity="1" fill-rule="nonzero"/></g><g clip-path="url(#b516a98d64)"><g clip-path="url(#58b6d39df2)"><path fill="#ffffff" d="M 383.351562 584.363281 L 411.222656 584.363281 L 411.222656 597.082031 L 383.351562 597.082031 Z M 383.351562 584.363281 " fill-opacity="1" fill-rule="nonzero"/></g></g><g clip-path="url(#ba30bcfae4)"><g clip-path="url(#da66cd11de)"><path fill="#ffffff" d="M 452.082031 584.707031 L 477.007812 584.707031 L 477.007812 621.699219 L 452.082031 621.699219 Z M 452.082031 584.707031 " fill-opacity="1" fill-rule="nonzero"/></g></g><g clip-path="url(#d2f085a9e5)"><g clip-path="url(#de35dcf444)"><path fill="#ffffff" d="M 495.589844 585.304688 L 524.324219 585.304688 L 524.324219 621.109375 L 495.589844 621.109375 Z M 495.589844 585.304688 " fill-opacity="1" fill-rule="nonzero"/></g></g><g clip-path="url(#af906c2a70)"><path fill="#ffffff" d="M 542.011719 585.304688 L 548.433594 585.304688 L 548.433594 621.113281 L 542.011719 621.113281 Z M 542.011719 585.304688 " fill-opacity="1" fill-rule="nonzero"/></g><g clip-path="url(#7009cf86db)"><g clip-path="url(#5ad0718cf4)"><path fill="#ffffff" d="M 569.460938 583.976562 L 600.292969 583.976562 L 600.292969 622.398438 L 569.460938 622.398438 Z M 569.460938 583.976562 " fill-opacity="1" fill-rule="nonzero"/></g></g><g clip-path="url(#68151571ec)"><g clip-path="url(#e67f5615f4)"><path fill="#ffffff" d="M 619.136719 584.664062 L 649.285156 584.664062 L 649.285156 621.757812 L 619.136719 621.757812 Z M 619.136719 584.664062 " fill-opacity="1" fill-rule="nonzero"/></g></g><g clip-path="url(#22da8750e4)"><g clip-path="url(#c5a917367d)"><path fill="#ffffff" d="M 665.429688 583.550781 L 700.757812 583.550781 L 700.757812 621.085938 L 665.429688 621.085938 Z M 665.429688 583.550781 " fill-opacity="1" fill-rule="nonzero"/></g></g><g clip-path="url(#f99b6fca59)"><g clip-path="url(#f1643bf83e)"><path fill="#ffffff" d="M 718.613281 585.304688 L 746.320312 585.304688 L 746.320312 621.128906 L 718.613281 621.128906 Z M 718.613281 585.304688 " fill-opacity="1" fill-rule="nonzero"/></g></g><g clip-path="url(#4957fc6977)"><g clip-path="url(#8704d5080b)"><path fill="#ffffff" d="M 13.039062 187.566406 L 810.007812 187.566406 L 810.007812 518.527344 L 13.039062 518.527344 Z M 13.039062 187.566406 " fill-opacity="1" fill-rule="nonzero"/></g></g><g clip-path="url(#611c2dab56)"><g clip-path="url(#d00f41911b)"><path fill="#ffffff" d="M 13.039062 187.566406 L 810.007812 187.566406 L 810.007812 518.527344 L 13.039062 518.527344 Z M 13.039062 187.566406 " fill-opacity="1" fill-rule="nonzero"/></g></g><g clip-path="url(#9c0b017866)"><path fill="#ffffff" d="M 764.136719 585.304688 L 787.300781 585.304688 L 787.300781 621.140625 L 764.136719 621.140625 Z M 764.136719 585.304688 " fill-opacity="1" fill-rule="nonzero"/></g></svg>