<?xml version="1.0" encoding="utf-8"?>
<svg xml:space="preserve" viewBox="0 0 100 100" y="0" x="0" xmlns="http://www.w3.org/2000/svg" id="Layer_1" version="1.1" style="height: 100%; width: 100%; background: none; shape-rendering: auto;" width="200px" height="200px"><g class="ldl-scale" style="transform-origin: 50% 50%; transform: rotate(0deg) scale(0.8, 0.8);"><g class="ldl-ani"><g class="ldl-layer"><g class="ldl-ani" style="transform-origin: 50px 50px; transform: matrix(1, 0, 0, 1, 0, 0); animation: 1.11111s linear -0.833333s infinite normal forwards running tremble-8d06250b-3a2d-4736-b259-9ad6e3a768cc;"><path d="M84.1 15.9c-8-7.9-20.9-7.9-28.8 0L41.7 29.6c-1.5 1.5-2.6 3.1-3.6 4.8.9-.2 1.9-.4 2.8-.6 1.9-.2 3.7-.3 5.6-.1l13.3-13.3c5.4-5.4 14.3-5.4 19.7 0 5.4 5.4 5.4 14.3 0 19.7L66.2 53.4l-.3.3c-.5.5-1.1 1-1.7 1.4-.7.5-1.4.9-2.1 1.3-1.4.7-2.9 1.1-4.4 1.3-.7.1-1.4.1-2.2.1-.7 0-1.4-.1-2.1-.2-2.6-.5-5.2-1.8-7.2-3.8s-3.3-4.6-3.8-7.2c-.1-.7-.2-1.4-.2-2.1-1.5.2-2.9.7-4.2 1.5-.7.4-1.3.9-2 1.4.1.8.3 1.6.6 2.4.9 3.1 2.6 6.1 5.1 8.5s5.4 4.2 8.5 5.1l2.4.6c.8.1 1.7.2 2.5.3 1.7.1 3.5-.1 5.2-.4.9-.2 1.8-.5 2.6-.8.9-.3 1.8-.7 2.6-1.1 1.7-.9 3.4-2.1 4.8-3.6l13.6-13.6c8.1-8 8.1-20.9.2-28.9z" style="fill: rgb(255, 0, 0);"></path></g></g><g class="ldl-layer"><g class="ldl-ani" style="transform-origin: 50px 50px; transform: matrix(1, 0, 0, 1, 0, 0); animation: 1.11111s linear -1.11111s infinite normal forwards running tremble-8d06250b-3a2d-4736-b259-9ad6e3a768cc;"><path d="M61.9 65.6c-.9.2-1.9.4-2.8.6-1.9.2-3.7.3-5.6.1L40.2 79.5c-5.4 5.4-14.3 5.4-19.7 0-5.4-5.4-5.4-14.3 0-19.7l13.3-13.3.3-.3c.5-.5 1.1-1 1.7-1.4.7-.5 1.4-.9 2.1-1.3 1.4-.7 2.9-1.1 4.4-1.3.7-.1 1.4-.1 2.2-.1.7 0 1.4.1 2.1.2 2.6.5 5.2 1.8 7.2 3.8s3.3 4.6 3.8 7.2c.1.7.2 1.4.2 2.1 1.5-.2 2.9-.7 4.2-1.5.7-.4 1.3-.9 2-1.4-.1-.8-.3-1.6-.6-2.4-.9-3.1-2.6-6.1-5.1-8.5s-5.4-4.2-8.5-5.1l-2.4-.6c-.8-.1-1.7-.2-2.5-.3-1.7-.1-3.5.1-5.2.4-.9.2-1.8.5-2.6.8-.9.3-1.8.7-2.6 1.1-1.7.9-3.4 2.1-4.8 3.6L15.9 55.3C8 63.2 8 76.1 15.9 84.1s20.8 7.9 28.8 0l13.6-13.6c1.5-1.5 2.7-3.1 3.6-4.9z" style="fill: rgb(255, 0, 0);"></path></g></g><metadata xmlns:d="https://loading.io/stock/">
<d:name>link</d:name>
<d:tags>chain,lock,circle,ring,shackle,url,link,web application</d:tags>
<d:license>by</d:license>
<d:slug>lpzc7a</d:slug>
</metadata></g></g><style id="tremble-8d06250b-3a2d-4736-b259-9ad6e3a768cc" data-anikit="">@keyframes tremble-8d06250b-3a2d-4736-b259-9ad6e3a768cc {
  0% { transform: translate(0px,0px) rotate(0deg) scale(1) }
  3.33333% { transform: translate(-0.18923px,1.45485px) rotate(0deg) scale(1) }
  6.66667% { transform: translate(-0.84296px,-1.32524px) rotate(0deg) scale(1) }
  10% { transform: translate(0.67971px,1.00422px) rotate(0deg) scale(1) }
  13.33333% { transform: translate(-0.5056px,0.83616px) rotate(0deg) scale(1) }
  16.66667% { transform: translate(1.31368px,-0.51401px) rotate(0deg) scale(1) }
  20% { transform: translate(-1.21184px,1.49193px) rotate(0deg) scale(1) }
  23.33333% { transform: translate(1.09065px,-0.21259px) rotate(0deg) scale(1) }
  26.66667% { transform: translate(-1.49916px,0.56159px) rotate(0deg) scale(1) }
  30% { transform: translate(1.48086px,1.21228px) rotate(0deg) scale(1) }
  33.33333% { transform: translate(-1.43889px,-1.152px) rotate(0deg) scale(1) }
  36.66667% { transform: translate(1.35914px,1.34835px) rotate(0deg) scale(1) }
  40% { transform: translate(-1.42834px,0.3091px) rotate(0deg) scale(1) }
  43.33333% { transform: translate(1.47472px,-1.49889px) rotate(0deg) scale(1) }
  46.66667% { transform: translate(-0.92402px,1.4416px) rotate(0deg) scale(1) }
  50% { transform: translate(1.0657px,-0.75306px) rotate(0deg) scale(1) }
  53.33333% { transform: translate(-1.19035px,-1.07484px) rotate(0deg) scale(1) }
  56.66667% { transform: translate(0.28828px,0.79337px) rotate(0deg) scale(1) }
  60% { transform: translate(-0.47167px,-1.42789px) rotate(0deg) scale(1) }
  63.33333% { transform: translate(0.64753px,-0.09795px) rotate(0deg) scale(1) }
  66.66667% { transform: translate(0.41006px,-0.26292px) rotate(0deg) scale(1) }
  70% { transform: translate(-0.22477px,-1.3683px) rotate(0deg) scale(1) }
  73.33333% { transform: translate(0.03588px,0.92931px) rotate(0deg) scale(1) }
  76.66667% { transform: translate(-1.01937px,-1.18398px) rotate(0deg) scale(1) }
  80% { transform: translate(0.8724px,-0.60494px) rotate(0deg) scale(1) }
  83.33333% { transform: translate(-0.71151px,1.4786px) rotate(0deg) scale(1) }
  86.66667% { transform: translate(1.40734px,-1.49607px) rotate(0deg) scale(1) }
  90% { transform: translate(-1.33062px,0.46957px) rotate(0deg) scale(1) }
  93.33333% { transform: translate(1.23264px,1.26738px) rotate(0deg) scale(1) }
  96.66667% { transform: translate(-1.48975px,-1.03867px) rotate(0deg) scale(1) }
  100% { transform: translate(0,0) rotate(0) scale(1) }
}</style><!-- [ldio] generated by https://loading.io/ --></svg>