<?xml version="1.0" encoding="utf-8"?>
<svg xml:space="preserve" viewBox="0 0 100 100" y="0" x="0" xmlns="http://www.w3.org/2000/svg" id="Layer_1" version="1.1" style="height: 100%; width: 100%; background: none; shape-rendering: auto;" width="200px" height="200px"><g class="ldl-scale" style="transform-origin: 50% 50%; transform: rotate(0deg) scale(0.8, 0.8);"><g class="ldl-ani"><linearGradient y2="85.807" x2="51.618" y1="37.807" x1="36.618" gradientUnits="userSpaceOnUse" id="SVGID_1_"><stop stop-color="#e15c64" offset="0" style="stop-color: rgb(225, 92, 100);"></stop><stop stop-color="#b0484f" offset="1" style="stop-color: rgb(176, 72, 79);"></stop></linearGradient><g class="ldl-layer"><g class="ldl-ani" style="transform: scale(0.91); transform-origin: 50px 50px; animation: 1.11111s linear -0.740741s infinite normal forwards running breath-3e0728e6-a1e4-4420-bb29-a9c6cafe8f37;"><path stroke-miterlimit="10" stroke-width="3.5" stroke="#323232" fill="url(#SVGID_1_)" d="M44.859 16.397L9.485 77.667c-2.285 3.957.571 8.904 5.141 8.904h70.748c4.57 0 7.425-4.947 5.141-8.904l-35.374-61.27c-2.285-3.957-7.997-3.957-10.282 0z" style="stroke: rgb(50, 50, 50);"></path></g></g><g class="ldl-layer"><g class="ldl-ani"><g><g class="ldl-layer"><g class="ldl-ani" style="transform: scale(0.91); transform-origin: 50px 50px; animation: 1.11111s linear -0.925926s infinite normal forwards running breath-3e0728e6-a1e4-4420-bb29-a9c6cafe8f37;"><path fill="#fff" d="M53.4 68.511l.6 3.906a4.048 4.048 0 0 1-8 1.23 4.183 4.183 0 0 1 0-1.229l.6-3.906a3.44 3.44 0 0 1 6.8-.001z" style="fill: rgb(255, 255, 255);"></path></g></g></g></g></g><g class="ldl-layer"><g class="ldl-ani"><g><g class="ldl-layer"><g class="ldl-ani" style="transform: scale(0.91); transform-origin: 50px 50px; animation: 1.11111s linear -1.11111s infinite normal forwards running breath-3e0728e6-a1e4-4420-bb29-a9c6cafe8f37;"><path fill="#fff" d="M54 40.417l-1.2 17.28a2.807 2.807 0 0 1-5.6 0L46 40.417a4.01 4.01 0 1 1 8 0z" style="fill: rgb(255, 255, 255);"></path></g></g></g></g></g><metadata xmlns:d="https://loading.io/stock/"><d:name>fail</d:name><d:tags>fail,reject,deny,negative,refuse,error,cancel,drop,warning</d:tags><d:license>by</d:license><d:slug>oiotst</d:slug></metadata></g></g><style id="breath-3e0728e6-a1e4-4420-bb29-a9c6cafe8f37" data-anikit="">@keyframes breath-3e0728e6-a1e4-4420-bb29-a9c6cafe8f37
{
  0% {
    animation-timing-function: cubic-bezier(0.9647,0.2413,-0.0705,0.7911);
    transform: scale(0.9099999999999999);
  }
  51% {
    animation-timing-function: cubic-bezier(0.9226,0.2631,-0.0308,0.7628);
    transform: scale(1.02994);
  }
  100% {
    transform: scale(0.9099999999999999);
  }
}</style><!-- [ldio] generated by https://loading.io/ --></svg>