<?xml version="1.0" encoding="utf-8"?>
<svg xml:space="preserve" viewBox="0 0 100 100" y="0" x="0" xmlns="http://www.w3.org/2000/svg" id="Layer_1" version="1.1" style="height: 100%; width: 100%; background: none; shape-rendering: auto;" width="200px" height="200px"><g class="ldl-scale" style="transform-origin: 50% 50%; transform: rotate(0deg) scale(0.8, 0.8);"><g class="ldl-ani"><g class="ldl-layer"><g class="ldl-ani" style="transform: scale(0.91); transform-origin: 50px 50px; animation: 1.11111s linear -0.833333s infinite normal forwards running breath-969435f0-5198-4c84-8f3e-564649771e7f;"><path d="M84.1 15.9c-8-7.9-20.9-7.9-28.8 0L41.7 29.6c-1.5 1.5-2.6 3.1-3.6 4.8.9-.2 1.9-.4 2.8-.6 1.9-.2 3.7-.3 5.6-.1l13.3-13.3c5.4-5.4 14.3-5.4 19.7 0 5.4 5.4 5.4 14.3 0 19.7L66.2 53.4l-.3.3c-.5.5-1.1 1-1.7 1.4-.7.5-1.4.9-2.1 1.3-1.4.7-2.9 1.1-4.4 1.3-.7.1-1.4.1-2.2.1-.7 0-1.4-.1-2.1-.2-2.6-.5-5.2-1.8-7.2-3.8s-3.3-4.6-3.8-7.2c-.1-.7-.2-1.4-.2-2.1-1.5.2-2.9.7-4.2 1.5-.7.4-1.3.9-2 1.4.1.8.3 1.6.6 2.4.9 3.1 2.6 6.1 5.1 8.5s5.4 4.2 8.5 5.1l2.4.6c.8.1 1.7.2 2.5.3 1.7.1 3.5-.1 5.2-.4.9-.2 1.8-.5 2.6-.8.9-.3 1.8-.7 2.6-1.1 1.7-.9 3.4-2.1 4.8-3.6l13.6-13.6c8.1-8 8.1-20.9.2-28.9z" style="fill: rgb(141, 255, 0);"></path></g></g><g class="ldl-layer"><g class="ldl-ani" style="transform: scale(0.91); transform-origin: 50px 50px; animation: 1.11111s linear -1.11111s infinite normal forwards running breath-969435f0-5198-4c84-8f3e-564649771e7f;"><path d="M61.9 65.6c-.9.2-1.9.4-2.8.6-1.9.2-3.7.3-5.6.1L40.2 79.5c-5.4 5.4-14.3 5.4-19.7 0-5.4-5.4-5.4-14.3 0-19.7l13.3-13.3.3-.3c.5-.5 1.1-1 1.7-1.4.7-.5 1.4-.9 2.1-1.3 1.4-.7 2.9-1.1 4.4-1.3.7-.1 1.4-.1 2.2-.1.7 0 1.4.1 2.1.2 2.6.5 5.2 1.8 7.2 3.8s3.3 4.6 3.8 7.2c.1.7.2 1.4.2 2.1 1.5-.2 2.9-.7 4.2-1.5.7-.4 1.3-.9 2-1.4-.1-.8-.3-1.6-.6-2.4-.9-3.1-2.6-6.1-5.1-8.5s-5.4-4.2-8.5-5.1l-2.4-.6c-.8-.1-1.7-.2-2.5-.3-1.7-.1-3.5.1-5.2.4-.9.2-1.8.5-2.6.8-.9.3-1.8.7-2.6 1.1-1.7.9-3.4 2.1-4.8 3.6L15.9 55.3C8 63.2 8 76.1 15.9 84.1s20.8 7.9 28.8 0l13.6-13.6c1.5-1.5 2.7-3.1 3.6-4.9z" style="fill: rgb(141, 255, 0);"></path></g></g><metadata xmlns:d="https://loading.io/stock/">
<d:name>link</d:name>
<d:tags>chain,lock,circle,ring,shackle,url,link,web application</d:tags>
<d:license>by</d:license>
<d:slug>lpzc7a</d:slug>
</metadata></g></g><style id="breath-969435f0-5198-4c84-8f3e-564649771e7f" data-anikit="">@keyframes breath-969435f0-5198-4c84-8f3e-564649771e7f
{
  0% {
    animation-timing-function: cubic-bezier(0.9647,0.2413,-0.0705,0.7911);
    transform: scale(0.9099999999999999);
  }
  51% {
    animation-timing-function: cubic-bezier(0.9226,0.2631,-0.0308,0.7628);
    transform: scale(1.02994);
  }
  100% {
    transform: scale(0.9099999999999999);
  }
}</style><!-- [ldio] generated by https://loading.io/ --></svg>