<?xml version="1.0" encoding="utf-8"?>
<svg xml:space="preserve" viewBox="0 0 100 100" y="0" x="0" xmlns="http://www.w3.org/2000/svg" id="Layer_1" version="1.1" style="height: 100%; width: 100%; background: none; shape-rendering: auto;" width="200px" height="200px"><g class="ldl-scale" style="transform-origin: 50% 50%; transform: rotate(0deg) scale(0.8, 0.8);"><g class="ldl-ani"><g class="ldl-layer"><g class="ldl-ani" style="transform: scale(0.91); transform-origin: 50px 50px; animation: 1.11111s linear -0.740741s infinite normal forwards running breath-c5ace51b-682d-4c90-8e05-b0e0e6512810;"><path fill="#e0e0e0" d="M77.48 28.757L61.231 12.508c-1.191-1.166-2.28-1.727-3.276-1.732H22.589c-.943 0-1.711.762-1.711 1.698v75.051c0 .936.768 1.698 1.711 1.698h54.822c.943 0 1.711-.762 1.711-1.698V32.033c.009-.998-.508-2.085-1.642-3.276z" style="fill: rgb(224, 224, 224);"></path></g></g><g class="ldl-layer"><g class="ldl-ani" style="transform: scale(0.91); transform-origin: 50px 50px; animation: 1.11111s linear -0.925926s infinite normal forwards running breath-c5ace51b-682d-4c90-8e05-b0e0e6512810;"><path fill="#666" d="M62.414 28.757H77.48L61.231 12.508v15.066c0 .652.531 1.183 1.183 1.183z" style="fill: rgb(102, 102, 102);"></path></g></g><g class="ldl-layer"><g class="ldl-ani" style="transform: scale(0.91); transform-origin: 50px 50px; animation: 1.11111s linear -1.11111s infinite normal forwards running breath-c5ace51b-682d-4c90-8e05-b0e0e6512810;"><path fill="#323232" d="M80.461 26.424L62.256 8.286a2.676 2.676 0 0 0-1.902-.786H22.589c-2.75 0-4.987 2.232-4.987 4.975v75.051c0 2.743 2.237 4.975 4.987 4.975h54.822c2.75 0 4.987-2.232 4.987-4.975V31.085a6.536 6.536 0 0 0-1.937-4.661zm-2.981 2.333H62.414a1.185 1.185 0 0 1-1.183-1.183V12.508L77.48 28.757zm-.069 60.467H22.589a1.707 1.707 0 0 1-1.711-1.698V12.475c0-.936.768-1.698 1.711-1.698h35.366v16.798c0 2.459 2 4.459 4.459 4.459h16.708v55.493c0 .935-.767 1.697-1.711 1.697zm3.05-62.8L62.256 8.286a2.676 2.676 0 0 0-1.902-.786H22.589c-2.75 0-4.987 2.232-4.987 4.975v75.051c0 2.743 2.237 4.975 4.987 4.975h54.822c2.75 0 4.987-2.232 4.987-4.975V31.085a6.536 6.536 0 0 0-1.937-4.661zm-2.981 2.333H62.414a1.185 1.185 0 0 1-1.183-1.183V12.508L77.48 28.757zm-.069 60.467H22.589a1.707 1.707 0 0 1-1.711-1.698V12.475c0-.936.768-1.698 1.711-1.698h35.366v16.798c0 2.459 2 4.459 4.459 4.459h16.708v55.493c0 .935-.767 1.697-1.711 1.697zm-36.313-45.81a21.012 21.012 0 0 1 3.864-1.377c.225-.057.871-.303 1.083-.19.161.085.338.585.424.734l.764 1.324 1.501 2.6 4.264 7.387H30.908c.832-1.912 1.975-3.765 3.373-5.319a20.513 20.513 0 0 1 6.817-5.159zM29.155 63.012a20.653 20.653 0 0 1 .555-5.572c.119-.493.182-1.502.539-1.856.173-.171.536-.094.817-.094h13.172l-2.706 4.687-8.34 14.445c-1.039-1.411-1.853-2.94-2.536-4.549-.864-2.287-1.414-4.614-1.501-7.061zm14.85 19.248c-2.581-.786-5.021-2.052-7.117-3.756a21.704 21.704 0 0 1-1.897-1.741c-.279-.288-.716-.566-.656-.929.068-.409.557-.964.762-1.319l1.335-2.312 4.807-8.325 1.382 2.393 9.663 16.738c-2.154.242-4.323.123-6.447-.291-.575-.11-1.254-.458-1.832-.458zm20.846-32.123a57058.46 57058.46 0 0 1-6.088 10.544l-1.572-2.723-9.473-16.409a20.797 20.797 0 0 1 5.109.066c4.987.672 9.61 3.193 12.914 6.98-.296.515-.593 1.029-.89 1.542zm5.16 18.035c-.153.526-.088.793-.518.897-.379.092-.895 0-1.285 0H55.766l2.706-4.687 8.34-14.445c2.483 3.367 3.862 7.437 4.036 11.609a21.232 21.232 0 0 1-.837 6.626zM59.789 80.699a20.818 20.818 0 0 1-5.298 1.953c-.473.103-.365.149-.603-.061-.28-.246-.478-.828-.663-1.149l-2.415-4.184-3.805-6.591H69.095a20.886 20.886 0 0 1-1.738 3.179 21.4 21.4 0 0 1-1.05 1.42c-.165.21-.908.859-.908 1.089a20.964 20.964 0 0 1-5.61 4.344z" style="fill: rgb(50, 50, 50);"></path></g></g><metadata xmlns:d="https://loading.io/stock/"><d:name>camera</d:name><d:tags>camera,raw,nef,jpg,png,webp,gif,bmp,apng,ico,file,photo,picture,image</d:tags><d:license>by</d:license><d:slug>w3m36a</d:slug></metadata></g></g><style id="breath-c5ace51b-682d-4c90-8e05-b0e0e6512810" data-anikit="">@keyframes breath-c5ace51b-682d-4c90-8e05-b0e0e6512810
{
  0% {
    animation-timing-function: cubic-bezier(0.9647,0.2413,-0.0705,0.7911);
    transform: scale(0.9099999999999999);
  }
  51% {
    animation-timing-function: cubic-bezier(0.9226,0.2631,-0.0308,0.7628);
    transform: scale(1.02994);
  }
  100% {
    transform: scale(0.9099999999999999);
  }
}</style><!-- [ldio] generated by https://loading.io/ --></svg>