<?xml version="1.0" encoding="utf-8"?>
<svg xmlns="http://www.w3.org/2000/svg" style="margin: auto; background: none; display: block; shape-rendering: auto;" width="280" height="250" preserveAspectRatio="xMidYMid">
<style type="text/css">
  text {
    text-anchor: middle; font-size: 27px; opacity: 0;
  }
</style>
<g style="transform-origin: 140px 125px; transform: scale(0.3375);">
<g transform="translate(140,125)">
  <g transform="translate(0,0)"><g class="path" style="transform: scale(0.91); transform-origin: -348.32px -5.87686px; animation: 1s linear -0.627s infinite normal forwards running breath-f10ed9c8-0795-40d7-8883-fa84fe518f4f;"><path d="M26.02-53.67L33.24-53.67L33.24-53.67Q33.01-50.35 32.87-46.88L32.87-46.88L32.87-46.88Q32.73-43.40 32.66-39.96L32.66-39.96L32.66-39.96Q32.58-36.52 32.54-33.20L32.54-33.20L32.54-33.20Q32.50-29.88 32.50-26.88L32.50-26.88L32.50-26.88Q32.50-23.87 32.54-20.55L32.54-20.55L32.54-20.55Q32.58-17.23 32.66-13.77L32.66-13.77L32.66-13.77Q32.73-10.31 32.85-6.82L32.85-6.82L32.85-6.82Q32.97-3.32 33.16 0L33.16 0L25.94 0L25.94 0Q23.95-5.74 22.03-10.94L22.03-10.94L22.03-10.94Q20.12-16.13 18.22-21.00L18.22-21.00L18.22-21.00Q16.33-25.86 14.45-30.49L14.45-30.49L14.45-30.49Q12.58-35.12 10.70-39.69L10.70-39.69L10.43-39.69L10.43-39.69Q10.35-36.29 10.37-33.07L10.37-33.07L10.37-33.07Q10.39-29.84 10.39-26.88L10.39-26.88L10.39-26.88Q10.39-23.87 10.43-20.55L10.43-20.55L10.43-20.55Q10.47-17.23 10.55-13.77L10.55-13.77L10.55-13.77Q10.63-10.31 10.74-6.82L10.74-6.82L10.74-6.82Q10.86-3.32 11.05 0L11.05 0L3.91 0L3.91 0Q4.14-3.32 4.28-6.82L4.28-6.82L4.28-6.82Q4.41-10.31 4.49-13.77L4.49-13.77L4.49-13.77Q4.57-17.23 4.61-20.55L4.61-20.55L4.61-20.55Q4.65-23.87 4.65-26.88L4.65-26.88L4.65-26.88Q4.65-29.88 4.61-33.20L4.61-33.20L4.61-33.20Q4.57-36.52 4.49-39.96L4.49-39.96L4.49-39.96Q4.41-43.40 4.28-46.88L4.28-46.88L4.28-46.88Q4.14-50.35 3.91-53.67L3.91-53.67L11.21-53.67L11.21-53.67Q15.16-42.19 18.95-31.99L18.95-31.99L18.95-31.99Q22.73-21.80 26.52-12.66L26.52-12.66L26.80-12.66L26.80-12.66Q26.84-14.38 26.84-16.25L26.84-16.25L26.84-16.25Q26.84-18.13 26.82-19.98L26.82-19.98L26.82-19.98Q26.80-21.84 26.78-23.59L26.78-23.59L26.78-23.59Q26.76-25.35 26.76-26.88L26.76-26.88L26.76-26.88Q26.76-29.88 26.72-33.20L26.72-33.20L26.72-33.20Q26.68-36.52 26.60-39.96L26.60-39.96L26.60-39.96Q26.52-43.40 26.39-46.88L26.39-46.88L26.39-46.88Q26.25-50.35 26.02-53.67L26.02-53.67" fill="#28292f" stroke="none" stroke-width="none" transform="translate(-366.89495849609375,20.95813647460937)" style="fill: rgb(40, 41, 47);"></path></g><g class="path" style="transform: scale(0.91); transform-origin: -310.18px -5.84186px; animation: 1s linear -0.594s infinite normal forwards running breath-f10ed9c8-0795-40d7-8883-fa84fe518f4f;"><path d="M73.63-26.80L73.63-26.80L73.63-26.80Q73.63-19.57 72.34-14.32L72.34-14.32L72.34-14.32Q71.05-9.06 68.77-5.64L68.77-5.64L68.77-5.64Q66.48-2.23 63.40-0.59L63.40-0.59L63.40-0.59Q60.31 1.05 56.76 1.05L56.76 1.05L56.76 1.05Q53.16 1.05 50.08-0.59L50.08-0.59L50.08-0.59Q46.99-2.23 44.71-5.64L44.71-5.64L44.71-5.64Q42.42-9.06 41.11-14.32L41.11-14.32L41.11-14.32Q39.80-19.57 39.80-26.80L39.80-26.80L39.80-26.80Q39.80-33.98 41.11-39.24L41.11-39.24L41.11-39.24Q42.42-44.49 44.71-47.93L44.71-47.93L44.71-47.93Q46.99-51.37 50.08-53.01L50.08-53.01L50.08-53.01Q53.16-54.65 56.76-54.65L56.76-54.65L56.76-54.65Q60.31-54.65 63.40-53.01L63.40-53.01L63.40-53.01Q66.48-51.37 68.77-47.93L68.77-47.93L68.77-47.93Q71.05-44.49 72.34-39.24L72.34-39.24L72.34-39.24Q73.63-33.98 73.63-26.80zM66.91-26.80L66.91-26.80L66.91-26.80Q66.91-32.81 66.13-37.19L66.13-37.19L66.13-37.19Q65.35-41.56 63.98-44.39L63.98-44.39L63.98-44.39Q62.62-47.23 60.76-48.57L60.76-48.57L60.76-48.57Q58.91-49.92 56.76-49.92L56.76-49.92L56.76-49.92Q54.57-49.92 52.71-48.57L52.71-48.57L52.71-48.57Q50.86-47.23 49.47-44.39L49.47-44.39L49.47-44.39Q48.09-41.56 47.30-37.19L47.30-37.19L47.30-37.19Q46.52-32.81 46.52-26.80L46.52-26.80L46.52-26.80Q46.52-20.74 47.30-16.37L47.30-16.37L47.30-16.37Q48.09-11.99 49.47-9.18L49.47-9.18L49.47-9.18Q50.86-6.37 52.71-5.02L52.71-5.02L52.71-5.02Q54.57-3.67 56.76-3.67L56.76-3.67L56.76-3.67Q58.91-3.67 60.76-5.02L60.76-5.02L60.76-5.02Q62.62-6.37 63.98-9.18L63.98-9.18L63.98-9.18Q65.35-11.99 66.13-16.37L66.13-16.37L66.13-16.37Q66.91-20.74 66.91-26.80" fill="#28292f" stroke="none" stroke-width="none" transform="translate(-366.89495849609375,20.95813647460937)" style="fill: rgb(40, 41, 47);"></path></g><g class="path" style="transform: scale(0.91); transform-origin: -267.15px -5.87686px; animation: 1s linear -0.561s infinite normal forwards running breath-f10ed9c8-0795-40d7-8883-fa84fe518f4f;"><path d="M96.05-53.67L103.44-53.67L103.44-53.67Q103.20-50.35 103.07-46.88L103.07-46.88L103.07-46.88Q102.93-43.40 102.85-39.96L102.85-39.96L102.85-39.96Q102.77-36.52 102.73-33.20L102.73-33.20L102.73-33.20Q102.70-29.88 102.70-26.88L102.70-26.88L102.70-26.88Q102.70-23.87 102.73-20.55L102.73-20.55L102.73-20.55Q102.77-17.23 102.85-13.77L102.85-13.77L102.85-13.77Q102.93-10.31 103.05-6.82L103.05-6.82L103.05-6.82Q103.16-3.32 103.36 0L103.36 0L96.05 0L96.05 0Q96.29-3.32 96.43-6.82L96.43-6.82L96.43-6.82Q96.56-10.31 96.64-13.77L96.64-13.77L96.64-13.77Q96.72-17.23 96.76-20.55L96.76-20.55L96.76-20.55Q96.80-23.87 96.80-26.88L96.80-26.88L96.80-26.88Q96.80-29.88 96.76-33.20L96.76-33.20L96.76-33.20Q96.72-36.52 96.64-39.96L96.64-39.96L96.64-39.96Q96.56-43.40 96.43-46.88L96.43-46.88L96.43-46.88Q96.29-50.35 96.05-53.67L96.05-53.67" fill="#28292f" stroke="none" stroke-width="none" transform="translate(-366.89495849609375,20.95813647460937)" style="fill: rgb(40, 41, 47);"></path></g><g class="path" style="transform: scale(0.91); transform-origin: -232.29px -6.36686px; animation: 1s linear -0.528s infinite normal forwards running breath-f10ed9c8-0795-40d7-8883-fa84fe518f4f;"><path d="M131.76-25.70L131.76-25.70L131.76-25.70Q131.68-31.80 131.50-36.35L131.50-36.35L131.50-36.35Q131.33-40.90 130.76-43.89L130.76-43.89L130.76-43.89Q130.20-46.88 129.10-48.36L129.10-48.36L129.10-48.36Q128.01-49.84 126.09-49.84L126.09-49.84L126.09-49.84Q125.39-49.84 124.43-49.49L124.43-49.49L124.43-49.49Q123.48-49.14 122.44-48.54L122.44-48.54L122.44-48.54Q121.41-47.93 120.35-47.09L120.35-47.09L120.35-47.09Q119.30-46.25 118.32-45.31L118.32-45.31L118.32-45.31Q118.13-40.59 118.05-35.92L118.05-35.92L118.05-35.92Q117.97-31.25 117.97-26.37L117.97-26.37L117.97-26.37Q117.97-22.73 118.01-19.45L118.01-19.45L118.01-19.45Q118.05-16.17 118.13-13.01L118.13-13.01L118.13-13.01Q118.20-9.84 118.36-6.66L118.36-6.66L118.36-6.66Q118.52-3.48 118.71 0L118.71 0L111.48 0L111.48 0Q111.68-3.48 111.82-6.66L111.82-6.66L111.82-6.66Q111.95-9.84 112.05-13.01L112.05-13.01L112.05-13.01Q112.15-16.17 112.19-19.45L112.19-19.45L112.19-19.45Q112.23-22.73 112.23-26.37L112.23-26.37L112.23-26.37Q112.23-30 112.19-33.42L112.19-33.42L112.19-33.42Q112.15-36.84 112.05-40.18L112.05-40.18L112.05-40.18Q111.95-43.52 111.82-46.86L111.82-46.86L111.82-46.86Q111.68-50.20 111.48-53.67L111.48-53.67L118.75-53.67L118.55-50.39L118.55-50.39Q120.66-52.27 123.11-53.46L123.11-53.46L123.11-53.46Q125.55-54.65 127.89-54.65L127.89-54.65L127.89-54.65Q130.82-54.65 132.95-53.14L132.95-53.14L132.95-53.14Q135.08-51.64 136.25-48.63L136.25-48.63L136.25-48.63Q137.42-49.88 138.77-50.98L138.77-50.98L138.77-50.98Q140.12-52.07 141.54-52.89L141.54-52.89L141.54-52.89Q142.97-53.71 144.47-54.18L144.47-54.18L144.47-54.18Q145.98-54.65 147.42-54.65L147.42-54.65L147.42-54.65Q152.07-54.65 154.63-50.96L154.63-50.96L154.63-50.96Q157.19-47.27 157.19-39.96L157.19-39.96L157.19-39.96Q157.19-38.16 157.17-36.11L157.17-36.11L157.17-36.11Q157.15-34.06 157.11-32.09L157.11-32.09L157.11-32.09Q157.07-30.12 157.05-28.44L157.05-28.44L157.05-28.44Q157.03-26.76 157.03-25.70L157.03-25.70L157.03-25.70Q157.03-22.07 157.07-18.91L157.07-18.91L157.07-18.91Q157.11-15.74 157.19-12.70L157.19-12.70L157.19-12.70Q157.27-9.65 157.40-6.56L157.40-6.56L157.40-6.56Q157.54-3.48 157.73 0L157.73 0L150.55 0L150.55 0Q150.74-3.48 150.90-6.56L150.90-6.56L150.90-6.56Q151.05-9.65 151.17-12.70L151.17-12.70L151.17-12.70Q151.29-15.74 151.31-18.91L151.31-18.91L151.31-18.91Q151.33-22.07 151.29-25.70L151.29-25.70L151.29-25.70Q151.21-31.80 151.04-36.35L151.04-36.35L151.04-36.35Q150.86-40.90 150.29-43.89L150.29-43.89L150.29-43.89Q149.73-46.88 148.63-48.36L148.63-48.36L148.63-48.36Q147.54-49.84 145.63-49.84L145.63-49.84L145.63-49.84Q144.84-49.84 143.83-49.43L143.83-49.43L143.83-49.43Q142.81-49.02 141.70-48.34L141.70-48.34L141.70-48.34Q140.59-47.66 139.43-46.72L139.43-46.72L139.43-46.72Q138.28-45.78 137.30-44.73L137.30-44.73L137.30-44.73Q137.66-42.54 137.66-39.96L137.66-39.96L137.66-39.96Q137.66-38.16 137.64-36.11L137.64-36.11L137.64-36.11Q137.62-34.06 137.58-32.09L137.58-32.09L137.58-32.09Q137.54-30.12 137.52-28.44L137.52-28.44L137.52-28.44Q137.50-26.76 137.50-25.70L137.50-25.70L137.50-25.70Q137.50-22.07 137.54-18.91L137.54-18.91L137.54-18.91Q137.58-15.74 137.66-12.70L137.66-12.70L137.66-12.70Q137.73-9.65 137.87-6.56L137.87-6.56L137.87-6.56Q138.01-3.48 138.20 0L138.20 0L131.02 0L131.02 0Q131.21-3.48 131.37-6.56L131.37-6.56L131.37-6.56Q131.52-9.65 131.64-12.70L131.64-12.70L131.64-12.70Q131.76-15.74 131.78-18.91L131.78-18.91L131.78-18.91Q131.80-22.07 131.76-25.70" fill="#28292f" stroke="none" stroke-width="none" transform="translate(-366.89495849609375,20.95813647460937)" style="fill: rgb(40, 41, 47);"></path></g><g class="path" style="transform: scale(0.91); transform-origin: -188.75px -5.87686px; animation: 1s linear -0.495s infinite normal forwards running breath-f10ed9c8-0795-40d7-8883-fa84fe518f4f;"><path d="M192.77 0L185.31 0L185.51-4.73L185.51-4.73Q184.57-3.67 183.59-2.64L183.59-2.64L183.59-2.64Q182.62-1.60 181.41-0.80L181.41-0.80L181.41-0.80Q180.20 0 178.65 0.49L178.65 0.49L178.65 0.49Q177.11 0.98 175 0.98L175 0.98L175 0.98Q172.58 0.98 170.49-0.02L170.49-0.02L170.49-0.02Q168.40-1.02 166.86-2.93L166.86-2.93L166.86-2.93Q165.31-4.84 164.41-7.68L164.41-7.68L164.41-7.68Q163.52-10.51 163.52-14.22L163.52-14.22L163.52-14.22Q163.52-18.95 164.96-22.30L164.96-22.30L164.96-22.30Q166.41-25.66 169.24-28.01L169.24-28.01L169.24-28.01Q172.07-30.35 176.27-31.80L176.27-31.80L176.27-31.80Q180.47-33.24 185.98-34.14L185.98-34.14L185.98-34.14Q185.98-38.87 185.49-41.95L185.49-41.95L185.49-41.95Q185-45.04 184.06-46.86L184.06-46.86L184.06-46.86Q183.13-48.67 181.74-49.38L181.74-49.38L181.74-49.38Q180.35-50.08 178.55-50.08L178.55-50.08L178.55-50.08Q176.99-50.08 175.43-49.59L175.43-49.59L175.43-49.59Q173.87-49.10 172.32-48.28L172.32-48.28L172.32-48.28Q170.78-47.46 169.24-46.39L169.24-46.39L169.24-46.39Q167.70-45.31 166.21-44.14L166.21-44.14L166.21-51.72L166.21-51.72Q167.85-52.34 169.34-52.87L169.34-52.87L169.34-52.87Q170.82-53.40 172.32-53.79L172.32-53.79L172.32-53.79Q173.83-54.18 175.35-54.41L175.35-54.41L175.35-54.41Q176.88-54.65 178.59-54.65L178.59-54.65L178.59-54.65Q182.03-54.65 184.59-53.71L184.59-53.71L184.59-53.71Q187.15-52.77 188.85-50.74L188.85-50.74L188.85-50.74Q190.55-48.71 191.39-45.51L191.39-45.51L191.39-45.51Q192.23-42.30 192.23-37.81L192.23-37.81L192.23-37.81Q192.23-37.38 192.21-36.37L192.21-36.37L192.21-36.37Q192.19-35.35 192.17-33.98L192.17-33.98L192.17-33.98Q192.15-32.62 192.13-31.05L192.13-31.05L192.13-31.05Q192.11-29.49 192.09-27.97L192.09-27.97L192.09-27.97Q192.07-26.45 192.05-25.10L192.05-25.10L192.05-25.10Q192.03-23.75 192.03-22.85L192.03-22.85L192.03-22.85Q192.03-20.78 192.07-18.18L192.07-18.18L192.07-18.18Q192.11-15.59 192.21-12.66L192.21-12.66L192.21-12.66Q192.30-9.73 192.44-6.52L192.44-6.52L192.44-6.52Q192.58-3.32 192.77 0L192.77 0zM185.78-10.66L185.78-10.66L185.78-10.66Q185.90-14.65 185.98-19.20L185.98-19.20L185.98-19.20Q186.05-23.75 186.05-29.61L186.05-29.61L186.05-29.61Q181.09-29.02 178.05-27.70L178.05-27.70L178.05-27.70Q175-26.37 173.32-24.43L173.32-24.43L173.32-24.43Q171.64-22.50 171.05-20.04L171.05-20.04L171.05-20.04Q170.47-17.58 170.47-14.69L170.47-14.69L170.47-14.69Q170.47-12.23 170.92-10.23L170.92-10.23L170.92-10.23Q171.37-8.24 172.23-6.86L172.23-6.86L172.23-6.86Q173.09-5.47 174.26-4.73L174.26-4.73L174.26-4.73Q175.43-3.98 176.91-3.98L176.91-3.98L176.91-3.98Q178.59-3.98 179.86-4.59L179.86-4.59L179.86-4.59Q181.13-5.20 182.17-6.15L182.17-6.15L182.17-6.15Q183.20-7.11 184.06-8.30L184.06-8.30L184.06-8.30Q184.92-9.49 185.78-10.66" fill="#28292f" stroke="none" stroke-width="none" transform="translate(-366.89495849609375,20.95813647460937)" style="fill: rgb(40, 41, 47);"></path></g><g class="path" style="transform: scale(0.91); transform-origin: -152.52px -5.83686px; animation: 1s linear -0.462s infinite normal forwards running breath-f10ed9c8-0795-40d7-8883-fa84fe518f4f;"><path d="M215.59-21.88L215.59-26.41L229.80-26.41L229.80-26.41Q229.65-23.20 229.59-20.12L229.59-20.12L229.59-20.12Q229.53-17.03 229.53-14.22L229.53-14.22L229.53-14.22Q229.53-11.41 229.55-9.08L229.55-9.08L229.55-9.08Q229.57-6.76 229.65-5.08L229.65-5.08L229.65-5.08Q229.73-3.09 229.80-1.52L229.80-1.52L229.80-1.52Q227.81-0.51 224.96 0.20L224.96 0.20L224.96 0.20Q222.11 0.90 218.05 0.90L218.05 0.90L218.05 0.90Q213.98 0.90 210.51-0.78L210.51-0.78L210.51-0.78Q207.03-2.46 204.45-5.88L204.45-5.88L204.45-5.88Q201.88-9.30 200.41-14.51L200.41-14.51L200.41-14.51Q198.95-19.73 198.95-26.80L198.95-26.80L198.95-26.80Q198.95-33.87 200.49-39.08L200.49-39.08L200.49-39.08Q202.03-44.30 204.69-47.71L204.69-47.71L204.69-47.71Q207.34-51.13 210.88-52.81L210.88-52.81L210.88-52.81Q214.41-54.49 218.40-54.49L218.40-54.49L218.40-54.49Q220.04-54.49 221.37-54.36L221.37-54.36L221.37-54.36Q222.70-54.22 223.85-53.98L223.85-53.98L223.85-53.98Q225-53.75 226.02-53.40L226.02-53.40L226.02-53.40Q227.03-53.05 228.01-52.66L228.01-52.66L228.01-44.77L228.01-44.77Q225.47-47.62 223.22-48.77L223.22-48.77L223.22-48.77Q220.98-49.92 218.36-49.92L218.36-49.92L218.36-49.92Q215.35-49.92 213.01-48.26L213.01-48.26L213.01-48.26Q210.66-46.60 209.04-43.55L209.04-43.55L209.04-43.55Q207.42-40.51 206.58-36.27L206.58-36.27L206.58-36.27Q205.74-32.03 205.74-26.88L205.74-26.88L205.74-26.88Q205.74-21.88 206.52-17.64L206.52-17.64L206.52-17.64Q207.30-13.40 208.87-10.29L208.87-10.29L208.87-10.29Q210.43-7.19 212.79-5.43L212.79-5.43L212.79-5.43Q215.16-3.67 218.32-3.67L218.32-3.67L218.32-3.67Q219.69-3.67 220.72-3.89L220.72-3.89L220.72-3.89Q221.76-4.10 222.77-4.65L222.77-4.65L222.77-4.65Q222.81-5.51 222.85-6.64L222.85-6.64L222.85-6.64Q222.89-7.62 222.93-9.00L222.93-9.00L222.93-9.00Q222.97-10.39 222.97-12.23L222.97-12.23L222.97-12.23Q222.97-14.22 222.91-16.64L222.91-16.64L222.91-16.64Q222.85-19.06 222.70-21.88L222.70-21.88L215.59-21.88" fill="#28292f" stroke="none" stroke-width="none" transform="translate(-366.89495849609375,20.95813647460937)" style="fill: rgb(40, 41, 47);"></path></g><g class="path" style="transform: scale(0.91); transform-origin: -115.72px -5.84186px; animation: 1s linear -0.429s infinite normal forwards running breath-f10ed9c8-0795-40d7-8883-fa84fe518f4f;"><path d="M254.61-3.52L254.61-3.52L254.61-3.52Q256.33-3.52 257.71-3.95L257.71-3.95L257.71-3.95Q259.10-4.38 260.27-5.02L260.27-5.02L260.27-5.02Q261.45-5.66 262.42-6.46L262.42-6.46L262.42-6.46Q263.40-7.27 264.30-8.01L264.30-8.01L264.30-0.31L264.30-0.31Q263.28-0.12 262.25 0.12L262.25 0.12L262.25 0.12Q261.21 0.35 259.94 0.55L259.94 0.55L259.94 0.55Q258.67 0.74 257.11 0.90L257.11 0.90L257.11 0.90Q255.55 1.05 253.52 1.05L253.52 1.05L253.52 1.05Q249.41 1.05 246.15-0.84L246.15-0.84L246.15-0.84Q242.89-2.73 240.61-6.31L240.61-6.31L240.61-6.31Q238.32-9.88 237.11-15.02L237.11-15.02L237.11-15.02Q235.90-20.16 235.90-26.64L235.90-26.64L235.90-26.64Q235.90-32.89 236.91-38.07L236.91-38.07L236.91-38.07Q237.93-43.24 239.90-46.91L239.90-46.91L239.90-46.91Q241.88-50.59 244.79-52.62L244.79-52.62L244.79-52.62Q247.70-54.65 251.52-54.65L251.52-54.65L251.52-54.65Q255.47-54.65 258.30-52.83L258.30-52.83L258.30-52.83Q261.13-51.02 262.95-47.56L262.95-47.56L262.95-47.56Q264.77-44.10 265.61-39.06L265.61-39.06L265.61-39.06Q266.45-34.02 266.45-27.54L266.45-27.54L266.45-26.09L242.85-26.09L242.85-26.09Q243.09-19.88 243.85-15.59L243.85-15.59L243.85-15.59Q244.61-11.29 246.02-8.59L246.02-8.59L246.02-8.59Q247.42-5.90 249.55-4.71L249.55-4.71L249.55-4.71Q251.68-3.52 254.61-3.52zM242.93-30.63L259.73-30.63L259.73-30.63Q259.65-32.89 259.49-35.23L259.49-35.23L259.49-35.23Q259.34-37.58 259.00-39.77L259.00-39.77L259.00-39.77Q258.67-41.95 258.11-43.87L258.11-43.87L258.11-43.87Q257.54-45.78 256.64-47.19L256.64-47.19L256.64-47.19Q255.74-48.59 254.45-49.41L254.45-49.41L254.45-49.41Q253.16-50.23 251.41-50.23L251.41-50.23L251.41-50.23Q249.06-50.23 247.52-48.52L247.52-48.52L247.52-48.52Q245.98-46.80 245.02-44.02L245.02-44.02L245.02-44.02Q244.06-41.25 243.59-37.73L243.59-37.73L243.59-37.73Q243.13-34.22 242.93-30.63L242.93-30.63" fill="#28292f" stroke="none" stroke-width="none" transform="translate(-366.89495849609375,20.95813647460937)" style="fill: rgb(40, 41, 47);"></path></g><g class="path" style="transform: scale(0.91); transform-origin: -66.17px -5.87686px; animation: 1s linear -0.396s infinite normal forwards running breath-f10ed9c8-0795-40d7-8883-fa84fe518f4f;"><path d="M316.80 0L309.38 0L309.38 0Q308.83-3.75 308.24-7.42L308.24-7.42L308.24-7.42Q307.66-11.09 307.07-14.77L307.07-14.77L294.38-14.77L294.38-14.77Q293.75-11.09 293.18-7.42L293.18-7.42L293.18-7.42Q292.62-3.75 292.07 0L292.07 0L284.65 0L284.65 0Q285.90-4.73 287.11-9.75L287.11-9.75L287.11-9.75Q288.32-14.77 289.41-19.75L289.41-19.75L289.41-19.75Q290.51-24.73 291.50-29.55L291.50-29.55L291.50-29.55Q292.50-34.38 293.34-38.77L293.34-38.77L293.34-38.77Q294.18-43.16 294.88-46.95L294.88-46.95L294.88-46.95Q295.59-50.74 296.09-53.67L296.09-53.67L305.35-53.67L305.35-53.67Q305.86-50.74 306.56-46.95L306.56-46.95L306.56-46.95Q307.27-43.16 308.11-38.77L308.11-38.77L308.11-38.77Q308.95-34.38 309.94-29.55L309.94-29.55L309.94-29.55Q310.94-24.73 312.03-19.75L312.03-19.75L312.03-19.75Q313.13-14.77 314.34-9.75L314.34-9.75L314.34-9.75Q315.55-4.73 316.80 0L316.80 0zM300.98-45.78L300.43-45.78L300.43-45.78Q298.83-39.14 297.54-32.58L297.54-32.58L297.54-32.58Q296.25-26.02 295.12-19.34L295.12-19.34L306.29-19.34L306.29-19.34Q305.16-26.02 303.85-32.58L303.85-32.58L303.85-32.58Q302.54-39.14 300.98-45.78L300.98-45.78" fill="#28292f" stroke="none" stroke-width="none" transform="translate(-366.89495849609375,20.95813647460937)" style="fill: rgb(40, 41, 47);"></path></g><g class="path" style="transform: scale(0.91); transform-origin: -25.725px -5.87686px; animation: 1s linear -0.363s infinite normal forwards running breath-f10ed9c8-0795-40d7-8883-fa84fe518f4f;"><path d="M341.45-43.87L340.90-43.87L340.90-43.87Q340.43-40.43 339.90-36.39L339.90-36.39L339.90-36.39Q339.38-32.34 338.83-28.14L338.83-28.14L338.83-28.14Q338.28-23.95 337.73-19.79L337.73-19.79L337.73-19.79Q337.19-15.63 336.72-11.89L336.72-11.89L336.72-11.89Q336.25-8.16 335.88-5.10L335.88-5.10L335.88-5.10Q335.51-2.03 335.31 0L335.31 0L326.05 0L326.05 0Q325.63-2.93 325.06-6.72L325.06-6.72L325.06-6.72Q324.49-10.51 323.81-14.90L323.81-14.90L323.81-14.90Q323.13-19.30 322.30-24.12L322.30-24.12L322.30-24.12Q321.48-28.95 320.57-33.93L320.57-33.93L320.57-33.93Q319.65-38.91 318.63-43.91L318.63-43.91L318.63-43.91Q317.62-48.91 316.56-53.67L316.56-53.67L324.10-53.67L324.10-53.67Q325.59-41.95 327.13-30.61L327.13-30.61L327.13-30.61Q328.67-19.26 330.51-7.89L330.51-7.89L331.05-7.89L331.05-7.89Q331.95-13.55 332.75-19.22L332.75-19.22L332.75-19.22Q333.55-24.88 334.28-30.61L334.28-30.61L334.28-30.61Q335-36.33 335.70-42.09L335.70-42.09L335.70-42.09Q336.41-47.85 337.15-53.67L337.15-53.67L345.20-53.67L345.20-53.67Q346.64-41.99 348.03-30.59L348.03-30.59L348.03-30.59Q349.41-19.18 351.25-7.89L351.25-7.89L351.80-7.89L351.80-7.89Q353.63-19.26 355.20-30.61L355.20-30.61L355.20-30.61Q356.76-41.95 358.24-53.67L358.24-53.67L365.78-53.67L365.78-53.67Q364.73-48.91 363.71-43.91L363.71-43.91L363.71-43.91Q362.70-38.91 361.78-33.93L361.78-33.93L361.78-33.93Q360.86-28.95 360.04-24.12L360.04-24.12L360.04-24.12Q359.22-19.30 358.54-14.90L358.54-14.90L358.54-14.90Q357.85-10.51 357.27-6.72L357.27-6.72L357.27-6.72Q356.68-2.93 356.29 0L356.29 0L347.03 0L347.03 0Q346.84-2.03 346.46-5.10L346.46-5.10L346.46-5.10Q346.09-8.16 345.63-11.89L345.63-11.89L345.63-11.89Q345.16-15.63 344.61-19.79L344.61-19.79L344.61-19.79Q344.06-23.95 343.52-28.14L343.52-28.14L343.52-28.14Q342.97-32.34 342.42-36.39L342.42-36.39L342.42-36.39Q341.88-40.43 341.45-43.87L341.45-43.87" fill="#28292f" stroke="none" stroke-width="none" transform="translate(-366.89495849609375,20.95813647460937)" style="fill: rgb(40, 41, 47);"></path></g><g class="path" style="transform: scale(0.91); transform-origin: 15.39px -5.87686px; animation: 1s linear -0.33s infinite normal forwards running breath-f10ed9c8-0795-40d7-8883-fa84fe518f4f;"><path d="M396.91 0L389.45 0L389.65-4.73L389.65-4.73Q388.71-3.67 387.73-2.64L387.73-2.64L387.73-2.64Q386.76-1.60 385.55-0.80L385.55-0.80L385.55-0.80Q384.34 0 382.79 0.49L382.79 0.49L382.79 0.49Q381.25 0.98 379.14 0.98L379.14 0.98L379.14 0.98Q376.72 0.98 374.63-0.02L374.63-0.02L374.63-0.02Q372.54-1.02 371.00-2.93L371.00-2.93L371.00-2.93Q369.45-4.84 368.55-7.68L368.55-7.68L368.55-7.68Q367.66-10.51 367.66-14.22L367.66-14.22L367.66-14.22Q367.66-18.95 369.10-22.30L369.10-22.30L369.10-22.30Q370.55-25.66 373.38-28.01L373.38-28.01L373.38-28.01Q376.21-30.35 380.41-31.80L380.41-31.80L380.41-31.80Q384.61-33.24 390.12-34.14L390.12-34.14L390.12-34.14Q390.12-38.87 389.63-41.95L389.63-41.95L389.63-41.95Q389.14-45.04 388.20-46.86L388.20-46.86L388.20-46.86Q387.27-48.67 385.88-49.38L385.88-49.38L385.88-49.38Q384.49-50.08 382.70-50.08L382.70-50.08L382.70-50.08Q381.13-50.08 379.57-49.59L379.57-49.59L379.57-49.59Q378.01-49.10 376.46-48.28L376.46-48.28L376.46-48.28Q374.92-47.46 373.38-46.39L373.38-46.39L373.38-46.39Q371.84-45.31 370.35-44.14L370.35-44.14L370.35-51.72L370.35-51.72Q371.99-52.34 373.48-52.87L373.48-52.87L373.48-52.87Q374.96-53.40 376.46-53.79L376.46-53.79L376.46-53.79Q377.97-54.18 379.49-54.41L379.49-54.41L379.49-54.41Q381.02-54.65 382.73-54.65L382.73-54.65L382.73-54.65Q386.17-54.65 388.73-53.71L388.73-53.71L388.73-53.71Q391.29-52.77 392.99-50.74L392.99-50.74L392.99-50.74Q394.69-48.71 395.53-45.51L395.53-45.51L395.53-45.51Q396.37-42.30 396.37-37.81L396.37-37.81L396.37-37.81Q396.37-37.38 396.35-36.37L396.35-36.37L396.35-36.37Q396.33-35.35 396.31-33.98L396.31-33.98L396.31-33.98Q396.29-32.62 396.27-31.05L396.27-31.05L396.27-31.05Q396.25-29.49 396.23-27.97L396.23-27.97L396.23-27.97Q396.21-26.45 396.19-25.10L396.19-25.10L396.19-25.10Q396.17-23.75 396.17-22.85L396.17-22.85L396.17-22.85Q396.17-20.78 396.21-18.18L396.21-18.18L396.21-18.18Q396.25-15.59 396.35-12.66L396.35-12.66L396.35-12.66Q396.45-9.73 396.58-6.52L396.58-6.52L396.58-6.52Q396.72-3.32 396.91 0L396.91 0zM389.92-10.66L389.92-10.66L389.92-10.66Q390.04-14.65 390.12-19.20L390.12-19.20L390.12-19.20Q390.20-23.75 390.20-29.61L390.20-29.61L390.20-29.61Q385.23-29.02 382.19-27.70L382.19-27.70L382.19-27.70Q379.14-26.37 377.46-24.43L377.46-24.43L377.46-24.43Q375.78-22.50 375.20-20.04L375.20-20.04L375.20-20.04Q374.61-17.58 374.61-14.69L374.61-14.69L374.61-14.69Q374.61-12.23 375.06-10.23L375.06-10.23L375.06-10.23Q375.51-8.24 376.37-6.86L376.37-6.86L376.37-6.86Q377.23-5.47 378.40-4.73L378.40-4.73L378.40-4.73Q379.57-3.98 381.05-3.98L381.05-3.98L381.05-3.98Q382.73-3.98 384.00-4.59L384.00-4.59L384.00-4.59Q385.27-5.20 386.31-6.15L386.31-6.15L386.31-6.15Q387.34-7.11 388.20-8.30L388.20-8.30L388.20-8.30Q389.06-9.49 389.92-10.66" fill="#28292f" stroke="none" stroke-width="none" transform="translate(-366.89495849609375,20.95813647460937)" style="fill: rgb(40, 41, 47);"></path></g><g class="path" style="transform: scale(0.91); transform-origin: 48.105px -6.36686px; animation: 1s linear -0.297s infinite normal forwards running breath-f10ed9c8-0795-40d7-8883-fa84fe518f4f;"><path d="M425.66-54.65L425.66-47.46L425.66-47.46Q420.51-47.46 416.68-46.02L416.68-46.02L416.68-46.02Q412.85-44.57 411.05-41.64L411.05-41.64L411.05-41.64Q410.82-34.06 410.82-26.37L410.82-26.37L410.82-26.37Q410.82-22.73 410.86-19.45L410.86-19.45L410.86-19.45Q410.90-16.17 410.98-13.01L410.98-13.01L410.98-13.01Q411.05-9.84 411.21-6.66L411.21-6.66L411.21-6.66Q411.37-3.48 411.56 0L411.56 0L404.34 0L404.34 0Q404.53-3.48 404.67-6.66L404.67-6.66L404.67-6.66Q404.80-9.84 404.90-13.01L404.90-13.01L404.90-13.01Q405-16.17 405.04-19.45L405.04-19.45L405.04-19.45Q405.08-22.73 405.08-26.37L405.08-26.37L405.08-26.37Q405.08-30 405.04-33.42L405.04-33.42L405.04-33.42Q405-36.84 404.90-40.18L404.90-40.18L404.90-40.18Q404.80-43.52 404.67-46.86L404.67-46.86L404.67-46.86Q404.53-50.20 404.34-53.67L404.34-53.67L411.60-53.67L411.60-53.67Q411.48-51.84 411.39-50.39L411.39-50.39L411.39-50.39Q411.29-48.95 411.21-47.15L411.21-47.15L411.21-47.15Q412.46-48.59 414.28-49.96L414.28-49.96L414.28-49.96Q416.09-51.33 418.09-52.36L418.09-52.36L418.09-52.36Q420.08-53.40 422.07-54.02L422.07-54.02L422.07-54.02Q424.06-54.65 425.66-54.65L425.66-54.65" fill="#28292f" stroke="none" stroke-width="none" transform="translate(-366.89495849609375,20.95813647460937)" style="fill: rgb(40, 41, 47);"></path></g><g class="path" style="transform: scale(0.91); transform-origin: 79.0051px -5.87686px; animation: 1s linear -0.264s infinite normal forwards running breath-f10ed9c8-0795-40d7-8883-fa84fe518f4f;"><path d="M430.35-53.67L442.58-53.67L442.58-53.67Q446.76-53.67 450.23-52.38L450.23-52.38L450.23-52.38Q453.71-51.09 456.19-47.99L456.19-47.99L456.19-47.99Q458.67-44.88 460.06-39.73L460.06-39.73L460.06-39.73Q461.45-34.57 461.45-26.88L461.45-26.88L461.45-26.88Q461.45-19.14 460.06-13.96L460.06-13.96L460.06-13.96Q458.67-8.79 456.17-5.68L456.17-5.68L456.17-5.68Q453.67-2.58 450.20-1.29L450.20-1.29L450.20-1.29Q446.72 0 442.50 0L442.50 0L430.35 0L430.35 0Q430.59-3.32 430.72-6.82L430.72-6.82L430.72-6.82Q430.86-10.31 430.94-13.77L430.94-13.77L430.94-13.77Q431.02-17.23 431.05-20.55L431.05-20.55L431.05-20.55Q431.09-23.87 431.09-26.88L431.09-26.88L431.09-26.88Q431.09-29.88 431.05-33.20L431.05-33.20L431.05-33.20Q431.02-36.52 430.94-39.96L430.94-39.96L430.94-39.96Q430.86-43.40 430.72-46.88L430.72-46.88L430.72-46.88Q430.59-50.35 430.35-53.67L430.35-53.67zM442.66-49.22L437.46-49.22L437.46-49.22Q437.19-43.44 437.09-37.68L437.09-37.68L437.09-37.68Q436.99-31.91 436.99-26.88L436.99-26.88L436.99-26.88Q436.99-21.84 437.07-16.04L437.07-16.04L437.07-16.04Q437.15-10.23 437.42-4.49L437.42-4.49L442.66-4.49L442.66-4.49Q444.34-4.49 445.88-4.86L445.88-4.86L445.88-4.86Q447.42-5.23 448.73-6.17L448.73-6.17L448.73-6.17Q450.04-7.11 451.13-8.73L451.13-8.73L451.13-8.73Q452.23-10.35 452.99-12.83L452.99-12.83L452.99-12.83Q453.75-15.31 454.16-18.77L454.16-18.77L454.16-18.77Q454.57-22.23 454.57-26.88L454.57-26.88L454.57-26.88Q454.57-31.52 454.16-34.98L454.16-34.98L454.16-34.98Q453.75-38.44 452.99-40.92L452.99-40.92L452.99-40.92Q452.23-43.40 451.13-45L451.13-45L451.13-45Q450.04-46.60 448.73-47.54L448.73-47.54L448.73-47.54Q447.42-48.48 445.88-48.85L445.88-48.85L445.88-48.85Q444.34-49.22 442.66-49.22L442.66-49.22" fill="#28292f" stroke="none" stroke-width="none" transform="translate(-366.89495849609375,20.95813647460937)" style="fill: rgb(40, 41, 47);"></path></g><g class="path" style="transform: scale(0.91); transform-origin: 127.675px -5.84186px; animation: 1s linear -0.231s infinite normal forwards running breath-f10ed9c8-0795-40d7-8883-fa84fe518f4f;"><path d="M492.70-3.36L492.70-3.36L492.70-3.36Q494.26-3.36 495.76-3.85L495.76-3.85L495.76-3.85Q497.27-4.34 498.44-5.43L498.44-5.43L498.44-5.43Q499.61-6.52 500.31-8.22L500.31-8.22L500.31-8.22Q501.02-9.92 501.02-12.38L501.02-12.38L501.02-12.38Q501.02-14.49 500.18-16.29L500.18-16.29L500.18-16.29Q499.34-18.09 497.97-19.73L497.97-19.73L497.97-19.73Q496.60-21.37 494.84-22.91L494.84-22.91L494.84-22.91Q493.09-24.45 491.25-26.02L491.25-26.02L491.25-26.02Q489.41-27.58 487.66-29.24L487.66-29.24L487.66-29.24Q485.90-30.90 484.53-32.75L484.53-32.75L484.53-32.75Q483.16-34.61 482.32-36.76L482.32-36.76L482.32-36.76Q481.48-38.91 481.48-41.45L481.48-41.45L481.48-41.45Q481.48-45.16 482.85-47.70L482.85-47.70L482.85-47.70Q484.22-50.23 486.33-51.78L486.33-51.78L486.33-51.78Q488.44-53.32 491.00-53.98L491.00-53.98L491.00-53.98Q493.55-54.65 495.98-54.65L495.98-54.65L495.98-54.65Q498.52-54.65 500.88-54.24L500.88-54.24L500.88-54.24Q503.24-53.83 505.43-53.36L505.43-53.36L505.43-45.59L505.43-45.59Q504.18-46.64 503.07-47.50L503.07-47.50L503.07-47.50Q501.95-48.36 500.84-48.96L500.84-48.96L500.84-48.96Q499.73-49.57 498.55-49.90L498.55-49.90L498.55-49.90Q497.38-50.23 496.05-50.23L496.05-50.23L496.05-50.23Q494.41-50.23 492.95-49.79L492.95-49.79L492.95-49.79Q491.48-49.34 490.41-48.40L490.41-48.40L490.41-48.40Q489.34-47.46 488.69-46.02L488.69-46.02L488.69-46.02Q488.05-44.57 488.05-42.58L488.05-42.58L488.05-42.58Q488.05-39.80 489.49-37.52L489.49-37.52L489.49-37.52Q490.94-35.23 493.13-33.16L493.13-33.16L493.13-33.16Q495.31-31.09 497.85-29.02L497.85-29.02L497.85-29.02Q500.39-26.95 502.58-24.57L502.58-24.57L502.58-24.57Q504.77-22.19 506.21-19.36L506.21-19.36L506.21-19.36Q507.66-16.52 507.66-12.89L507.66-12.89L507.66-12.89Q507.66-10.16 507.03-8.07L507.03-8.07L507.03-8.07Q506.41-5.98 505.33-4.43L505.33-4.43L505.33-4.43Q504.26-2.89 502.85-1.84L502.85-1.84L502.85-1.84Q501.45-0.78 499.84-0.14L499.84-0.14L499.84-0.14Q498.24 0.51 496.54 0.78L496.54 0.78L496.54 0.78Q494.84 1.05 493.24 1.05L493.24 1.05L493.24 1.05Q491.33 1.05 489.73 0.92L489.73 0.92L489.73 0.92Q488.13 0.78 486.74 0.53L486.74 0.53L486.74 0.53Q485.35 0.27 484.16-0.06L484.16-0.06L484.16-0.06Q482.97-0.39 481.84-0.78L481.84-0.78L481.84-8.79L481.84-8.79Q483.05-7.66 484.26-6.66L484.26-6.66L484.26-6.66Q485.47-5.66 486.78-4.92L486.78-4.92L486.78-4.92Q488.09-4.18 489.53-3.77L489.53-3.77L489.53-3.77Q490.98-3.36 492.70-3.36" fill="#28292f" stroke="none" stroke-width="none" transform="translate(-366.89495849609375,20.95813647460937)" style="fill: rgb(40, 41, 47);"></path></g><g class="path" style="transform: scale(0.91); transform-origin: 160.645px -5.84186px; animation: 1s linear -0.198s infinite normal forwards running breath-f10ed9c8-0795-40d7-8883-fa84fe518f4f;"><path d="M530.98-3.52L530.98-3.52L530.98-3.52Q532.70-3.52 534.08-3.95L534.08-3.95L534.08-3.95Q535.47-4.38 536.64-5.02L536.64-5.02L536.64-5.02Q537.81-5.66 538.79-6.46L538.79-6.46L538.79-6.46Q539.77-7.27 540.66-8.01L540.66-8.01L540.66-0.31L540.66-0.31Q539.65-0.12 538.61 0.12L538.61 0.12L538.61 0.12Q537.58 0.35 536.31 0.55L536.31 0.55L536.31 0.55Q535.04 0.74 533.48 0.90L533.48 0.90L533.48 0.90Q531.91 1.05 529.88 1.05L529.88 1.05L529.88 1.05Q525.78 1.05 522.52-0.84L522.52-0.84L522.52-0.84Q519.26-2.73 516.97-6.31L516.97-6.31L516.97-6.31Q514.69-9.88 513.48-15.02L513.48-15.02L513.48-15.02Q512.27-20.16 512.27-26.64L512.27-26.64L512.27-26.64Q512.27-32.89 513.28-38.07L513.28-38.07L513.28-38.07Q514.30-43.24 516.27-46.91L516.27-46.91L516.27-46.91Q518.24-50.59 521.15-52.62L521.15-52.62L521.15-52.62Q524.06-54.65 527.89-54.65L527.89-54.65L527.89-54.65Q531.84-54.65 534.67-52.83L534.67-52.83L534.67-52.83Q537.50-51.02 539.32-47.56L539.32-47.56L539.32-47.56Q541.13-44.10 541.97-39.06L541.97-39.06L541.97-39.06Q542.81-34.02 542.81-27.54L542.81-27.54L542.81-26.09L519.22-26.09L519.22-26.09Q519.45-19.88 520.21-15.59L520.21-15.59L520.21-15.59Q520.98-11.29 522.38-8.59L522.38-8.59L522.38-8.59Q523.79-5.90 525.92-4.71L525.92-4.71L525.92-4.71Q528.05-3.52 530.98-3.52zM519.30-30.63L536.09-30.63L536.09-30.63Q536.02-32.89 535.86-35.23L535.86-35.23L535.86-35.23Q535.70-37.58 535.37-39.77L535.37-39.77L535.37-39.77Q535.04-41.95 534.47-43.87L534.47-43.87L534.47-43.87Q533.91-45.78 533.01-47.19L533.01-47.19L533.01-47.19Q532.11-48.59 530.82-49.41L530.82-49.41L530.82-49.41Q529.53-50.23 527.77-50.23L527.77-50.23L527.77-50.23Q525.43-50.23 523.89-48.52L523.89-48.52L523.89-48.52Q522.34-46.80 521.39-44.02L521.39-44.02L521.39-44.02Q520.43-41.25 519.96-37.73L519.96-37.73L519.96-37.73Q519.49-34.22 519.30-30.63L519.30-30.63" fill="#28292f" stroke="none" stroke-width="none" transform="translate(-366.89495849609375,20.95813647460937)" style="fill: rgb(40, 41, 47);"></path></g><g class="path" style="transform: scale(0.91); transform-origin: 193.61px -5.87686px; animation: 1s linear -0.165s infinite normal forwards running breath-f10ed9c8-0795-40d7-8883-fa84fe518f4f;"><path d="M549.06-53.67L556.45-53.67L556.45-53.67Q556.21-50.35 556.07-46.88L556.07-46.88L556.07-46.88Q555.94-43.40 555.86-39.96L555.86-39.96L555.86-39.96Q555.78-36.52 555.74-33.20L555.74-33.20L555.74-33.20Q555.70-29.88 555.70-26.88L555.70-26.88L555.70-26.88Q555.70-21.84 555.78-16.07L555.78-16.07L555.78-16.07Q555.86-10.31 556.13-4.57L556.13-4.57L571.95-4.57L571.95 0L549.06 0L549.06 0Q549.30-3.32 549.43-6.82L549.43-6.82L549.43-6.82Q549.57-10.31 549.65-13.77L549.65-13.77L549.65-13.77Q549.73-17.23 549.77-20.55L549.77-20.55L549.77-20.55Q549.80-23.87 549.80-26.88L549.80-26.88L549.80-26.88Q549.80-29.88 549.77-33.20L549.77-33.20L549.77-33.20Q549.73-36.52 549.65-39.96L549.65-39.96L549.65-39.96Q549.57-43.40 549.43-46.88L549.43-46.88L549.43-46.88Q549.30-50.35 549.06-53.67L549.06-53.67" fill="#28292f" stroke="none" stroke-width="none" transform="translate(-366.89495849609375,20.95813647460937)" style="fill: rgb(40, 41, 47);"></path></g><g class="path" style="transform: scale(0.91); transform-origin: 223.38px -5.84186px; animation: 1s linear -0.132s infinite normal forwards running breath-f10ed9c8-0795-40d7-8883-fa84fe518f4f;"><path d="M593.71-3.52L593.71-3.52L593.71-3.52Q595.43-3.52 596.82-3.95L596.82-3.95L596.82-3.95Q598.20-4.38 599.38-5.02L599.38-5.02L599.38-5.02Q600.55-5.66 601.52-6.46L601.52-6.46L601.52-6.46Q602.50-7.27 603.40-8.01L603.40-8.01L603.40-0.31L603.40-0.31Q602.38-0.12 601.35 0.12L601.35 0.12L601.35 0.12Q600.31 0.35 599.04 0.55L599.04 0.55L599.04 0.55Q597.77 0.74 596.21 0.90L596.21 0.90L596.21 0.90Q594.65 1.05 592.62 1.05L592.62 1.05L592.62 1.05Q588.52 1.05 585.25-0.84L585.25-0.84L585.25-0.84Q581.99-2.73 579.71-6.31L579.71-6.31L579.71-6.31Q577.42-9.88 576.21-15.02L576.21-15.02L576.21-15.02Q575-20.16 575-26.64L575-26.64L575-26.64Q575-32.89 576.02-38.07L576.02-38.07L576.02-38.07Q577.03-43.24 579.00-46.91L579.00-46.91L579.00-46.91Q580.98-50.59 583.89-52.62L583.89-52.62L583.89-52.62Q586.80-54.65 590.63-54.65L590.63-54.65L590.63-54.65Q594.57-54.65 597.40-52.83L597.40-52.83L597.40-52.83Q600.23-51.02 602.05-47.56L602.05-47.56L602.05-47.56Q603.87-44.10 604.71-39.06L604.71-39.06L604.71-39.06Q605.55-34.02 605.55-27.54L605.55-27.54L605.55-26.09L581.95-26.09L581.95-26.09Q582.19-19.88 582.95-15.59L582.95-15.59L582.95-15.59Q583.71-11.29 585.12-8.59L585.12-8.59L585.12-8.59Q586.52-5.90 588.65-4.71L588.65-4.71L588.65-4.71Q590.78-3.52 593.71-3.52zM582.03-30.63L598.83-30.63L598.83-30.63Q598.75-32.89 598.59-35.23L598.59-35.23L598.59-35.23Q598.44-37.58 598.11-39.77L598.11-39.77L598.11-39.77Q597.77-41.95 597.21-43.87L597.21-43.87L597.21-43.87Q596.64-45.78 595.74-47.19L595.74-47.19L595.74-47.19Q594.84-48.59 593.55-49.41L593.55-49.41L593.55-49.41Q592.27-50.23 590.51-50.23L590.51-50.23L590.51-50.23Q588.16-50.23 586.62-48.52L586.62-48.52L586.62-48.52Q585.08-46.80 584.12-44.02L584.12-44.02L584.12-44.02Q583.16-41.25 582.70-37.73L582.70-37.73L582.70-37.73Q582.23-34.22 582.03-30.63L582.03-30.63" fill="#28292f" stroke="none" stroke-width="none" transform="translate(-366.89495849609375,20.95813647460937)" style="fill: rgb(40, 41, 47);"></path></g><g class="path" style="transform: scale(0.91); transform-origin: 258.01px -5.83686px; animation: 1s linear -0.099s infinite normal forwards running breath-f10ed9c8-0795-40d7-8883-fa84fe518f4f;"><path d="M617.34-26.80L617.34-26.80L617.34-26.80Q617.34-21.17 618.24-16.86L618.24-16.86L618.24-16.86Q619.14-12.54 620.80-9.61L620.80-9.61L620.80-9.61Q622.46-6.68 624.79-5.18L624.79-5.18L624.79-5.18Q627.11-3.67 629.96-3.67L629.96-3.67L629.96-3.67Q631.68-3.67 633.01-4.10L633.01-4.10L633.01-4.10Q634.34-4.53 635.41-5.18L635.41-5.18L635.41-5.18Q636.48-5.82 637.42-6.62L637.42-6.62L637.42-6.62Q638.36-7.42 639.26-8.16L639.26-8.16L639.26-0.31L639.26-0.31Q637.07 0.23 634.86 0.57L634.86 0.57L634.86 0.57Q632.66 0.90 629.96 0.90L629.96 0.90L629.96 0.90Q625.78 0.90 622.23-0.78L622.23-0.78L622.23-0.78Q618.67-2.46 616.07-5.88L616.07-5.88L616.07-5.88Q613.48-9.30 612.01-14.51L612.01-14.51L612.01-14.51Q610.55-19.73 610.55-26.80L610.55-26.80L610.55-26.80Q610.55-33.87 612.09-39.08L612.09-39.08L612.09-39.08Q613.63-44.30 616.27-47.71L616.27-47.71L616.27-47.71Q618.91-51.13 622.44-52.81L622.44-52.81L622.44-52.81Q625.98-54.49 629.96-54.49L629.96-54.49L629.96-54.49Q632.66-54.49 634.86-54.16L634.86-54.16L634.86-54.16Q637.07-53.83 639.26-53.28L639.26-53.28L639.26-45.43L639.26-45.43Q638.36-46.17 637.42-46.97L637.42-46.97L637.42-46.97Q636.48-47.77 635.41-48.42L635.41-48.42L635.41-48.42Q634.34-49.06 633.01-49.49L633.01-49.49L633.01-49.49Q631.68-49.92 629.96-49.92L629.96-49.92L629.96-49.92Q627.11-49.92 624.79-48.42L624.79-48.42L624.79-48.42Q622.46-46.91 620.80-43.98L620.80-43.98L620.80-43.98Q619.14-41.05 618.24-36.74L618.24-36.74L618.24-36.74Q617.34-32.42 617.34-26.80" fill="#28292f" stroke="none" stroke-width="none" transform="translate(-366.89495849609375,20.95813647460937)" style="fill: rgb(40, 41, 47);"></path></g><g class="path" style="transform: scale(0.91); transform-origin: 288.245px -5.87686px; animation: 1s linear -0.066s infinite normal forwards running breath-f10ed9c8-0795-40d7-8883-fa84fe518f4f;"><path d="M641.76-49.10L641.76-53.67L668.52-53.67L668.52-49.10L658.55-49.10L658.55-49.10Q658.24-43.36 658.16-37.62L658.16-37.62L658.16-37.62Q658.09-31.88 658.09-26.88L658.09-26.88L658.09-26.88Q658.09-23.87 658.13-20.55L658.13-20.55L658.13-20.55Q658.16-17.23 658.24-13.77L658.24-13.77L658.24-13.77Q658.32-10.31 658.44-6.82L658.44-6.82L658.44-6.82Q658.55-3.32 658.75 0L658.75 0L651.45 0L651.45 0Q651.68-3.32 651.82-6.82L651.82-6.82L651.82-6.82Q651.95-10.31 652.03-13.77L652.03-13.77L652.03-13.77Q652.11-17.23 652.15-20.55L652.15-20.55L652.15-20.55Q652.19-23.87 652.19-26.88L652.19-26.88L652.19-26.88Q652.19-31.88 652.09-37.62L652.09-37.62L652.09-37.62Q651.99-43.36 651.72-49.10L651.72-49.10L641.76-49.10" fill="#28292f" stroke="none" stroke-width="none" transform="translate(-366.89495849609375,20.95813647460937)" style="fill: rgb(40, 41, 47);"></path></g><g class="path" style="transform: scale(0.91); transform-origin: 318.18px -5.84186px; animation: 1s linear -0.033s infinite normal forwards running breath-f10ed9c8-0795-40d7-8883-fa84fe518f4f;"><path d="M688.52-3.52L688.52-3.52L688.52-3.52Q690.23-3.52 691.62-3.95L691.62-3.95L691.62-3.95Q693.01-4.38 694.18-5.02L694.18-5.02L694.18-5.02Q695.35-5.66 696.33-6.46L696.33-6.46L696.33-6.46Q697.30-7.27 698.20-8.01L698.20-8.01L698.20-0.31L698.20-0.31Q697.19-0.12 696.15 0.12L696.15 0.12L696.15 0.12Q695.12 0.35 693.85 0.55L693.85 0.55L693.85 0.55Q692.58 0.74 691.02 0.90L691.02 0.90L691.02 0.90Q689.45 1.05 687.42 1.05L687.42 1.05L687.42 1.05Q683.32 1.05 680.06-0.84L680.06-0.84L680.06-0.84Q676.80-2.73 674.51-6.31L674.51-6.31L674.51-6.31Q672.23-9.88 671.02-15.02L671.02-15.02L671.02-15.02Q669.80-20.16 669.80-26.64L669.80-26.64L669.80-26.64Q669.80-32.89 670.82-38.07L670.82-38.07L670.82-38.07Q671.84-43.24 673.81-46.91L673.81-46.91L673.81-46.91Q675.78-50.59 678.69-52.62L678.69-52.62L678.69-52.62Q681.60-54.65 685.43-54.65L685.43-54.65L685.43-54.65Q689.38-54.65 692.21-52.83L692.21-52.83L692.21-52.83Q695.04-51.02 696.86-47.56L696.86-47.56L696.86-47.56Q698.67-44.10 699.51-39.06L699.51-39.06L699.51-39.06Q700.35-34.02 700.35-27.54L700.35-27.54L700.35-26.09L676.76-26.09L676.76-26.09Q676.99-19.88 677.75-15.59L677.75-15.59L677.75-15.59Q678.52-11.29 679.92-8.59L679.92-8.59L679.92-8.59Q681.33-5.90 683.46-4.71L683.46-4.71L683.46-4.71Q685.59-3.52 688.52-3.52zM676.84-30.63L693.63-30.63L693.63-30.63Q693.55-32.89 693.40-35.23L693.40-35.23L693.40-35.23Q693.24-37.58 692.91-39.77L692.91-39.77L692.91-39.77Q692.58-41.95 692.01-43.87L692.01-43.87L692.01-43.87Q691.45-45.78 690.55-47.19L690.55-47.19L690.55-47.19Q689.65-48.59 688.36-49.41L688.36-49.41L688.36-49.41Q687.07-50.23 685.31-50.23L685.31-50.23L685.31-50.23Q682.97-50.23 681.43-48.52L681.43-48.52L681.43-48.52Q679.88-46.80 678.93-44.02L678.93-44.02L678.93-44.02Q677.97-41.25 677.50-37.73L677.50-37.73L677.50-37.73Q677.03-34.22 676.84-30.63L676.84-30.63" fill="#28292f" stroke="none" stroke-width="none" transform="translate(-366.89495849609375,20.95813647460937)" style="fill: rgb(40, 41, 47);"></path></g><g class="path" style="transform: scale(0.91); transform-origin: 355.255px -5.87686px; animation: 1s linear 0s infinite normal forwards running breath-f10ed9c8-0795-40d7-8883-fa84fe518f4f;"><path d="M706.60-53.67L718.83-53.67L718.83-53.67Q723.01-53.67 726.48-52.38L726.48-52.38L726.48-52.38Q729.96-51.09 732.44-47.99L732.44-47.99L732.44-47.99Q734.92-44.88 736.31-39.73L736.31-39.73L736.31-39.73Q737.70-34.57 737.70-26.88L737.70-26.88L737.70-26.88Q737.70-19.14 736.31-13.96L736.31-13.96L736.31-13.96Q734.92-8.79 732.42-5.68L732.42-5.68L732.42-5.68Q729.92-2.58 726.45-1.29L726.45-1.29L726.45-1.29Q722.97 0 718.75 0L718.75 0L706.60 0L706.60 0Q706.84-3.32 706.97-6.82L706.97-6.82L706.97-6.82Q707.11-10.31 707.19-13.77L707.19-13.77L707.19-13.77Q707.27-17.23 707.30-20.55L707.30-20.55L707.30-20.55Q707.34-23.87 707.34-26.88L707.34-26.88L707.34-26.88Q707.34-29.88 707.30-33.20L707.30-33.20L707.30-33.20Q707.27-36.52 707.19-39.96L707.19-39.96L707.19-39.96Q707.11-43.40 706.97-46.88L706.97-46.88L706.97-46.88Q706.84-50.35 706.60-53.67L706.60-53.67zM718.91-49.22L713.71-49.22L713.71-49.22Q713.44-43.44 713.34-37.68L713.34-37.68L713.34-37.68Q713.24-31.91 713.24-26.88L713.24-26.88L713.24-26.88Q713.24-21.84 713.32-16.04L713.32-16.04L713.32-16.04Q713.40-10.23 713.67-4.49L713.67-4.49L718.91-4.49L718.91-4.49Q720.59-4.49 722.13-4.86L722.13-4.86L722.13-4.86Q723.67-5.23 724.98-6.17L724.98-6.17L724.98-6.17Q726.29-7.11 727.38-8.73L727.38-8.73L727.38-8.73Q728.48-10.35 729.24-12.83L729.24-12.83L729.24-12.83Q730-15.31 730.41-18.77L730.41-18.77L730.41-18.77Q730.82-22.23 730.82-26.88L730.82-26.88L730.82-26.88Q730.82-31.52 730.41-34.98L730.41-34.98L730.41-34.98Q730-38.44 729.24-40.92L729.24-40.92L729.24-40.92Q728.48-43.40 727.38-45L727.38-45L727.38-45Q726.29-46.60 724.98-47.54L724.98-47.54L724.98-47.54Q723.67-48.48 722.13-48.85L722.13-48.85L722.13-48.85Q720.59-49.22 718.91-49.22L718.91-49.22" fill="#28292f" stroke="none" stroke-width="none" transform="translate(-366.89495849609375,20.95813647460937)" style="fill: rgb(40, 41, 47);"></path></g></g>
</g>
</g>
<style id="breath-f10ed9c8-0795-40d7-8883-fa84fe518f4f" data-anikit="">@keyframes breath-f10ed9c8-0795-40d7-8883-fa84fe518f4f
{
  0% {
    animation-timing-function: cubic-bezier(0.9647,0.2413,-0.0705,0.7911);
    transform: scale(0.9099999999999999);
  }
  51% {
    animation-timing-function: cubic-bezier(0.9226,0.2631,-0.0308,0.7628);
    transform: scale(1.02994);
  }
  100% {
    transform: scale(0.9099999999999999);
  }
}</style></svg>