<svg xmlns="http://www.w3.org/2000/svg" xmlns:xlink="http://www.w3.org/1999/xlink" viewBox="0 0 1059 120" preserveAspectRatio="xMidYMid" style="display: block; shape-rendering: auto; background: transparent;" width="1059" height="120"><style type="text/css">
  .ld-text text {
    text-anchor: middle;
    dominant-baseline: middle;
    font-size: 88px;
    opacity: 0;
    user-select: none;
    pointer-events: none;
  }
</style>
<g style="transform-origin:529.5px 60px;transform:scale(1)" class="ld-text">
<g transform="translate(529.5,60)">
  <g transform="scale(1.1000) translate(0,0)"><g class="path" style="opacity: 1; transform-origin: -438px -0.92px; transform: matrix3d(0.91, 0, 0, 0, 0, 0.91, 0, 0, 0, 0, 0.91, 0, 0, 0, 0, 1); animation: 1s linear -0.627s infinite normal forwards running animate-bgbec8anmz; transform-box: view-box;"><path d="M24.32 54.40L24.32 54.40Q18.24 54.40 12.84 52.16Q7.44 49.92 4.64 46.48L4.64 46.48L5.76 45.44Q8.40 48.56 13.40 50.72Q18.40 52.88 24.24 52.88L24.24 52.88Q30.32 52.88 34.20 51.20Q38.08 49.52 39.96 46.68Q41.84 43.84 41.84 40.40L41.84 40.40Q41.84 36.40 39.92 33.96Q38 31.52 34.80 30.12Q31.60 28.72 27.84 27.80Q24.08 26.88 20.28 25.92Q16.48 24.96 13.28 23.40Q10.08 21.84 8.16 19.12Q6.24 16.40 6.24 12L6.24 12Q6.24 8.32 8.20 5.12Q10.16 1.92 14.28-0.08Q18.40-2.08 24.96-2.08L24.96-2.08Q29.44-2.08 33.80-0.68Q38.16 0.72 41.20 3.04L41.20 3.04L40.32 4.32Q36.96 1.84 32.88 0.64Q28.80-0.56 25.04-0.56L25.04-0.56Q19.20-0.56 15.36 1.16Q11.52 2.88 9.68 5.72Q7.84 8.56 7.84 12.08L7.84 12.08Q7.84 16.16 9.76 18.60Q11.68 21.04 14.88 22.44Q18.08 23.84 21.88 24.76Q25.68 25.68 29.44 26.68Q33.20 27.68 36.40 29.24Q39.60 30.80 41.52 33.44Q43.44 36.08 43.44 40.40L43.44 40.40Q43.44 44.08 41.44 47.28Q39.44 50.48 35.20 52.44Q30.96 54.40 24.32 54.40" style="fill: rgb(175, 150, 111);" transform="translate(-462.040,-27.078)"></path></g><g class="path" style="opacity: 1; transform-origin: -382.2px -0.8px; transform: matrix3d(0.91, 0, 0, 0, 0, 0.91, 0, 0, 0, 0, 0.91, 0, 0, 0, 0, 1); animation: 1s linear -0.594s infinite normal forwards running animate-bgbec8anmz; transform-box: view-box;"><path d="M79.84 54.40L79.84 54.40Q69.84 54.40 64.04 48.48Q58.24 42.56 58.24 30.72L58.24 30.72L58.24-1.84L59.84-1.84L59.84 30.64Q59.84 41.84 65.08 47.36Q70.32 52.88 79.84 52.88L79.84 52.88Q89.36 52.88 94.60 47.36Q99.84 41.84 99.84 30.64L99.84 30.64L99.84-1.84L101.44-1.84L101.44 30.72Q101.44 42.56 95.64 48.48Q89.84 54.40 79.84 54.40" style="fill: rgb(175, 150, 111);" transform="translate(-462.040,-27.078)"></path></g><g class="path" style="opacity: 1; transform-origin: -317.8px -0.92px; transform: matrix3d(0.91, 0, 0, 0, 0, 0.91, 0, 0, 0, 0, 0.91, 0, 0, 0, 0, 1); animation: 1s linear -0.561s infinite normal forwards running animate-bgbec8anmz; transform-box: view-box;"><path d="M146 54.16L122.24 54.16L122.24-1.84L144.40-1.84Q153.04-1.84 158.12 1.72Q163.20 5.28 163.20 12.32L163.20 12.32Q163.20 16.96 160.96 20.04Q158.72 23.12 154.72 24.64Q150.72 26.16 145.52 26.16L145.52 26.16L146.88 25.12Q153.36 25.12 157.64 26.76Q161.92 28.40 164.08 31.60Q166.24 34.80 166.24 39.52L166.24 39.52Q166.24 46.56 161.24 50.36Q156.24 54.16 146 54.16L146 54.16 zM123.84-0.32L123.84 52.64L146.32 52.64Q155.28 52.64 159.96 49.48Q164.64 46.32 164.64 39.52L164.64 39.52Q164.64 32.72 159.96 29.60Q155.28 26.48 146.32 26.48L146.32 26.48L123.44 26.48L123.44 24.96L144.72 24.96Q152.72 24.96 157.16 21.76Q161.60 18.56 161.60 12.32L161.60 12.32Q161.60 6.08 157.16 2.88Q152.72-0.32 144.72-0.32L144.72-0.32L123.84-0.32" style="fill: rgb(175, 150, 111);" transform="translate(-462.040,-27.078)"></path></g><g class="path" style="opacity: 1; transform-origin: -252.36px -0.92px; transform: matrix3d(0.91, 0, 0, 0, 0, 0.91, 0, 0, 0, 0, 0.91, 0, 0, 0, 0, 1); animation: 1s linear -0.528s infinite normal forwards running animate-bgbec8anmz; transform-box: view-box;"><path d="M183.68 54.16L182.08 54.16L182.08-1.84L183.44-1.84L210.08 44.72L209.36 44.72L235.92-1.84L237.28-1.84L237.28 54.16L235.68 54.16L235.68 0.48L236.32 0.48L210.16 46.24L209.20 46.24L182.96 0.48L183.68 0.48L183.68 54.16" style="fill: rgb(175, 150, 111);" transform="translate(-462.040,-27.078)"></path></g><g class="path" style="opacity: 1; transform-origin: -202.68px -0.92px; transform: matrix3d(0.91, 0, 0, 0, 0, 0.91, 0, 0, 0, 0, 0.91, 0, 0, 0, 0, 1); animation: 1s linear -0.495s infinite normal forwards running animate-bgbec8anmz; transform-box: view-box;"><path d="M260.16 54.16L258.56 54.16L258.56-1.84L260.16-1.84L260.16 54.16" style="fill: rgb(175, 150, 111);" transform="translate(-462.040,-27.078)"></path></g><g class="path" style="opacity: 1; transform-origin: -167.2px -0.92px; transform: matrix3d(0.91, 0, 0, 0, 0, 0.91, 0, 0, 0, 0, 0.91, 0, 0, 0, 0, 1); animation: 1s linear -0.462s infinite normal forwards running animate-bgbec8anmz; transform-box: view-box;"><path d="M295.12 54.40L295.12 54.40Q289.04 54.40 283.64 52.16Q278.24 49.92 275.44 46.48L275.44 46.48L276.56 45.44Q279.20 48.56 284.20 50.72Q289.20 52.88 295.04 52.88L295.04 52.88Q301.12 52.88 305 51.20Q308.88 49.52 310.76 46.68Q312.64 43.84 312.64 40.40L312.64 40.40Q312.64 36.40 310.72 33.96Q308.80 31.52 305.60 30.12Q302.40 28.72 298.64 27.80Q294.88 26.88 291.08 25.92Q287.28 24.96 284.08 23.40Q280.88 21.84 278.96 19.12Q277.04 16.40 277.04 12L277.04 12Q277.04 8.32 279 5.12Q280.96 1.92 285.08-0.08Q289.20-2.08 295.76-2.08L295.76-2.08Q300.24-2.08 304.60-0.68Q308.96 0.72 312 3.04L312 3.04L311.12 4.32Q307.76 1.84 303.68 0.64Q299.60-0.56 295.84-0.56L295.84-0.56Q290-0.56 286.16 1.16Q282.32 2.88 280.48 5.72Q278.64 8.56 278.64 12.08L278.64 12.08Q278.64 16.16 280.56 18.60Q282.48 21.04 285.68 22.44Q288.88 23.84 292.68 24.76Q296.48 25.68 300.24 26.68Q304 27.68 307.20 29.24Q310.40 30.80 312.32 33.44Q314.24 36.08 314.24 40.40L314.24 40.40Q314.24 44.08 312.24 47.28Q310.24 50.48 306 52.44Q301.76 54.40 295.12 54.40" style="fill: rgb(175, 150, 111);" transform="translate(-462.040,-27.078)"></path></g><g class="path" style="opacity: 1; transform-origin: -119.12px -0.92px; transform: matrix3d(0.91, 0, 0, 0, 0, 0.91, 0, 0, 0, 0, 0.91, 0, 0, 0, 0, 1); animation: 1s linear -0.429s infinite normal forwards running animate-bgbec8anmz; transform-box: view-box;"><path d="M343.20 54.40L343.20 54.40Q337.12 54.40 331.72 52.16Q326.32 49.92 323.52 46.48L323.52 46.48L324.64 45.44Q327.28 48.56 332.28 50.72Q337.28 52.88 343.12 52.88L343.12 52.88Q349.20 52.88 353.08 51.20Q356.96 49.52 358.84 46.68Q360.72 43.84 360.72 40.40L360.72 40.40Q360.72 36.40 358.80 33.96Q356.88 31.52 353.68 30.12Q350.48 28.72 346.72 27.80Q342.96 26.88 339.16 25.92Q335.36 24.96 332.16 23.40Q328.96 21.84 327.04 19.12Q325.12 16.40 325.12 12L325.12 12Q325.12 8.32 327.08 5.12Q329.04 1.92 333.16-0.08Q337.28-2.08 343.84-2.08L343.84-2.08Q348.32-2.08 352.68-0.68Q357.04 0.72 360.08 3.04L360.08 3.04L359.20 4.32Q355.84 1.84 351.76 0.64Q347.68-0.56 343.92-0.56L343.92-0.56Q338.08-0.56 334.24 1.16Q330.40 2.88 328.56 5.72Q326.72 8.56 326.72 12.08L326.72 12.08Q326.72 16.16 328.64 18.60Q330.56 21.04 333.76 22.44Q336.96 23.84 340.76 24.76Q344.56 25.68 348.32 26.68Q352.08 27.68 355.28 29.24Q358.48 30.80 360.40 33.44Q362.32 36.08 362.32 40.40L362.32 40.40Q362.32 44.08 360.32 47.28Q358.32 50.48 354.08 52.44Q349.84 54.40 343.20 54.40" style="fill: rgb(175, 150, 111);" transform="translate(-462.040,-27.078)"></path></g><g class="path" style="opacity: 1; transform-origin: -83.64px -0.92px; transform: matrix3d(0.91, 0, 0, 0, 0, 0.91, 0, 0, 0, 0, 0.91, 0, 0, 0, 0, 1); animation: 1s linear -0.396s infinite normal forwards running animate-bgbec8anmz; transform-box: view-box;"><path d="M379.20 54.16L377.60 54.16L377.60-1.84L379.20-1.84L379.20 54.16" style="fill: rgb(175, 150, 111);" transform="translate(-462.040,-27.078)"></path></g><g class="path" style="opacity: 1; transform-origin: -38.76px -0.92px; transform: matrix3d(0.91, 0, 0, 0, 0, 0.91, 0, 0, 0, 0, 0.91, 0, 0, 0, 0, 1); animation: 1s linear -0.363s infinite normal forwards running animate-bgbec8anmz; transform-box: view-box;"><path d="M423.28 54.40L423.28 54.40Q417.12 54.40 411.88 52.28Q406.64 50.16 402.76 46.32Q398.88 42.48 396.72 37.36Q394.56 32.24 394.56 26.16L394.56 26.16Q394.56 20.08 396.72 14.96Q398.88 9.84 402.76 6Q406.64 2.16 411.88 0.04Q417.12-2.08 423.28-2.08L423.28-2.08Q429.44-2.08 434.68 0.04Q439.92 2.16 443.80 6Q447.68 9.84 449.84 14.96Q452 20.08 452 26.16L452 26.16Q452 32.24 449.84 37.36Q447.68 42.48 443.80 46.32Q439.92 50.16 434.68 52.28Q429.44 54.40 423.28 54.40 zM423.28 52.88L423.28 52.88Q429.04 52.88 434 50.88Q438.96 48.88 442.64 45.24Q446.32 41.60 448.36 36.76Q450.40 31.92 450.40 26.16L450.40 26.16Q450.40 20.40 448.36 15.56Q446.32 10.72 442.64 7.08Q438.96 3.44 434 1.44Q429.04-0.56 423.28-0.56L423.28-0.56Q417.52-0.56 412.56 1.44Q407.60 3.44 403.92 7.08Q400.24 10.72 398.20 15.56Q396.16 20.40 396.16 26.16L396.16 26.16Q396.16 31.92 398.20 36.76Q400.24 41.60 403.92 45.24Q407.60 48.88 412.56 50.88Q417.52 52.88 423.28 52.88" style="fill: rgb(175, 150, 111);" transform="translate(-462.040,-27.078)"></path></g><g class="path" style="opacity: 1; transform-origin: 27.32px -0.92px; transform: matrix3d(0.91, 0, 0, 0, 0, 0.91, 0, 0, 0, 0, 0.91, 0, 0, 0, 0, 1); animation: 1s linear -0.33s infinite normal forwards running animate-bgbec8anmz; transform-box: view-box;"><path d="M468.96 54.16L467.36 54.16L467.36-1.84L468.72-1.84L510.64 52.32L509.76 52.32L509.76-1.84L511.36-1.84L511.36 54.16L510 54.16L468.08-0L468.96-0L468.96 54.16" style="fill: rgb(175, 150, 111);" transform="translate(-462.040,-27.078)"></path></g><g class="path" style="opacity: 1; transform-origin: 104px -0.92px; transform: matrix3d(0.91, 0, 0, 0, 0, 0.91, 0, 0, 0, 0, 0.91, 0, 0, 0, 0, 1); animation: 1s linear -0.297s infinite normal forwards running animate-bgbec8anmz; transform-box: view-box;"><path d="M566.32 54.40L566.32 54.40Q560.24 54.40 554.84 52.16Q549.44 49.92 546.64 46.48L546.64 46.48L547.76 45.44Q550.40 48.56 555.40 50.72Q560.40 52.88 566.24 52.88L566.24 52.88Q572.32 52.88 576.20 51.20Q580.08 49.52 581.96 46.68Q583.84 43.84 583.84 40.40L583.84 40.40Q583.84 36.40 581.92 33.96Q580 31.52 576.80 30.12Q573.60 28.72 569.84 27.80Q566.08 26.88 562.28 25.92Q558.48 24.96 555.28 23.40Q552.08 21.84 550.16 19.12Q548.24 16.40 548.24 12L548.24 12Q548.24 8.32 550.20 5.12Q552.16 1.92 556.28-0.08Q560.40-2.08 566.96-2.08L566.96-2.08Q571.44-2.08 575.80-0.68Q580.16 0.72 583.20 3.04L583.20 3.04L582.32 4.32Q578.96 1.84 574.88 0.64Q570.80-0.56 567.04-0.56L567.04-0.56Q561.20-0.56 557.36 1.16Q553.52 2.88 551.68 5.72Q549.84 8.56 549.84 12.08L549.84 12.08Q549.84 16.16 551.76 18.60Q553.68 21.04 556.88 22.44Q560.08 23.84 563.88 24.76Q567.68 25.68 571.44 26.68Q575.20 27.68 578.40 29.24Q581.60 30.80 583.52 33.44Q585.44 36.08 585.44 40.40L585.44 40.40Q585.44 44.08 583.44 47.28Q581.44 50.48 577.20 52.44Q572.96 54.40 566.32 54.40" style="fill: rgb(175, 150, 111);" transform="translate(-462.040,-27.078)"></path></g><g class="path" style="opacity: 1; transform-origin: 159.8px -0.8px; transform: matrix3d(0.91, 0, 0, 0, 0, 0.91, 0, 0, 0, 0, 0.91, 0, 0, 0, 0, 1); animation: 1s linear -0.264s infinite normal forwards running animate-bgbec8anmz; transform-box: view-box;"><path d="M621.84 54.40L621.84 54.40Q611.84 54.40 606.04 48.48Q600.24 42.56 600.24 30.72L600.24 30.72L600.24-1.84L601.84-1.84L601.84 30.64Q601.84 41.84 607.08 47.36Q612.32 52.88 621.84 52.88L621.84 52.88Q631.36 52.88 636.60 47.36Q641.84 41.84 641.84 30.64L641.84 30.64L641.84-1.84L643.44-1.84L643.44 30.72Q643.44 42.56 637.64 48.48Q631.84 54.40 621.84 54.40" style="fill: rgb(175, 150, 111);" transform="translate(-462.040,-27.078)"></path></g><g class="path" style="opacity: 1; transform-origin: 220.16px -0.92px; transform: matrix3d(0.91, 0, 0, 0, 0, 0.91, 0, 0, 0, 0, 0.91, 0, 0, 0, 0, 1); animation: 1s linear -0.231s infinite normal forwards running animate-bgbec8anmz; transform-box: view-box;"><path d="M687.04 54.40L687.04 54.40Q680.88 54.40 675.64 52.28Q670.40 50.16 666.52 46.32Q662.64 42.48 660.48 37.36Q658.32 32.24 658.32 26.16L658.32 26.16Q658.32 20.08 660.48 14.96Q662.64 9.84 666.52 6Q670.40 2.16 675.64 0.04Q680.88-2.08 687.04-2.08L687.04-2.08Q692.56-2.08 697.52-0.32Q702.48 1.44 706.08 5.04L706.08 5.04L705.12 6.16Q701.28 2.48 696.72 0.96Q692.16-0.56 687.04-0.56L687.04-0.56Q681.28-0.56 676.32 1.48Q671.36 3.52 667.68 7.16Q664 10.80 661.96 15.64Q659.92 20.48 659.92 26.16L659.92 26.16Q659.92 31.84 661.96 36.68Q664 41.52 667.68 45.16Q671.36 48.80 676.32 50.84Q681.28 52.88 687.04 52.88L687.04 52.88Q692.16 52.88 696.72 51.32Q701.28 49.76 705.12 46.08L705.12 46.08L706.08 47.20Q702.48 50.80 697.52 52.60Q692.56 54.40 687.04 54.40" style="fill: rgb(175, 150, 111);" transform="translate(-462.040,-27.078)"></path></g><g class="path" style="opacity: 1; transform-origin: 277.04px -0.92px; transform: matrix3d(0.91, 0, 0, 0, 0, 0.91, 0, 0, 0, 0, 0.91, 0, 0, 0, 0, 1); animation: 1s linear -0.198s infinite normal forwards running animate-bgbec8anmz; transform-box: view-box;"><path d="M743.92 54.40L743.92 54.40Q737.76 54.40 732.52 52.28Q727.28 50.16 723.40 46.32Q719.52 42.48 717.36 37.36Q715.20 32.24 715.20 26.16L715.20 26.16Q715.20 20.08 717.36 14.96Q719.52 9.84 723.40 6Q727.28 2.16 732.52 0.04Q737.76-2.08 743.92-2.08L743.92-2.08Q749.44-2.08 754.40-0.32Q759.36 1.44 762.96 5.04L762.96 5.04L762 6.16Q758.16 2.48 753.60 0.96Q749.04-0.56 743.92-0.56L743.92-0.56Q738.16-0.56 733.20 1.48Q728.24 3.52 724.56 7.16Q720.88 10.80 718.84 15.64Q716.80 20.48 716.80 26.16L716.80 26.16Q716.80 31.84 718.84 36.68Q720.88 41.52 724.56 45.16Q728.24 48.80 733.20 50.84Q738.16 52.88 743.92 52.88L743.92 52.88Q749.04 52.88 753.60 51.32Q758.16 49.76 762 46.08L762 46.08L762.96 47.20Q759.36 50.80 754.40 52.60Q749.44 54.40 743.92 54.40" style="fill: rgb(175, 150, 111);" transform="translate(-462.040,-27.078)"></path></g><g class="path" style="opacity: 1; transform-origin: 332.8px -1.36px; transform: matrix3d(0.91, 0, 0, 0, 0, 0.91, 0, 0, 0, 0, 0.91, 0, 0, 0, 0, 1); animation: 1s linear -0.165s infinite normal forwards running animate-bgbec8anmz; transform-box: view-box;"><path d="M779.20 26.48L779.20 24.96L810.48 24.96L810.48 26.48L779.20 26.48" style="fill: rgb(175, 150, 111);" transform="translate(-462.040,-27.078)"></path></g><g class="path" style="opacity: 1; transform-origin: 334.6px -0.92px; transform: matrix3d(0.91, 0, 0, 0, 0, 0.91, 0, 0, 0, 0, 0.91, 0, 0, 0, 0, 1); animation: 1s linear -0.132s infinite normal forwards running animate-bgbec8anmz; transform-box: view-box;"><path d="M779.60-0.32L779.60 52.64L815.28 52.64L815.28 54.16L778 54.16L778-1.84L814.08-1.84L814.08-0.32L779.60-0.32" style="fill: rgb(175, 150, 111);" transform="translate(-462.040,-27.078)"></path></g><g class="path" style="opacity: 1; transform-origin: 382.8px -0.92px; transform: matrix3d(0.91, 0, 0, 0, 0, 0.91, 0, 0, 0, 0, 0.91, 0, 0, 0, 0, 1); animation: 1s linear -0.099s infinite normal forwards running animate-bgbec8anmz; transform-box: view-box;"><path d="M845.12 54.40L845.12 54.40Q839.04 54.40 833.64 52.16Q828.24 49.92 825.44 46.48L825.44 46.48L826.56 45.44Q829.20 48.56 834.20 50.72Q839.20 52.88 845.04 52.88L845.04 52.88Q851.12 52.88 855 51.20Q858.88 49.52 860.76 46.68Q862.64 43.84 862.64 40.40L862.64 40.40Q862.64 36.40 860.72 33.96Q858.80 31.52 855.60 30.12Q852.40 28.72 848.64 27.80Q844.88 26.88 841.08 25.92Q837.28 24.96 834.08 23.40Q830.88 21.84 828.96 19.12Q827.04 16.40 827.04 12L827.04 12Q827.04 8.32 829 5.12Q830.96 1.92 835.08-0.08Q839.20-2.08 845.76-2.08L845.76-2.08Q850.24-2.08 854.60-0.68Q858.96 0.72 862 3.04L862 3.04L861.12 4.32Q857.76 1.84 853.68 0.64Q849.60-0.56 845.84-0.56L845.84-0.56Q840-0.56 836.16 1.16Q832.32 2.88 830.48 5.72Q828.64 8.56 828.64 12.08L828.64 12.08Q828.64 16.16 830.56 18.60Q832.48 21.04 835.68 22.44Q838.88 23.84 842.68 24.76Q846.48 25.68 850.24 26.68Q854 27.68 857.20 29.24Q860.40 30.80 862.32 33.44Q864.24 36.08 864.24 40.40L864.24 40.40Q864.24 44.08 862.24 47.28Q860.24 50.48 856 52.44Q851.76 54.40 845.12 54.40" style="fill: rgb(175, 150, 111);" transform="translate(-462.040,-27.078)"></path></g><g class="path" style="opacity: 1; transform-origin: 430.88px -0.92px; transform: matrix3d(0.91, 0, 0, 0, 0, 0.91, 0, 0, 0, 0, 0.91, 0, 0, 0, 0, 1); animation: 1s linear -0.066s infinite normal forwards running animate-bgbec8anmz; transform-box: view-box;"><path d="M893.20 54.40L893.20 54.40Q887.12 54.40 881.72 52.16Q876.32 49.92 873.52 46.48L873.52 46.48L874.64 45.44Q877.28 48.56 882.28 50.72Q887.28 52.88 893.12 52.88L893.12 52.88Q899.20 52.88 903.08 51.20Q906.96 49.52 908.84 46.68Q910.72 43.84 910.72 40.40L910.72 40.40Q910.72 36.40 908.80 33.96Q906.88 31.52 903.68 30.12Q900.48 28.72 896.72 27.80Q892.96 26.88 889.16 25.92Q885.36 24.96 882.16 23.40Q878.96 21.84 877.04 19.12Q875.12 16.40 875.12 12L875.12 12Q875.12 8.32 877.08 5.12Q879.04 1.92 883.16-0.08Q887.28-2.08 893.84-2.08L893.84-2.08Q898.32-2.08 902.68-0.68Q907.04 0.72 910.08 3.04L910.08 3.04L909.20 4.32Q905.84 1.84 901.76 0.64Q897.68-0.56 893.92-0.56L893.92-0.56Q888.08-0.56 884.24 1.16Q880.40 2.88 878.56 5.72Q876.72 8.56 876.72 12.08L876.72 12.08Q876.72 16.16 878.64 18.60Q880.56 21.04 883.76 22.44Q886.96 23.84 890.76 24.76Q894.56 25.68 898.32 26.68Q902.08 27.68 905.28 29.24Q908.48 30.80 910.40 33.44Q912.32 36.08 912.32 40.40L912.32 40.40Q912.32 44.08 910.32 47.28Q908.32 50.48 904.08 52.44Q899.84 54.40 893.20 54.40" style="fill: rgb(175, 150, 111);" transform="translate(-462.040,-27.078)"></path></g><g class="path" style="opacity: 1; transform-origin: 464.6px -8.44px; transform: matrix3d(0.91, 0, 0, 0, 0, 0.91, 0, 0, 0, 0, 0.91, 0, 0, 0, 0, 1); animation: 1s linear -0.033s infinite normal forwards running animate-bgbec8anmz; transform-box: view-box;"><path d="M927.20 39.12L926.08 39.12L925.76-1.84L927.52-1.84L927.20 39.12" style="fill: rgb(175, 150, 111);" transform="translate(-462.040,-27.078)"></path></g><g class="path" style="opacity: 1; transform-origin: 464.6px 25.24px; transform: matrix3d(0.91, 0, 0, 0, 0, 0.91, 0, 0, 0, 0, 0.91, 0, 0, 0, 0, 1); animation: 1s linear 0s infinite normal forwards running animate-bgbec8anmz; transform-box: view-box;"><path d="M926.64 54.40L926.64 54.40Q925.84 54.40 925.20 53.76Q924.56 53.12 924.56 52.32L924.56 52.32Q924.56 51.44 925.20 50.84Q925.84 50.24 926.64 50.24L926.64 50.24Q927.52 50.24 928.12 50.84Q928.72 51.44 928.72 52.32L928.72 52.32Q928.72 53.12 928.12 53.76Q927.52 54.40 926.64 54.40" style="fill: rgb(175, 150, 111);" transform="translate(-462.040,-27.078)"></path></g></g><text dy="0.35em" fill="#af966f" font-family="Montserrat.ttf from Upload" font-size="88">SUBMISSION SUCCESS!</text>
</g>
</g><style type="text/css">@keyframes animate-bgbec8anmz { 0.00% {transform: translate(0.00px,0.00px) rotate(0.00deg) scale(0.91, 0.91) skew(0deg, 0.00deg) ;opacity: 1.00;}4.00% {transform: translate(0.00px,0.00px) rotate(0.00deg) scale(0.91, 0.91) ;}8.00% {animation-timing-function: cubic-bezier(0.69,0.60,0.35,0.27);transform: translate(0.00px,0.00px) rotate(0.00deg) scale(0.91, 0.91) ;}14.00% {transform: translate(0.00px,0.00px) rotate(0.00deg) scale(0.93, 0.93) ;}18.00% {transform: translate(0.00px,0.00px) rotate(0.00deg) scale(0.94, 0.94) ;}22.00% {animation-timing-function: cubic-bezier(0.67,0.66,0.34,0.33);transform: translate(0.00px,0.00px) rotate(0.00deg) scale(0.96, 0.96) ;}26.00% {transform: translate(0.00px,0.00px) rotate(0.00deg) scale(0.97, 0.97) ;}30.00% {transform: translate(0.00px,0.00px) rotate(0.00deg) scale(0.99, 0.99) ;}34.00% {animation-timing-function: cubic-bezier(0.65,0.71,0.32,0.38);transform: translate(0.00px,0.00px) rotate(0.00deg) scale(1.01, 1.01) ;}40.00% {animation-timing-function: cubic-bezier(0.64,0.74,0.31,0.41);transform: translate(0.00px,0.00px) rotate(0.00deg) scale(1.02, 1.02) ;}46.00% {animation-timing-function: cubic-bezier(0.60,0.91,0.23,0.63);transform: translate(0.00px,0.00px) rotate(0.00deg) scale(1.03, 1.03) ;}50.00% {transform: translate(0.00px,0.00px) rotate(0.00deg) scale(1.03, 1.03) ;}54.00% {transform: translate(0.00px,0.00px) rotate(0.00deg) scale(1.03, 1.03) ;}58.00% {animation-timing-function: cubic-bezier(0.69,0.60,0.35,0.27);transform: translate(0.00px,0.00px) rotate(0.00deg) scale(1.03, 1.03) ;}64.00% {transform: translate(0.00px,0.00px) rotate(0.00deg) scale(1.01, 1.01) ;}68.00% {transform: translate(0.00px,0.00px) rotate(0.00deg) scale(1.00, 1.00) ;}72.00% {animation-timing-function: cubic-bezier(0.67,0.66,0.34,0.33);transform: translate(0.00px,0.00px) rotate(0.00deg) scale(0.98, 0.98) ;}76.00% {animation-timing-function: cubic-bezier(0.66,0.68,0.33,0.35);transform: translate(0.00px,0.00px) rotate(0.00deg) scale(0.97, 0.97) ;}82.00% {animation-timing-function: cubic-bezier(0.65,0.71,0.32,0.38);transform: translate(0.00px,0.00px) rotate(0.00deg) scale(0.94, 0.94) ;}88.00% {animation-timing-function: cubic-bezier(0.65,0.73,0.31,0.40);transform: translate(0.00px,0.00px) rotate(0.00deg) scale(0.92, 0.92) ;}94.00% {animation-timing-function: cubic-bezier(0.63,0.80,0.28,0.48);transform: translate(0.00px,0.00px) rotate(0.00deg) scale(0.91, 0.91) ;}100.00% {animation-timing-function: cubic-bezier(0.63,0.80,0.28,0.48);transform: translate(0.00px,0.00px) rotate(0.00deg) scale(0.91, 0.91) ;} }</style><!-- [ldio] generated by https://loading.io --></svg>