<svg xmlns="http://www.w3.org/2000/svg" xmlns:xlink="http://www.w3.org/1999/xlink" viewBox="0 0 1059 120" preserveAspectRatio="xMidYMid" style="display: block; shape-rendering: auto; background: transparent;" width="1059" height="120"><style type="text/css">
  .ld-text text {
    text-anchor: middle;
    dominant-baseline: middle;
    font-size: 101px;
    opacity: 0;
    user-select: none;
    pointer-events: none;
  }
</style>
<g style="transform-origin:529.5px 60px;transform:scale(1)" class="ld-text">
<g transform="translate(529.5,60)">
  <g transform="scale(1.2625) translate(0,0)"><g class="path" style="opacity: 1; transform-origin: -372.56px -3.32px; transform: matrix3d(0.91, 0, 0, 0, 0, 0.91, 0, 0, 0, 0, 0.91, 0, 0, 0, 0, 1); animation: 1s linear -0.63s infinite normal forwards running animate-bgbec8anmz; transform-box: view-box;"><path d="M24.32 49.60L24.32 49.60Q18.24 49.60 12.84 47.36Q7.44 45.12 4.64 41.68L4.64 41.68L5.76 40.64Q8.40 43.76 13.40 45.92Q18.40 48.08 24.24 48.08L24.24 48.08Q30.32 48.08 34.20 46.40Q38.08 44.72 39.96 41.88Q41.84 39.04 41.84 35.60L41.84 35.60Q41.84 31.60 39.92 29.16Q38 26.72 34.80 25.32Q31.60 23.92 27.84 23Q24.08 22.08 20.28 21.12Q16.48 20.16 13.28 18.60Q10.08 17.04 8.16 14.32Q6.24 11.60 6.24 7.20L6.24 7.20Q6.24 3.52 8.20 0.32Q10.16-2.88 14.28-4.88Q18.40-6.88 24.96-6.88L24.96-6.88Q29.44-6.88 33.80-5.48Q38.16-4.08 41.20-1.76L41.20-1.76L40.32-0.48Q36.96-2.96 32.88-4.16Q28.80-5.36 25.04-5.36L25.04-5.36Q19.20-5.36 15.36-3.64Q11.52-1.92 9.68 0.92Q7.84 3.76 7.84 7.28L7.84 7.28Q7.84 11.36 9.76 13.80Q11.68 16.24 14.88 17.64Q18.08 19.04 21.88 19.96Q25.68 20.88 29.44 21.88Q33.20 22.88 36.40 24.44Q39.60 26 41.52 28.64Q43.44 31.28 43.44 35.60L43.44 35.60Q43.44 39.28 41.44 42.48Q39.44 45.68 35.20 47.64Q30.96 49.60 24.32 49.60" style="fill: rgb(175, 150, 111);" transform="translate(-396.600,-24.682)"></path></g><g class="path" style="opacity: 1; transform-origin: -322.2px 4.12px; transform: matrix3d(0.91, 0, 0, 0, 0, 0.91, 0, 0, 0, 0, 0.91, 0, 0, 0, 0, 1); animation: 1s linear -0.6s infinite normal forwards running animate-bgbec8anmz; transform-box: view-box;"><path d="M73.76 49.60L73.76 49.60Q68.48 49.60 64.68 47.64Q60.88 45.68 58.84 41.84Q56.80 38 56.80 32.40L56.80 32.40L56.80 8L58.40 8L58.40 32.40Q58.40 40.08 62.40 44.08Q66.40 48.08 73.68 48.08L73.68 48.08Q78.88 48.08 82.64 45.88Q86.40 43.68 88.40 39.68Q90.40 35.68 90.40 30.48L90.40 30.48L90.40 8L92 8L92 49.36L90.40 49.36L90.40 37.68L90.56 37.92Q88.80 43.28 84.48 46.44Q80.16 49.60 73.76 49.60" style="fill: rgb(175, 150, 111);" transform="translate(-396.600,-24.682)"></path></g><g class="path" style="opacity: 1; transform-origin: -266px 4px; transform: matrix3d(0.91, 0, 0, 0, 0, 0.91, 0, 0, 0, 0, 0.91, 0, 0, 0, 0, 1); animation: 1s linear -0.57s infinite normal forwards running animate-bgbec8anmz; transform-box: view-box;"><path d="M130.48 49.60L130.48 49.60Q124.80 49.60 120.32 46.92Q115.84 44.24 113.24 39.48Q110.64 34.72 110.64 28.64L110.64 28.64Q110.64 22.48 113.24 17.80Q115.84 13.12 120.32 10.44Q124.80 7.76 130.48 7.76L130.48 7.76Q136.16 7.76 140.72 10.44Q145.28 13.12 147.92 17.80Q150.56 22.48 150.56 28.64L150.56 28.64Q150.56 34.72 147.92 39.48Q145.28 44.24 140.72 46.92Q136.16 49.60 130.48 49.60 zM130.48 48.08L130.48 48.08Q135.76 48.08 139.96 45.60Q144.16 43.12 146.56 38.72Q148.96 34.32 148.96 28.64L148.96 28.64Q148.96 22.88 146.56 18.52Q144.16 14.16 139.96 11.72Q135.76 9.28 130.48 9.28L130.48 9.28Q125.20 9.28 121 11.72Q116.80 14.16 114.40 18.52Q112 22.88 112 28.64L112 28.64Q112 34.32 114.40 38.72Q116.80 43.12 121 45.60Q125.20 48.08 130.48 48.08" style="fill: rgb(175, 150, 111);" transform="translate(-396.600,-24.682)"></path></g><g class="path" style="opacity: 1; transform-origin: -285.4px -5px; transform: matrix3d(0.91, 0, 0, 0, 0, 0.91, 0, 0, 0, 0, 0.91, 0, 0, 0, 0, 1); animation: 1s linear -0.54s infinite normal forwards running animate-bgbec8anmz; transform-box: view-box;"><path d="M112 49.36L110.40 49.36L110.40-10L112-10L112 22.96L111.20 28.56L112 34.16L112 49.36" style="fill: rgb(175, 150, 111);" transform="translate(-396.600,-24.682)"></path></g><g class="path" style="opacity: 1; transform-origin: -198.76px 3.88px; transform: matrix3d(0.91, 0, 0, 0, 0, 0.91, 0, 0, 0, 0, 0.91, 0, 0, 0, 0, 1); animation: 1s linear -0.51s infinite normal forwards running animate-bgbec8anmz; transform-box: view-box;"><path d="M215.52 7.76L215.52 7.76Q220.48 7.76 224.08 9.72Q227.68 11.68 229.64 15.52Q231.60 19.36 231.60 24.96L231.60 24.96L231.60 49.36L230 49.36L230 24.96Q230 17.28 226.20 13.28Q222.40 9.28 215.60 9.28L215.60 9.28Q210.32 9.28 206.52 11.48Q202.72 13.68 200.68 17.64Q198.64 21.60 198.64 26.88L198.64 26.88L198.64 49.36L197.04 49.36L197.04 24.96Q197.04 17.28 193.24 13.28Q189.44 9.28 182.64 9.28L182.64 9.28Q177.36 9.28 173.56 11.48Q169.76 13.68 167.72 17.64Q165.68 21.60 165.68 26.88L165.68 26.88L165.68 49.36L164.08 49.36L164.08 8L165.68 8L165.68 19.68L165.52 19.44Q167.28 14.08 171.68 10.92Q176.08 7.76 182.56 7.76L182.56 7.76Q188.96 7.76 193.12 11Q197.28 14.24 198.32 20.64L198.32 20.64L198.08 20.56Q199.60 14.88 204.12 11.32Q208.64 7.76 215.52 7.76" style="fill: rgb(175, 150, 111);" transform="translate(-396.600,-24.682)"></path></g><g class="path" style="opacity: 1; transform-origin: -146.28px 4px; transform: matrix3d(0.91, 0, 0, 0, 0, 0.91, 0, 0, 0, 0, 0.91, 0, 0, 0, 0, 1); animation: 1s linear -0.48s infinite normal forwards running animate-bgbec8anmz; transform-box: view-box;"><path d="M251.12 49.36L249.52 49.36L249.52 8L251.12 8L251.12 49.36" style="fill: rgb(175, 150, 111);" transform="translate(-396.600,-24.682)"></path></g><g class="path" style="opacity: 1; transform-origin: -146.28px -30.2px; transform: matrix3d(0.91, 0, 0, 0, 0, 0.91, 0, 0, 0, 0, 0.91, 0, 0, 0, 0, 1); animation: 1s linear -0.45s infinite normal forwards running animate-bgbec8anmz; transform-box: view-box;"><path d="M250.32-3.44L250.32-3.44Q249.52-3.44 248.88-4.08Q248.24-4.72 248.24-5.52L248.24-5.52Q248.24-6.40 248.88-7Q249.52-7.60 250.32-7.60L250.32-7.60Q251.20-7.60 251.80-7Q252.40-6.40 252.40-5.52L252.40-5.52Q252.40-4.72 251.80-4.08Q251.20-3.44 250.32-3.44" style="fill: rgb(175, 150, 111);" transform="translate(-396.600,-24.682)"></path></g><g class="path" style="opacity: 1; transform-origin: -117.96px 4px; transform: matrix3d(0.91, 0, 0, 0, 0, 0.91, 0, 0, 0, 0, 0.91, 0, 0, 0, 0, 1); animation: 1s linear -0.42s infinite normal forwards running animate-bgbec8anmz; transform-box: view-box;"><path d="M279.04 49.60L279.04 49.60Q274 49.60 269.60 48Q265.20 46.40 262.88 43.92L262.88 43.92L263.84 42.64Q266.08 44.80 270.08 46.44Q274.08 48.08 279.04 48.08L279.04 48.08Q286.40 48.08 289.60 45.52Q292.80 42.96 292.80 38.88L292.80 38.88Q292.80 35.92 291.28 34.20Q289.76 32.48 287.24 31.56Q284.72 30.64 281.68 30.08Q278.64 29.52 275.60 28.88Q272.56 28.24 270.04 27.08Q267.52 25.92 266 23.88Q264.48 21.84 264.48 18.40L264.48 18.40Q264.48 15.60 266 13.20Q267.52 10.80 270.76 9.28Q274 7.76 279.12 7.76L279.12 7.76Q282.96 7.76 286.72 8.92Q290.48 10.08 292.80 12L292.80 12L291.84 13.28Q289.36 11.28 286 10.28Q282.64 9.28 279.12 9.28L279.12 9.28Q272.32 9.28 269.24 11.92Q266.16 14.56 266.16 18.40L266.16 18.40Q266.16 21.44 267.68 23.24Q269.20 25.04 271.72 26Q274.24 26.96 277.28 27.52Q280.32 28.08 283.32 28.72Q286.32 29.36 288.84 30.48Q291.36 31.60 292.88 33.56Q294.40 35.52 294.40 38.88L294.40 38.88Q294.40 42 292.72 44.44Q291.04 46.88 287.64 48.24Q284.24 49.60 279.04 49.60" style="fill: rgb(175, 150, 111);" transform="translate(-396.600,-24.682)"></path></g><g class="path" style="opacity: 1; transform-origin: -80.92px 4px; transform: matrix3d(0.91, 0, 0, 0, 0, 0.91, 0, 0, 0, 0, 0.91, 0, 0, 0, 0, 1); animation: 1s linear -0.39s infinite normal forwards running animate-bgbec8anmz; transform-box: view-box;"><path d="M316.08 49.60L316.08 49.60Q311.04 49.60 306.64 48Q302.24 46.40 299.92 43.92L299.92 43.92L300.88 42.64Q303.12 44.80 307.12 46.44Q311.12 48.08 316.08 48.08L316.08 48.08Q323.44 48.08 326.64 45.52Q329.84 42.96 329.84 38.88L329.84 38.88Q329.84 35.92 328.32 34.20Q326.80 32.48 324.28 31.56Q321.76 30.64 318.72 30.08Q315.68 29.52 312.64 28.88Q309.60 28.24 307.08 27.08Q304.56 25.92 303.04 23.88Q301.52 21.84 301.52 18.40L301.52 18.40Q301.52 15.60 303.04 13.20Q304.56 10.80 307.80 9.28Q311.04 7.76 316.16 7.76L316.16 7.76Q320 7.76 323.76 8.92Q327.52 10.08 329.84 12L329.84 12L328.88 13.28Q326.40 11.28 323.04 10.28Q319.68 9.28 316.16 9.28L316.16 9.28Q309.36 9.28 306.28 11.92Q303.20 14.56 303.20 18.40L303.20 18.40Q303.20 21.44 304.72 23.24Q306.24 25.04 308.76 26Q311.28 26.96 314.32 27.52Q317.36 28.08 320.36 28.72Q323.36 29.36 325.88 30.48Q328.40 31.60 329.92 33.56Q331.44 35.52 331.44 38.88L331.44 38.88Q331.44 42 329.76 44.44Q328.08 46.88 324.68 48.24Q321.28 49.60 316.08 49.60" style="fill: rgb(175, 150, 111);" transform="translate(-396.600,-24.682)"></path></g><g class="path" style="opacity: 1; transform-origin: -52.2px 4px; transform: matrix3d(0.91, 0, 0, 0, 0, 0.91, 0, 0, 0, 0, 0.91, 0, 0, 0, 0, 1); animation: 1s linear -0.36s infinite normal forwards running animate-bgbec8anmz; transform-box: view-box;"><path d="M345.20 49.36L343.60 49.36L343.60 8L345.20 8L345.20 49.36" style="fill: rgb(175, 150, 111);" transform="translate(-396.600,-24.682)"></path></g><g class="path" style="opacity: 1; transform-origin: -52.2px -30.2px; transform: matrix3d(0.91, 0, 0, 0, 0, 0.91, 0, 0, 0, 0, 0.91, 0, 0, 0, 0, 1); animation: 1s linear -0.33s infinite normal forwards running animate-bgbec8anmz; transform-box: view-box;"><path d="M344.40-3.44L344.40-3.44Q343.60-3.44 342.96-4.08Q342.32-4.72 342.32-5.52L342.32-5.52Q342.32-6.40 342.96-7Q343.60-7.60 344.40-7.60L344.40-7.60Q345.28-7.60 345.88-7Q346.48-6.40 346.48-5.52L346.48-5.52Q346.48-4.72 345.88-4.08Q345.28-3.44 344.40-3.44" style="fill: rgb(175, 150, 111);" transform="translate(-396.600,-24.682)"></path></g><g class="path" style="opacity: 1; transform-origin: -17.8px 4px; transform: matrix3d(0.91, 0, 0, 0, 0, 0.91, 0, 0, 0, 0, 0.91, 0, 0, 0, 0, 1); animation: 1s linear -0.3s infinite normal forwards running animate-bgbec8anmz; transform-box: view-box;"><path d="M378.80 49.60L378.80 49.60Q373.04 49.60 368.52 46.92Q364 44.24 361.36 39.48Q358.72 34.72 358.72 28.64L358.72 28.64Q358.72 22.48 361.36 17.80Q364 13.12 368.52 10.44Q373.04 7.76 378.80 7.76L378.80 7.76Q384.56 7.76 389.12 10.44Q393.68 13.12 396.28 17.80Q398.88 22.48 398.88 28.64L398.88 28.64Q398.88 34.72 396.28 39.48Q393.68 44.24 389.12 46.92Q384.56 49.60 378.80 49.60 zM378.80 48.08L378.80 48.08Q384.08 48.08 388.28 45.60Q392.48 43.12 394.88 38.72Q397.28 34.32 397.28 28.64L397.28 28.64Q397.28 22.88 394.88 18.52Q392.48 14.16 388.28 11.72Q384.08 9.28 378.80 9.28L378.80 9.28Q373.52 9.28 369.36 11.72Q365.20 14.16 362.76 18.52Q360.32 22.88 360.32 28.64L360.32 28.64Q360.32 34.32 362.76 38.72Q365.20 43.12 369.36 45.60Q373.52 48.08 378.80 48.08" style="fill: rgb(175, 150, 111);" transform="translate(-396.600,-24.682)"></path></g><g class="path" style="opacity: 1; transform-origin: 33.56px 3.88px; transform: matrix3d(0.91, 0, 0, 0, 0, 0.91, 0, 0, 0, 0, 0.91, 0, 0, 0, 0, 1); animation: 1s linear -0.27s infinite normal forwards running animate-bgbec8anmz; transform-box: view-box;"><path d="M431.36 7.76L431.36 7.76Q436.48 7.76 440.16 9.72Q443.84 11.68 445.88 15.52Q447.92 19.36 447.92 24.96L447.92 24.96L447.92 49.36L446.32 49.36L446.32 24.96Q446.32 17.28 442.40 13.28Q438.48 9.28 431.44 9.28L431.44 9.28Q426 9.28 422.08 11.48Q418.16 13.68 416.08 17.64Q414 21.60 414 26.88L414 26.88L414 49.36L412.40 49.36L412.40 8L414 8L414 19.76L413.84 19.52Q415.68 14.08 420.16 10.92Q424.64 7.76 431.36 7.76" style="fill: rgb(175, 150, 111);" transform="translate(-396.600,-24.682)"></path></g><g class="path" style="opacity: 1; transform-origin: 104.08px -3.32px; transform: matrix3d(0.91, 0, 0, 0, 0, 0.91, 0, 0, 0, 0, 0.91, 0, 0, 0, 0, 1); animation: 1s linear -0.24s infinite normal forwards running animate-bgbec8anmz; transform-box: view-box;"><path d="M500.96 49.60L500.96 49.60Q494.88 49.60 489.48 47.36Q484.08 45.12 481.28 41.68L481.28 41.68L482.40 40.64Q485.04 43.76 490.04 45.92Q495.04 48.08 500.88 48.08L500.88 48.08Q506.96 48.08 510.84 46.40Q514.72 44.72 516.60 41.88Q518.48 39.04 518.48 35.60L518.48 35.60Q518.48 31.60 516.56 29.16Q514.64 26.72 511.44 25.32Q508.24 23.92 504.48 23Q500.72 22.08 496.92 21.12Q493.12 20.16 489.92 18.60Q486.72 17.04 484.80 14.32Q482.88 11.60 482.88 7.20L482.88 7.20Q482.88 3.52 484.84 0.32Q486.80-2.88 490.92-4.88Q495.04-6.88 501.60-6.88L501.60-6.88Q506.08-6.88 510.44-5.48Q514.80-4.08 517.84-1.76L517.84-1.76L516.96-0.48Q513.60-2.96 509.52-4.16Q505.44-5.36 501.68-5.36L501.68-5.36Q495.84-5.36 492-3.64Q488.16-1.92 486.32 0.92Q484.48 3.76 484.48 7.28L484.48 7.28Q484.48 11.36 486.40 13.80Q488.32 16.24 491.52 17.64Q494.72 19.04 498.52 19.96Q502.32 20.88 506.08 21.88Q509.84 22.88 513.04 24.44Q516.24 26 518.16 28.64Q520.08 31.28 520.08 35.60L520.08 35.60Q520.08 39.28 518.08 42.48Q516.08 45.68 511.84 47.64Q507.60 49.60 500.96 49.60" style="fill: rgb(175, 150, 111);" transform="translate(-396.600,-24.682)"></path></g><g class="path" style="opacity: 1; transform-origin: 154.44px 4.12px; transform: matrix3d(0.91, 0, 0, 0, 0, 0.91, 0, 0, 0, 0, 0.91, 0, 0, 0, 0, 1); animation: 1s linear -0.21s infinite normal forwards running animate-bgbec8anmz; transform-box: view-box;"><path d="M550.40 49.60L550.40 49.60Q545.12 49.60 541.32 47.64Q537.52 45.68 535.48 41.84Q533.44 38 533.44 32.40L533.44 32.40L533.44 8L535.04 8L535.04 32.40Q535.04 40.08 539.04 44.08Q543.04 48.08 550.32 48.08L550.32 48.08Q555.52 48.08 559.28 45.88Q563.04 43.68 565.04 39.68Q567.04 35.68 567.04 30.48L567.04 30.48L567.04 8L568.64 8L568.64 49.36L567.04 49.36L567.04 37.68L567.20 37.92Q565.44 43.28 561.12 46.44Q556.80 49.60 550.40 49.60" style="fill: rgb(175, 150, 111);" transform="translate(-396.600,-24.682)"></path></g><g class="path" style="opacity: 1; transform-origin: 203.16px 4px; transform: matrix3d(0.91, 0, 0, 0, 0, 0.91, 0, 0, 0, 0, 0.91, 0, 0, 0, 0, 1); animation: 1s linear -0.18s infinite normal forwards running animate-bgbec8anmz; transform-box: view-box;"><path d="M602.48 49.60L602.48 49.60Q596.64 49.60 592.04 46.92Q587.44 44.24 584.80 39.52Q582.16 34.80 582.16 28.64L582.16 28.64Q582.16 22.48 584.80 17.76Q587.44 13.04 592.04 10.40Q596.64 7.76 602.48 7.76L602.48 7.76Q606.96 7.76 610.84 9.44Q614.72 11.12 617.36 14.48L617.36 14.48L616.24 15.68Q613.84 12.40 610.24 10.84Q606.64 9.28 602.48 9.28L602.48 9.28Q597.12 9.28 592.88 11.72Q588.64 14.16 586.20 18.52Q583.76 22.88 583.76 28.64L583.76 28.64Q583.76 34.40 586.20 38.76Q588.64 43.12 592.88 45.60Q597.12 48.08 602.48 48.08L602.48 48.08Q606.64 48.08 610.24 46.48Q613.84 44.88 616.24 41.68L616.24 41.68L617.36 42.88Q614.72 46.24 610.84 47.92Q606.96 49.60 602.48 49.60" style="fill: rgb(175, 150, 111);" transform="translate(-396.600,-24.682)"></path></g><g class="path" style="opacity: 1; transform-origin: 246.76px 4px; transform: matrix3d(0.91, 0, 0, 0, 0, 0.91, 0, 0, 0, 0, 0.91, 0, 0, 0, 0, 1); animation: 1s linear -0.15s infinite normal forwards running animate-bgbec8anmz; transform-box: view-box;"><path d="M646.08 49.60L646.08 49.60Q640.24 49.60 635.64 46.92Q631.04 44.24 628.40 39.52Q625.76 34.80 625.76 28.64L625.76 28.64Q625.76 22.48 628.40 17.76Q631.04 13.04 635.64 10.40Q640.24 7.76 646.08 7.76L646.08 7.76Q650.56 7.76 654.44 9.44Q658.32 11.12 660.96 14.48L660.96 14.48L659.84 15.68Q657.44 12.40 653.84 10.84Q650.24 9.28 646.08 9.28L646.08 9.28Q640.72 9.28 636.48 11.72Q632.24 14.16 629.80 18.52Q627.36 22.88 627.36 28.64L627.36 28.64Q627.36 34.40 629.80 38.76Q632.24 43.12 636.48 45.60Q640.72 48.08 646.08 48.08L646.08 48.08Q650.24 48.08 653.84 46.48Q657.44 44.88 659.84 41.68L659.84 41.68L660.96 42.88Q658.32 46.24 654.44 47.92Q650.56 49.60 646.08 49.60" style="fill: rgb(175, 150, 111);" transform="translate(-396.600,-24.682)"></path></g><g class="path" style="opacity: 1; transform-origin: 291.92px 4px; transform: matrix3d(0.91, 0, 0, 0, 0, 0.91, 0, 0, 0, 0, 0.91, 0, 0, 0, 0, 1); animation: 1s linear -0.12s infinite normal forwards running animate-bgbec8anmz; transform-box: view-box;"><path d="M690 49.60L690 49.60Q684 49.60 679.36 46.92Q674.72 44.24 672.04 39.48Q669.36 34.72 669.36 28.64L669.36 28.64Q669.36 22.48 671.84 17.80Q674.32 13.12 678.68 10.44Q683.04 7.76 688.48 7.76L688.48 7.76Q693.92 7.76 698.28 10.36Q702.64 12.96 705.16 17.60Q707.68 22.24 707.68 28.24L707.68 28.24Q707.68 28.32 707.68 28.40Q707.68 28.48 707.68 28.64L707.68 28.64L670.24 28.64L670.24 27.12L706.80 27.12L706.16 28.32Q706.16 22.88 703.84 18.56Q701.52 14.24 697.56 11.76Q693.60 9.28 688.48 9.28L688.48 9.28Q683.44 9.28 679.44 11.76Q675.44 14.24 673.16 18.56Q670.88 22.88 670.88 28.32L670.88 28.32L670.88 28.64Q670.88 34.32 673.36 38.72Q675.84 43.12 680.16 45.60Q684.48 48.08 690 48.08L690 48.08Q694.16 48.08 697.88 46.48Q701.60 44.88 704.08 41.68L704.08 41.68L705.20 42.80Q702.48 46.16 698.48 47.88Q694.48 49.60 690 49.60" style="fill: rgb(175, 150, 111);" transform="translate(-396.600,-24.682)"></path></g><g class="path" style="opacity: 1; transform-origin: 333.72px 4px; transform: matrix3d(0.91, 0, 0, 0, 0, 0.91, 0, 0, 0, 0, 0.91, 0, 0, 0, 0, 1); animation: 1s linear -0.09s infinite normal forwards running animate-bgbec8anmz; transform-box: view-box;"><path d="M730.72 49.60L730.72 49.60Q725.68 49.60 721.28 48Q716.88 46.40 714.56 43.92L714.56 43.92L715.52 42.64Q717.76 44.80 721.76 46.44Q725.76 48.08 730.72 48.08L730.72 48.08Q738.08 48.08 741.28 45.52Q744.48 42.96 744.48 38.88L744.48 38.88Q744.48 35.92 742.96 34.20Q741.44 32.48 738.92 31.56Q736.40 30.64 733.36 30.08Q730.32 29.52 727.28 28.88Q724.24 28.24 721.72 27.08Q719.20 25.92 717.68 23.88Q716.16 21.84 716.16 18.40L716.16 18.40Q716.16 15.60 717.68 13.20Q719.20 10.80 722.44 9.28Q725.68 7.76 730.80 7.76L730.80 7.76Q734.64 7.76 738.40 8.92Q742.16 10.08 744.48 12L744.48 12L743.52 13.28Q741.04 11.28 737.68 10.28Q734.32 9.28 730.80 9.28L730.80 9.28Q724 9.28 720.92 11.92Q717.84 14.56 717.84 18.40L717.84 18.40Q717.84 21.44 719.36 23.24Q720.88 25.04 723.40 26Q725.92 26.96 728.96 27.52Q732 28.08 735 28.72Q738 29.36 740.52 30.48Q743.04 31.60 744.56 33.56Q746.08 35.52 746.08 38.88L746.08 38.88Q746.08 42 744.40 44.44Q742.72 46.88 739.32 48.24Q735.92 49.60 730.72 49.60" style="fill: rgb(175, 150, 111);" transform="translate(-396.600,-24.682)"></path></g><g class="path" style="opacity: 1; transform-origin: 370.76px 4px; transform: matrix3d(0.91, 0, 0, 0, 0, 0.91, 0, 0, 0, 0, 0.91, 0, 0, 0, 0, 1); animation: 1s linear -0.06s infinite normal forwards running animate-bgbec8anmz; transform-box: view-box;"><path d="M767.76 49.60L767.76 49.60Q762.72 49.60 758.32 48Q753.92 46.40 751.60 43.92L751.60 43.92L752.56 42.64Q754.80 44.80 758.80 46.44Q762.80 48.08 767.76 48.08L767.76 48.08Q775.12 48.08 778.32 45.52Q781.52 42.96 781.52 38.88L781.52 38.88Q781.52 35.92 780 34.20Q778.48 32.48 775.96 31.56Q773.44 30.64 770.40 30.08Q767.36 29.52 764.32 28.88Q761.28 28.24 758.76 27.08Q756.24 25.92 754.72 23.88Q753.20 21.84 753.20 18.40L753.20 18.40Q753.20 15.60 754.72 13.20Q756.24 10.80 759.48 9.28Q762.72 7.76 767.84 7.76L767.84 7.76Q771.68 7.76 775.44 8.92Q779.20 10.08 781.52 12L781.52 12L780.56 13.28Q778.08 11.28 774.72 10.28Q771.36 9.28 767.84 9.28L767.84 9.28Q761.04 9.28 757.96 11.92Q754.88 14.56 754.88 18.40L754.88 18.40Q754.88 21.44 756.40 23.24Q757.92 25.04 760.44 26Q762.96 26.96 766 27.52Q769.04 28.08 772.04 28.72Q775.04 29.36 777.56 30.48Q780.08 31.60 781.60 33.56Q783.12 35.52 783.12 38.88L783.12 38.88Q783.12 42 781.44 44.44Q779.76 46.88 776.36 48.24Q772.96 49.60 767.76 49.60" style="fill: rgb(175, 150, 111);" transform="translate(-396.600,-24.682)"></path></g><g class="path" style="opacity: 1; transform-origin: 399.16px -10.84px; transform: matrix3d(0.91, 0, 0, 0, 0, 0.91, 0, 0, 0, 0, 0.91, 0, 0, 0, 0, 1); animation: 1s linear -0.03s infinite normal forwards running animate-bgbec8anmz; transform-box: view-box;"><path d="M796.32 34.32L795.20 34.32L794.88-6.64L796.64-6.64L796.32 34.32" style="fill: rgb(175, 150, 111);" transform="translate(-396.600,-24.682)"></path></g><g class="path" style="opacity: 1; transform-origin: 399.16px 22.84px; transform: matrix3d(0.91, 0, 0, 0, 0, 0.91, 0, 0, 0, 0, 0.91, 0, 0, 0, 0, 1); animation: 1s linear 0s infinite normal forwards running animate-bgbec8anmz; transform-box: view-box;"><path d="M795.76 49.60L795.76 49.60Q794.96 49.60 794.32 48.96Q793.68 48.32 793.68 47.52L793.68 47.52Q793.68 46.64 794.32 46.04Q794.96 45.44 795.76 45.44L795.76 45.44Q796.64 45.44 797.24 46.04Q797.84 46.64 797.84 47.52L797.84 47.52Q797.84 48.32 797.24 48.96Q796.64 49.60 795.76 49.60" style="fill: rgb(175, 150, 111);" transform="translate(-396.600,-24.682)"></path></g></g><text dy="0.35em" fill="#af966f" font-family="Montserrat.ttf from Upload" font-size="101">Submission Success!</text>
</g>
</g><style type="text/css">@keyframes animate-bgbec8anmz { 0.00% {transform: translate(0.00px,0.00px) rotate(0.00deg) scale(0.91, 0.91) skew(0deg, 0.00deg) ;opacity: 1.00;}4.00% {transform: translate(0.00px,0.00px) rotate(0.00deg) scale(0.91, 0.91) ;}8.00% {animation-timing-function: cubic-bezier(0.69,0.60,0.35,0.27);transform: translate(0.00px,0.00px) rotate(0.00deg) scale(0.91, 0.91) ;}14.00% {transform: translate(0.00px,0.00px) rotate(0.00deg) scale(0.93, 0.93) ;}18.00% {transform: translate(0.00px,0.00px) rotate(0.00deg) scale(0.94, 0.94) ;}22.00% {animation-timing-function: cubic-bezier(0.67,0.66,0.34,0.33);transform: translate(0.00px,0.00px) rotate(0.00deg) scale(0.96, 0.96) ;}26.00% {transform: translate(0.00px,0.00px) rotate(0.00deg) scale(0.97, 0.97) ;}30.00% {transform: translate(0.00px,0.00px) rotate(0.00deg) scale(0.99, 0.99) ;}34.00% {animation-timing-function: cubic-bezier(0.65,0.71,0.32,0.38);transform: translate(0.00px,0.00px) rotate(0.00deg) scale(1.01, 1.01) ;}40.00% {animation-timing-function: cubic-bezier(0.64,0.74,0.31,0.41);transform: translate(0.00px,0.00px) rotate(0.00deg) scale(1.02, 1.02) ;}46.00% {animation-timing-function: cubic-bezier(0.60,0.91,0.23,0.63);transform: translate(0.00px,0.00px) rotate(0.00deg) scale(1.03, 1.03) ;}50.00% {transform: translate(0.00px,0.00px) rotate(0.00deg) scale(1.03, 1.03) ;}54.00% {transform: translate(0.00px,0.00px) rotate(0.00deg) scale(1.03, 1.03) ;}58.00% {animation-timing-function: cubic-bezier(0.69,0.60,0.35,0.27);transform: translate(0.00px,0.00px) rotate(0.00deg) scale(1.03, 1.03) ;}64.00% {transform: translate(0.00px,0.00px) rotate(0.00deg) scale(1.01, 1.01) ;}68.00% {transform: translate(0.00px,0.00px) rotate(0.00deg) scale(1.00, 1.00) ;}72.00% {animation-timing-function: cubic-bezier(0.67,0.66,0.34,0.33);transform: translate(0.00px,0.00px) rotate(0.00deg) scale(0.98, 0.98) ;}76.00% {animation-timing-function: cubic-bezier(0.66,0.68,0.33,0.35);transform: translate(0.00px,0.00px) rotate(0.00deg) scale(0.97, 0.97) ;}82.00% {animation-timing-function: cubic-bezier(0.65,0.71,0.32,0.38);transform: translate(0.00px,0.00px) rotate(0.00deg) scale(0.94, 0.94) ;}88.00% {animation-timing-function: cubic-bezier(0.65,0.73,0.31,0.40);transform: translate(0.00px,0.00px) rotate(0.00deg) scale(0.92, 0.92) ;}94.00% {animation-timing-function: cubic-bezier(0.63,0.80,0.28,0.48);transform: translate(0.00px,0.00px) rotate(0.00deg) scale(0.91, 0.91) ;}100.00% {animation-timing-function: cubic-bezier(0.63,0.80,0.28,0.48);transform: translate(0.00px,0.00px) rotate(0.00deg) scale(0.91, 0.91) ;} }</style><!-- [ldio] generated by https://loading.io --></svg>