<?xml version="1.0" ?><svg style="enable-background:new 0 0 512 512;" version="1.1" viewBox="0 0 512 512" xml:space="preserve" xmlns="http://www.w3.org/2000/svg" xmlns:xlink="http://www.w3.org/1999/xlink"><style type="text/css">
	.st0{fill:#384C1E;}
	.st1{fill:#81BB47;}
	.st2{opacity:0.45;fill:#231F20;}
	.st3{fill:#FFFFFF;}
</style><g id="Edges"/><g id="Background_Bottom"><g><path class="st0" d="M492.3,443.1c0,34.2-27.7,61.9-61.9,61.9H80.7c-34.2,0-61.9-27.7-61.9-61.9V93.4c0-34.2,27.7-61.9,61.9-61.9    h349.7c34.2,0,61.9,27.7,61.9,61.9V443.1z"/></g></g><g id="Background"><path class="st1" d="M492.3,418.4c0,34.2-27.7,61.9-61.9,61.9H80.7c-34.2,0-61.9-27.7-61.9-61.9V68.6c0-34.2,27.7-61.9,61.9-61.9   h349.7c34.2,0,61.9,27.7,61.9,61.9V418.4z"/></g><g id="Shadow"><path class="st2" d="M492.3,315.8v-0.1c-66.6-66.7-133.2-133.4-199.8-200.2c-9.2-10.2-22.4-16.7-37.1-16.7   c-26.7,0-48.6,21.3-50.2,48.2h-0.1v17h0.4l14.1,14.1h-3.7h-10.9v15.4h-25.3v14.8h0.1c0.1,5.2,0.3,10.3,0.5,15.3h0.2   c1.3,19.8,11.9,37.4,27.7,49.1l32.4,32.4v27.3l-31.4-31.4c-11.1-13.5-26.2-23.7-46.3-29.7c-16-4.8-32.1-7.4-48.8-7.1   c-3.2,0.1-4.7,0.7-4.5,4.3c3.4,58,22.6,79.3,22.6,79.3c1.7,2.2,8,9.9,18.5,18.2l114,114c55.2,0,110.3,0.1,165.5,0.1   c34.2,0,61.9-27.7,61.9-61.9C492.3,384.2,492.3,350,492.3,315.8z"/></g><g id="Symbol"><g><path class="st3" d="M396.8,264.3c-16.7-0.3-32.8,2.3-48.8,7.1c-41,12.3-61.3,41.7-68.8,81.9c-2.3,17.1-3.8,29.6-3.9,32.2    c0,0.6,0,1.6,0.7,2.4c1,1.2,2.8,1.2,3.4,1.2c40.4,0.3,61.3-10.4,61.3-10.4c22.6-11.6,35.4-27.5,38.1-30.8c0,0,19.2-21.3,22.6-79.3    C401.5,265.1,399.9,264.4,396.8,264.3z"/><path class="st3" d="M305.9,147h-0.1c-1.6-26.9-23.5-48.2-50.2-48.2c-26.7,0-48.6,21.3-50.2,48.2h-0.1v17h100.6V147z"/><path class="st3" d="M232,353.3c-7.6-40.2-27.8-69.6-68.8-81.9c-16-4.8-32.1-7.4-48.8-7.1c-3.2,0.1-4.7,0.7-4.5,4.3    c3.4,58,22.6,79.3,22.6,79.3c2.6,3.3,15.5,19.2,38.1,30.8c0,0,20.9,10.8,61.3,10.4c0.6,0,2.4,0,3.4-1.2c0.7-0.8,0.7-1.8,0.7-2.4    C235.9,382.9,234.3,370.4,232,353.3z"/><path class="st3" d="M330.4,223.6h0.2c0.3-4.9,0.5-10,0.5-15.3h0.1v-6.7c0-0.6,0-1.1,0-1.7v-6.4h-25.3v-15.4H295h-78.8h-10.9v15.4    h-25.3v14.8h0.1c0.1,5.2,0.3,10.3,0.5,15.3h0.2c2.1,31.4,27.2,57,60.2,63.1v102h29.5v-102C303.2,280.6,328.3,255,330.4,223.6z     M317.5,208.4c-0.2,3-0.3,6-0.5,8.9h-0.1c-1.7,27.4-21,49.9-46.6,56.2v-14.3h-0.2c19.7-6.1,34.4-24.2,35.7-46h0.1v-4.9H317.5z     M194.2,217.3h-0.1c-0.2-3-0.3-6-0.5-8.9h11.6v4.9h0.1c1.3,21.8,15.9,39.9,35.7,46h-0.2v14.3C215.2,267.2,195.9,244.7,194.2,217.3    z"/></g></g></svg>