<svg xmlns="http://www.w3.org/2000/svg" width="301" height="301" viewBox="0 0 301 301" fill="none">
  <path fill-rule="evenodd" clip-rule="evenodd" d="M21.5503 119.629C33.0793 119.629 42.4254 128.975 42.4254 140.504V160.6C42.4254 172.129 33.0793 181.475 21.5503 181.475C10.0212 181.475 0.675079 172.129 0.675079 160.6V140.504C0.675079 128.975 10.0212 119.629 21.5503 119.629Z" fill="#0066D9"/>
  <path fill-rule="evenodd" clip-rule="evenodd" d="M279.8 119.629C291.329 119.629 300.675 128.975 300.675 140.504V160.6C300.675 172.129 291.329 181.475 279.8 181.475C268.271 181.475 258.925 172.129 258.925 160.6V140.504C258.925 128.975 268.271 119.629 279.8 119.629Z" fill="#4285F4"/>
  <path fill-rule="evenodd" clip-rule="evenodd" d="M86.1127 59.3425C97.6417 59.3425 106.988 68.6886 106.988 80.2177V145.948C106.988 157.477 97.6417 166.824 86.1127 166.824C74.5836 166.824 65.2375 157.477 65.2375 145.948V80.2177C65.2375 68.6886 74.5836 59.3425 86.1127 59.3425ZM86.1127 179.919C97.6417 179.919 106.988 189.265 106.988 200.794V220.89C106.988 232.419 97.6417 241.765 86.1127 241.765C74.5836 241.765 65.2375 232.419 65.2375 220.89V200.794C65.2375 189.265 74.5836 179.919 86.1127 179.919Z" fill="#EA4335"/>
  <path fill-rule="evenodd" clip-rule="evenodd" d="M215.237 59.3352C226.767 59.3352 236.113 68.6813 236.113 80.2104V100.306C236.113 111.836 226.767 121.182 215.237 121.182C203.708 121.182 194.362 111.836 194.362 100.306V80.2104C194.362 68.6813 203.708 59.3352 215.237 59.3352ZM215.237 134.28C226.767 134.28 236.113 143.626 236.113 155.155V220.885C236.113 232.414 226.767 241.761 215.237 241.761C203.708 241.761 194.362 232.414 194.362 220.885V155.155C194.362 143.626 203.708 134.28 215.237 134.28Z" fill="#34A853"/>
  <path fill-rule="evenodd" clip-rule="evenodd" d="M150.675 0.547882C162.204 0.547882 171.55 9.89402 171.55 21.4231V41.5192C171.55 53.0482 162.204 62.3944 150.675 62.3944C139.146 62.3944 129.8 53.0482 129.8 41.5192V21.4231C129.8 9.89402 139.146 0.547882 150.675 0.547882ZM150.675 76.0874C162.204 76.0874 171.55 85.4336 171.55 96.9626V204.14C171.55 215.67 162.204 225.016 150.675 225.016C139.146 225.016 129.8 215.67 129.8 204.14V96.9626C129.8 85.4336 139.146 76.0874 150.675 76.0874ZM150.675 238.703C162.204 238.703 171.55 248.049 171.55 259.578V279.674C171.55 291.203 162.204 300.549 150.675 300.549C139.146 300.549 129.8 291.203 129.8 279.674V259.578C129.8 248.049 139.146 238.703 150.675 238.703Z" fill="#FAB908"/>
</svg>