<svg xmlns="http://www.w3.org/2000/svg" width="25" height="24" fill="none" viewBox="0 0 25 24" id="playerfm"><rect width="24" height="24" x=".463" fill="url(#paint0_linear_302_4851)" rx="8"></rect><path fill="#fff" fill-rule="evenodd" d="M13.2448 4.01663C12.8522 3.93161 12.4651 4.18091 12.3801 4.57346C12.295 4.96602 12.5443 5.35318 12.9368 5.4382C15.9234 6.08504 17.915 8.07664 18.5618 11.0631C18.6468 11.4557 19.0339 11.705 19.4265 11.6199C19.8191 11.5349 20.0684 11.1478 19.9834 10.7552C19.2158 7.21127 16.7887 4.78422 13.2448 4.01663ZM13.091 6.38692C12.7021 6.28642 12.3054 6.5202 12.2049 6.90908C12.1043 7.29797 12.3382 7.69468 12.727 7.79518C14.5156 8.2574 15.7426 9.48438 16.2048 11.273C16.3053 11.6618 16.702 11.8957 17.0909 11.7951C17.4798 11.6946 17.7136 11.2979 17.6131 10.909C17.0185 8.60835 15.3917 6.98147 13.091 6.38692ZM12.0547 9.17777C12.2076 8.80636 12.6327 8.62926 13.0041 8.78219C13.5684 9.01455 13.9008 9.23616 14.3323 9.66768C14.7639 10.0992 14.9855 10.4316 15.2178 10.996C15.3708 11.3674 15.1937 11.7924 14.8223 11.9453C14.4509 12.0983 14.0258 11.9212 13.8728 11.5498C13.7136 11.163 13.5996 10.992 13.3038 10.6962C13.0081 10.4005 12.837 10.2864 12.4503 10.1272C12.0789 9.97423 11.9018 9.54917 12.0547 9.17777ZM10.1807 8.50117C10.9586 8.30094 11.427 7.50796 11.2268 6.73C11.0265 5.95205 10.2335 5.4837 9.45556 5.68394C6.31913 6.4912 4 9.33662 4 12.7274C4 16.744 7.25607 20 11.2726 20C14.6634 20 17.5088 17.6809 18.3161 14.5445C18.5163 13.7665 18.048 12.9735 17.27 12.7733C16.4921 12.573 15.6991 13.0414 15.4989 13.8193C15.0144 15.7017 13.3039 17.0909 11.2726 17.0909C8.8627 17.0909 6.90906 15.1373 6.90906 12.7274C6.90906 10.6961 8.29832 8.98566 10.1807 8.50117Z" clip-rule="evenodd"></path><defs><linearGradient id="paint0_linear_302_4851" x1=".463" x2="24.463" y1="12" y2="12" gradientUnits="userSpaceOnUse"><stop stop-color="#c1121f"></stop><stop offset="1" stop-color="#c1121f"></stop></linearGradient></defs></svg>