<svg xmlns="http://www.w3.org/2000/svg" x="0px" y="0px" width="100" height="100" viewBox="0 0 48 48">
<linearGradient id="976DiF5euwPkeQL63XQK3a_Ugppt5oZIP72_gr1" x1="14.101" x2="34.491" y1="6.854" y2="42.171" gradientUnits="userSpaceOnUse"><stop offset="0" stop-color="#ea504d"></stop><stop offset=".736" stop-color="#e83e3b"></stop><stop offset="1" stop-color="#e73634"></stop></linearGradient><path fill="url(#976DiF5euwPkeQL63XQK3a_Ugppt5oZIP72_gr1)" d="M44,24c0,11.045-8.955,20-20,20S4,35.045,4,24S12.955,4,24,4S44,12.955,44,24z"></path><path fill="#fff" d="M23.518,28.977c-2.875-0.276-5.047-2.998-4.405-6.054c0.397-1.887,1.922-3.413,3.809-3.809	c3.056-0.642,5.778,1.53,6.054,4.405C29.003,23.787,29.21,24,29.481,24h1.804c0.477,0,0.717-0.243,0.698-0.532	c-0.309-4.681-4.663-8.275-9.59-7.31c-3.115,0.61-5.625,3.12-6.235,6.235c-0.965,4.927,2.629,9.281,7.31,9.59	C23.757,32.002,24,31.762,24,31.472l0-1.804C24,29.21,23.787,29.003,23.518,28.977z"></path><path fill="#fff" d="M23.509,33.988c-5.382-0.262-9.66-4.798-9.505-10.278c0.148-5.213,4.493-9.558,9.706-9.706	c5.48-0.156,10.016,4.123,10.278,9.505C34.001,23.782,34.213,24,34.487,24h2.272c0.507,0,0.742-0.24,0.731-0.528	C37.192,15.768,30.408,9.7,22.457,10.586c-6.177,0.689-11.182,5.694-11.871,11.871C9.7,30.408,15.768,37.192,23.472,37.49	C23.76,37.501,24,37.265,24,36.977l0-2.273C24,34.213,23.782,34.001,23.509,33.988z"></path>
</svg>