<?xml version="1.0" standalone="no"?>
<!DOCTYPE svg PUBLIC "-//W3C//DTD SVG 1.1//EN" "http://www.w3.org/Graphics/SVG/1.1/DTD/svg11.dtd">
<svg xmlns="http://www.w3.org/2000/svg" width="194" height="32" viewBox="0 0 194 32" fill="none">
    <path d="M3.07119 15.9981C3.07119 15.8811 3.07314 15.7525 3.07509 15.6238C3.25249 14.7233 4.04592 14.0723 4.96412 14.0723C6.02657 14.0723 6.89018 14.9377 6.89018 16.0136L6.90383 16.1014C6.95841 22.2822 12.027 27.313 18.2029 27.313C21.2382 27.313 24.1351 26.0811 26.2366 23.9546C23.8056 27.0791 20.0276 28.962 16.0175 28.962C8.87863 28.9601 3.07119 23.1457 3.07119 15.9981ZM25.1118 15.9981C25.1118 14.9357 25.9754 14.0703 27.0378 14.0703C27.958 14.0703 28.7514 14.7194 28.923 15.6004C28.9269 15.7544 28.96 16.0936 28.96 16.0936C28.9093 17.1208 28.0652 17.9258 27.0378 17.9258C25.9773 17.9277 25.1118 17.0623 25.1118 15.9981ZM7.44188 15.9981C7.44188 14.6141 7.70115 13.2673 8.21386 11.9905C10.0132 12.4603 11.3096 14.1327 11.3096 15.9981V16.191H11.3369C11.4402 21.1068 15.4951 25.091 20.4175 25.091C22.8368 25.091 25.1508 24.1125 26.839 22.4245C24.8291 25.1338 21.63 26.7692 18.2009 26.7692C12.2687 26.7712 7.44188 21.9391 7.44188 15.9981ZM20.6923 15.9981C20.6923 14.1327 21.9887 12.4603 23.7881 11.9905C24.3008 13.2653 24.5601 14.6141 24.562 16.0097L24.5776 16.1228C24.6439 17.4151 25.7434 18.4638 27.0378 18.4638C27.5349 18.4638 28.0243 18.3078 28.4336 18.0271C27.7084 19.3214 26.336 20.1381 24.8271 20.1381C22.5482 20.1401 20.6923 18.2825 20.6923 15.9981ZM7.67581 11.8911C7.33661 12.7605 7.10657 13.6688 6.99155 14.5966C6.53733 13.9339 5.78289 13.5323 4.96412 13.5323C4.467 13.5323 3.97769 13.6883 3.5683 13.9709C4.37343 12.5324 5.98368 11.6787 7.67581 11.8911ZM24.3261 11.8911C26.0202 11.6787 27.6285 12.5324 28.4336 13.9709C28.0243 13.6902 27.5349 13.5323 27.0378 13.5323C26.2191 13.5323 25.4646 13.9339 25.0104 14.5966C24.8954 13.6688 24.6653 12.7605 24.3261 11.8911ZM11.8749 15.9981C11.8749 14.2379 12.4071 12.55 13.4131 11.1095C14.8791 12.3219 15.7173 14.0976 15.7173 15.9981V16.191H15.7524C15.8557 19.8886 18.9203 22.8825 22.6262 22.8825C24.3944 22.8825 26.104 22.1828 27.3731 20.9704C25.7863 23.2022 23.2091 24.551 20.4194 24.551C15.7076 24.553 11.8749 20.7151 11.8749 15.9981ZM16.2866 15.9981C16.2866 14.0996 17.1248 12.3239 18.5908 11.1095C19.5968 12.55 20.129 14.2379 20.129 15.9981V16.191H20.1582C20.2615 18.6723 22.3357 20.6761 24.8291 20.6761C25.9578 20.6761 27.0359 20.2667 27.88 19.5358C27.4765 20.1323 26.9774 20.6605 26.4082 21.0854C25.3087 21.908 24.0006 22.3426 22.6262 22.3426C19.1308 22.3446 16.2866 19.4988 16.2866 15.9981ZM23.1643 9.67882C25.0903 9.84255 26.837 10.8854 27.8975 12.4759C27.0495 11.7333 25.9637 11.32 24.8271 11.32C24.5893 11.32 24.3495 11.3395 24.1097 11.3766C23.8446 10.786 23.5288 10.2168 23.1643 9.67882ZM8.83769 9.67882C8.47509 10.2168 8.15733 10.786 7.8922 11.3766C6.52563 11.166 5.13567 11.5793 4.10051 12.4817C5.16296 10.8854 6.90967 9.8406 8.83769 9.67882ZM8.43025 11.4935C8.72852 10.8483 9.09112 10.2304 9.51025 9.65738C10.7599 9.68272 11.9588 10.0726 12.9822 10.786C12.257 11.819 11.7502 13.0061 11.5065 14.2418C10.9665 12.895 9.84361 11.8853 8.43025 11.4935ZM19.0197 10.784C20.0451 10.0706 21.2421 9.68077 22.4917 9.65543C22.9108 10.2285 23.2734 10.8464 23.5717 11.4916C22.1603 11.8833 21.0354 12.893 20.4955 14.2399C20.2498 13.0061 19.7449 11.819 19.0197 10.784ZM13.7347 10.6787C14.3683 9.88153 15.1305 9.21102 16.0019 8.68084C16.8734 9.21102 17.6356 9.88153 18.2692 10.6787C17.1736 11.5793 16.3782 12.7995 16.0019 14.1522C15.6238 12.7995 14.8303 11.5793 13.7347 10.6787ZM22.7607 9.11746C22.3065 8.52686 21.7938 7.97914 21.2323 7.48599C23.6731 7.72185 25.9208 9.02779 27.3517 11.0062C26.1138 9.8406 24.4645 9.15059 22.7607 9.11746ZM10.7716 7.48599C10.2101 7.97719 9.6974 8.52491 9.24318 9.11746C7.5374 9.15059 5.88816 9.8406 4.6522 11.0082C6.08116 9.02779 8.33083 7.7199 10.7716 7.48599ZM9.91379 9.13695C10.4343 8.50736 11.025 7.94015 11.6683 7.44506C12.9842 7.45871 14.2923 7.78227 15.4639 8.38262C14.6432 8.91669 13.918 9.57941 13.3039 10.3532C12.3019 9.64958 11.1342 9.23246 9.91379 9.13695ZM16.5381 8.38262C17.7097 7.78422 19.0178 7.46066 20.3336 7.44506C20.9789 7.9421 21.5696 8.50931 22.0882 9.13695C20.8678 9.23246 19.7001 9.64958 18.6961 10.3513C18.084 9.58136 17.3588 8.91864 16.5381 8.38262ZM12.3799 6.94412C13.491 6.22488 14.7075 5.72394 16 5.453C17.2944 5.72199 18.5109 6.22488 19.6201 6.94412C18.351 7.05718 17.1073 7.43921 16 8.05905C14.8947 7.43921 13.649 7.05718 12.3799 6.94412ZM20.5149 6.90709C19.548 6.18784 18.4856 5.63623 17.3529 5.26003C21.0939 4.96961 24.6712 6.64005 26.8468 9.57746C25.178 7.90897 22.8991 6.93243 20.5149 6.90709ZM13.7991 5.2269C14.0817 5.2269 14.3664 5.23859 14.651 5.26003C13.5183 5.63623 12.4559 6.18784 11.489 6.90709C9.11061 6.93243 6.8317 7.90702 5.16686 9.56966C7.17675 6.86226 10.3739 5.2269 13.7991 5.2269ZM15.3216 3.05746L15.3586 3.05552C15.4288 3.05162 15.499 3.04967 15.5867 3.04577C15.6998 3.04187 15.8148 3.03992 15.9318 3.03797L16.0019 3.03602C18.6474 3.03992 21.1914 3.83908 23.3592 5.34775C24.4041 6.07479 25.3243 6.93438 26.104 7.91676C25.5523 7.37489 24.948 6.8915 24.293 6.47242C22.4742 5.30292 20.3687 4.68503 18.2029 4.68503C17.4621 4.68503 16.7213 4.75715 16 4.90139C15.2768 4.75715 14.536 4.68503 13.7991 4.68503C11.6293 4.68503 9.52 5.30487 7.69921 6.47827C7.03834 6.90319 6.42816 7.39438 5.87256 7.9421C8.16123 5.05342 11.5884 3.25628 15.3216 3.05746ZM15.9844 2.5C8.54917 2.5 2.5 8.55609 2.5 15.9981V16.0292C2.5 16.0994 2.50195 16.1696 2.50585 16.2397L2.51365 16.4035L2.53704 16.4015C2.63841 19.8886 4.06736 23.1574 6.56267 25.6172C9.10282 28.12 12.4598 29.5 16.0156 29.5C23.4508 29.5 29.5 23.4439 29.5 16C29.5019 8.55609 23.4528 2.5 16.0175 2.5H15.9844Z" fill="#CF9C87"/>
    <path d="M71.0089 21.2133C70.8629 21.2133 70.7216 21.1942 70.5876 21.1535C70.4535 21.1128 70.3458 21.0002 70.262 20.8111C70.1782 20.6244 70.1375 20.0618 70.1375 19.1257V11.9628C70.1375 11.9125 70.0872 11.8742 69.9891 11.8431C69.8885 11.8119 69.8287 11.8095 69.8023 11.8335C68.9357 12.2836 68.172 12.5661 67.5136 12.6834C67.4346 12.6929 67.3939 12.7241 67.3939 12.7743C67.3939 12.8246 67.4729 12.8366 67.6333 12.8126C67.7913 12.7887 67.9469 12.7719 68.0954 12.7624C68.2462 12.7528 68.3851 12.8103 68.5167 12.9347C68.6484 13.0568 68.713 13.4997 68.713 14.2634V19.2885C68.2558 19.8918 67.8105 20.3299 67.3772 20.6004C66.9415 20.871 66.4148 21.0074 65.7899 21.0074C65.1675 21.0074 64.6456 20.7632 64.2266 20.2725C63.8077 19.7841 63.597 19.0012 63.597 17.9239V11.9628C63.597 11.9125 63.5467 11.8742 63.4462 11.8431C63.3456 11.8119 63.2834 11.8095 63.2594 11.8335C62.4263 12.2716 61.6554 12.5541 60.9468 12.6834C60.8726 12.6953 60.8367 12.7241 60.8367 12.7743C60.8367 12.8246 60.9181 12.839 61.0809 12.815C61.2437 12.7935 61.3993 12.7767 61.5501 12.7648C61.6985 12.7528 61.8422 12.8103 61.9762 12.9323C62.1103 13.0544 62.1773 13.4949 62.1773 14.2515V17.7324C62.1773 19.1113 62.4431 20.0953 62.9721 20.6818C63.5012 21.2684 64.2482 21.5628 65.2082 21.5628C66.5153 21.5628 67.6836 20.8758 68.713 19.504C68.7011 20.0331 68.6652 20.4664 68.6077 20.8015C68.5502 21.1367 68.5191 21.3354 68.5191 21.3976C68.5191 21.4599 68.5263 21.5054 68.5431 21.5365C68.5574 21.5676 68.6532 21.5724 68.8256 21.5557C68.9979 21.5365 69.278 21.503 69.6659 21.4551C70.0537 21.4048 70.5421 21.3809 71.1334 21.3809C71.1956 21.3809 71.2268 21.3522 71.2268 21.2971C71.2292 21.242 71.155 21.2133 71.0089 21.2133Z" fill="#151515"/>
    <path d="M108.255 10.1052C108.53 10.1052 108.765 10.0118 108.961 9.82272C109.157 9.63598 109.256 9.40137 109.256 9.12605C109.256 8.84834 109.157 8.61133 108.961 8.41502C108.765 8.21871 108.53 8.11816 108.255 8.11816C107.98 8.11816 107.747 8.21632 107.556 8.41502C107.367 8.61133 107.271 8.84834 107.271 9.12605C107.271 9.40376 107.367 9.63598 107.556 9.82272C107.747 10.0118 107.98 10.1052 108.255 10.1052Z" fill="#151515"/>
    <path d="M51.3852 16.5573L51.3995 16.5237L54.0306 9.88509L56.3049 15.219L51.3852 16.5573ZM51.3373 16.6746L51.3804 16.5668L51.3421 16.6626L51.3373 16.6746ZM61.6101 21.2137H61.4616C61.2342 21.2137 61.0355 21.1754 60.8655 21.0987C60.6956 21.0221 60.4657 20.7636 60.1784 20.3279C59.8888 19.8921 59.295 18.6113 58.3973 16.4878L57.8658 15.219L57.7964 15.0538L57.7054 14.8383L57.7581 14.9604L54.9523 8.2787C54.9283 8.24279 54.8661 8.22363 54.7679 8.22363H54.574C54.4998 8.22363 54.4567 8.24279 54.4447 8.2787L51.0907 16.6363L50.983 16.9068L50.9159 17.0768L50.7986 17.3688C50.3749 18.4773 49.9583 19.3798 49.5513 20.0717C49.1443 20.833 48.6895 21.2137 48.1843 21.2137H48.1101C48.0359 21.2137 48 21.2424 48 21.2974C48 21.3525 48.0359 21.3812 48.1101 21.3812L49.5035 21.3429H49.6782L51.8305 21.3812C51.9837 21.3812 52.0603 21.3429 52.0603 21.2711C52.0603 21.1969 52.0172 21.1634 51.931 21.1706L51.3947 21.2352C50.6933 21.228 50.3414 20.9168 50.3414 20.2967C50.3414 19.6527 50.5664 18.7071 51.0141 17.4622L51.1314 17.1725H51.1338L51.2726 16.8254L56.3911 15.4321L56.3336 15.298L56.3911 15.4321L56.8412 16.4854V16.5046L56.9345 16.6626C58.1172 19.3942 58.6008 20.8354 58.3877 20.9862C58.1746 21.137 57.9664 21.2137 57.7653 21.2137H57.3679C57.2936 21.2137 57.2673 21.2424 57.2888 21.2974C57.3104 21.3525 57.3583 21.3812 57.4325 21.3812L59.805 21.3262C59.8241 21.3262 59.9079 21.3286 60.0587 21.3358C60.2096 21.3405 60.3795 21.3477 60.5663 21.3549C60.753 21.3621 60.9421 21.3669 61.1289 21.3741C61.3156 21.3812 61.4664 21.3836 61.5766 21.3836C61.6867 21.3836 61.7417 21.3525 61.7417 21.2903C61.7417 21.24 61.6963 21.2137 61.6101 21.2137Z" fill="#151515"/>
    <path d="M105.926 18.9611C105.838 18.9252 105.78 18.942 105.756 19.0162C105.541 19.6554 105.258 20.1438 104.911 20.479C104.564 20.8141 104.203 20.9817 103.827 20.9817C103.008 20.9817 102.599 20.2898 102.599 18.9037V12.9665L104.325 12.9761L104.842 12.9856H104.926C105.541 12.4254 105.85 12.0831 105.85 11.961C105.85 11.9179 105.627 11.9059 105.184 11.9251L103.42 11.9442H102.634V10.108C102.634 10.0458 102.61 10.041 102.56 10.0889L100.142 12.8683C100.111 12.8923 100.102 12.9162 100.109 12.9377C100.116 12.9593 100.128 12.9713 100.142 12.9713H101.176V18.9635C101.176 19.8685 101.32 20.5292 101.605 20.9434C101.89 21.36 102.345 21.5658 102.967 21.5658C103.582 21.5658 104.147 21.3432 104.662 20.8955C105.177 20.4478 105.622 19.8589 105.996 19.1263C106.039 19.0545 106.015 18.9994 105.926 18.9611Z" fill="#151515"/>
    <path d="M163.981 15.518C163.981 16.5331 163.941 17.4428 163.862 18.2424C163.775 18.5991 163.392 19.1067 162.71 19.765C162.028 20.4234 161.444 20.7538 160.96 20.7538C160.474 20.7538 160.026 20.5718 159.615 20.2055C159.203 19.8392 158.997 19.3628 158.997 18.7787C158.997 18.1874 159.222 17.687 159.67 17.2728C160.117 16.8611 161.039 16.3655 162.435 15.7862L163.984 15.1206V15.518H163.981ZM167.034 19.8488C166.957 19.7985 166.892 19.8129 166.845 19.8847C166.734 20.1241 166.567 20.3588 166.347 20.5862C166.124 20.8136 165.949 20.9285 165.82 20.9285C165.616 20.9285 165.478 20.7969 165.406 20.5311C165.332 20.2678 165.296 19.8632 165.296 19.3221L165.444 15.1757C165.444 12.8846 164.331 11.7402 162.102 11.7402C161.547 11.7402 160.924 11.8767 160.242 12.152C159.557 12.4273 158.956 12.7218 158.437 13.0426C158.219 13.179 158.056 13.3299 157.953 13.4951C157.85 13.6602 157.798 13.7991 157.798 13.9116C157.798 14.2013 158.054 14.3449 158.566 14.3449C158.822 14.3449 159.009 14.3186 159.124 14.2659C159.239 14.2133 159.346 14.1199 159.447 13.9834C159.548 13.8494 159.653 13.6602 159.761 13.4208C159.871 13.1814 160.081 12.8678 160.397 12.4824C160.713 12.0969 161.219 11.9054 161.91 11.9054C162.61 11.9054 163.115 12.1209 163.424 12.5518C163.732 12.9827 163.912 13.7943 163.962 14.9889L162.37 15.5898C161.484 15.9346 160.462 16.4158 159.306 17.031C158.149 17.6463 157.573 18.4603 157.573 19.4682C157.573 20.0475 157.776 20.5455 158.181 20.9644C158.588 21.3834 159.133 21.5917 159.821 21.5917C160.508 21.5917 161.269 21.2398 162.102 20.5335C162.935 19.8297 163.51 19.2096 163.821 18.6734C163.828 19.0803 163.833 19.5975 163.833 20.2247C163.833 21.1177 164.168 21.563 164.836 21.563C165.176 21.563 165.588 21.3786 166.071 21.0099C166.555 20.6412 166.883 20.3276 167.055 20.0691C167.118 19.9709 167.11 19.8967 167.034 19.8488Z" fill="#151515"/>
    <path d="M175.319 19.1474C174.987 19.6765 174.563 20.1098 174.046 20.4449C173.529 20.7801 172.983 20.9477 172.406 20.9477C171.305 20.9477 170.428 20.4832 169.777 19.5568C169.126 18.6303 168.8 17.517 168.8 16.2195C168.8 14.9195 169.095 13.9188 169.686 13.2126C170.275 12.5087 171.082 12.1568 172.102 12.1568C172.705 12.1568 173.241 12.3172 173.711 12.6356C174.18 12.9564 174.716 13.4185 175.319 14.0217V19.1474ZM177.575 21.2134C177.417 21.2134 177.275 21.1895 177.153 21.144C177.031 21.0985 176.933 20.9884 176.856 20.816C176.78 20.6436 176.741 20.081 176.741 19.1258V6.14538C176.741 6.09511 176.684 6.0568 176.569 6.02568C176.454 5.99456 176.385 5.99216 176.361 6.0161C175.525 6.47097 174.764 6.76065 174.072 6.88514C173.998 6.89711 173.962 6.93063 173.962 6.98569C173.962 7.04075 173.998 7.0623 174.072 7.05033C174.592 6.95696 174.929 6.98808 175.085 7.14369C175.24 7.29691 175.319 7.74938 175.319 8.50111V12.6284C174.575 12.0371 173.816 11.7426 173.043 11.7426C171.527 11.7426 170.206 12.2597 169.073 13.294C167.943 14.3282 167.378 15.6066 167.378 17.1268C167.378 18.4076 167.773 19.4682 168.566 20.3085C169.356 21.1488 170.366 21.5677 171.597 21.5677C172.236 21.5677 172.904 21.3834 173.598 21.0147C174.292 20.646 174.867 20.1241 175.322 19.4538C175.31 19.9949 175.284 20.4402 175.243 20.7873C175.202 21.1344 175.183 21.3403 175.183 21.4002C175.183 21.5486 175.26 21.6037 175.415 21.5653C176.042 21.4432 176.806 21.381 177.704 21.381C177.778 21.381 177.814 21.3547 177.814 21.2972C177.812 21.2422 177.733 21.2134 177.575 21.2134Z" fill="#151515"/>
    <path d="M154.159 20.3682C153.591 20.9308 152.677 21.2133 151.413 21.2133H149.804C149.471 21.2133 149.258 21.1582 149.165 21.0505C149.071 20.9428 148.99 20.7393 148.921 20.4376C148.849 20.136 148.815 18.8192 148.815 16.4851V14.6464H151.219C152.581 14.6464 153.553 14.9122 154.137 15.4413C154.719 15.9703 155.011 16.7843 155.011 17.8784C155.009 18.9773 154.726 19.8056 154.159 20.3682ZM148.911 8.73558C148.988 8.60391 149.076 8.52969 149.174 8.51772C149.273 8.50575 149.399 8.49857 149.553 8.49857H150.913C152.189 8.49857 153.117 8.69967 153.702 9.09947C154.283 9.49928 154.575 10.2558 154.575 11.3714C154.575 12.487 154.269 13.2747 153.656 13.7391C153.043 14.2036 152.15 14.4358 150.98 14.4358H148.815V13.1717L148.796 9.17369C148.796 9.01329 148.834 8.86725 148.911 8.73558ZM152.32 14.5004C154.798 14.1365 156.036 13.0903 156.036 11.3618C156.036 10.2295 155.629 9.43224 154.815 8.9702C154.001 8.50815 152.77 8.27832 151.126 8.27832L148.028 8.33338L145.959 8.27832C145.885 8.27832 145.849 8.30705 145.849 8.36211C145.849 8.41717 145.887 8.4459 145.964 8.4459H146.314C146.548 8.4459 146.735 8.47463 146.876 8.53448C147.017 8.59194 147.132 8.81458 147.221 9.20002C147.309 9.58546 147.353 10.9094 147.353 13.1765V16.4922C147.353 18.757 147.307 20.0833 147.221 20.4663C147.132 20.8518 147.017 21.072 146.876 21.1319C146.735 21.1893 146.546 21.2205 146.314 21.2205H145.964C145.887 21.2205 145.849 21.2492 145.849 21.3043C145.849 21.3593 145.887 21.388 145.962 21.388L148.076 21.333L150.649 21.3689L151.556 21.388H151.638C153.335 21.388 154.566 21.072 155.327 20.4424C156.088 19.8128 156.469 18.9366 156.469 17.8161C156.469 17.311 156.258 16.6742 155.835 15.9057C155.413 15.1253 154.24 14.6608 152.32 14.5004Z" fill="#151515"/>
    <path d="M180.95 12.7936C181.551 12.3699 182.224 12.1568 182.968 12.1568C183.713 12.1568 184.28 12.3387 184.668 12.7074C185.056 13.0737 185.25 13.4831 185.25 13.9356C185.25 14.1606 185.197 14.3354 185.092 14.4575C184.986 14.5796 184.733 14.637 184.326 14.6322L179.672 14.7064C179.923 13.8542 180.349 13.2174 180.95 12.7936ZM188.941 16.6624C188.898 16.6432 188.853 16.6911 188.802 16.8012C188.539 17.3734 188.082 18.1299 187.435 19.0684C186.789 20.0068 185.664 20.4761 184.055 20.4761C182.774 20.4761 181.812 20.1816 181.165 19.5951C180.519 19.0085 180.076 18.4603 179.842 17.9551C179.605 17.45 179.485 16.9281 179.485 16.3847C179.485 15.8436 179.535 15.3385 179.633 14.8692H186.097C186.571 14.8692 186.837 14.6753 186.892 14.2875C186.959 13.6962 186.736 13.124 186.217 12.571C185.7 12.0179 184.835 11.7402 183.622 11.7402C182.951 11.7402 182.3 11.8815 181.673 12.164C181.046 12.4465 180.486 12.8295 179.992 13.3131C179.499 13.7967 179.102 14.3593 178.8 15.0033C178.498 15.6473 178.348 16.3224 178.348 17.031C178.348 18.3741 178.781 19.4634 179.645 20.3037C180.509 21.144 181.625 21.563 182.987 21.563C184.352 21.563 185.434 21.2038 186.238 20.488C187.04 19.7722 187.629 19.1282 188.003 18.5584C188.374 17.9887 188.635 17.5338 188.783 17.1962C188.932 16.8587 188.984 16.6815 188.941 16.6624Z" fill="#151515"/>
    <path d="M193.282 11.7402C192.801 11.7402 192.418 11.836 192.128 12.0275C191.838 12.2238 191.577 12.4417 191.343 12.6787C191.108 12.9157 190.936 13.2437 190.826 13.6626C190.787 13.2987 190.682 12.9588 190.51 12.6428C190.337 12.3244 190.194 12.1185 190.081 12.0203C189.969 11.9222 189.901 11.8863 189.882 11.9102C189.526 12.2621 189.085 12.5255 188.563 12.705C188.513 12.729 188.513 12.7673 188.563 12.8152C188.779 13.0186 188.98 13.2389 189.164 13.4807C189.348 13.7201 189.442 13.9787 189.442 14.2564V19.133C189.442 20.093 189.382 20.6819 189.262 20.8974C189.143 21.1129 188.889 21.2206 188.501 21.2206C188.353 21.2206 188.278 21.2493 188.274 21.3044C188.271 21.3595 188.307 21.3882 188.379 21.3882L190.325 21.3619L191.204 21.3714L191.822 21.3906H192.015C192.09 21.3906 192.126 21.3642 192.126 21.3068C192.126 21.2517 192.09 21.223 192.015 21.223H190.861V14.8788C190.861 14.479 190.873 14.1582 190.897 13.9188C190.921 13.6794 191.003 13.4759 191.142 13.3131C191.28 13.1503 191.685 13.0689 192.355 13.0689H193.057C193.217 13.0689 193.414 12.9923 193.648 12.8415C193.883 12.6907 194 12.4369 194 12.0802C194.002 11.8504 193.763 11.7402 193.282 11.7402Z" fill="#151515"/>
    <path d="M138.255 16.8328C137.951 16.6221 137.602 16.4402 137.207 16.2893C136.812 16.1385 136.424 15.9973 136.043 15.8608C135.662 15.7267 135.066 15.5017 134.262 15.1881C133.455 14.8745 133.053 14.3286 133.053 13.5482C133.053 13.0574 133.292 12.66 133.774 12.3583C134.255 12.0567 134.884 11.9059 135.667 11.9059C136.776 11.9059 137.556 12.2243 138.009 12.8563C138.461 13.4907 138.686 14.3765 138.686 15.5161C138.686 15.5903 138.712 15.6262 138.765 15.6262C138.818 15.6262 138.844 15.5903 138.844 15.5161L138.937 12.2099C138.937 12.1165 138.894 12.0663 138.808 12.0519C138.53 12.016 138.176 11.9537 137.745 11.8676C137.314 11.7814 136.634 11.7383 135.706 11.7383C134.777 11.7383 133.951 11.9825 133.23 12.4709C132.509 12.9592 132.15 13.6679 132.15 14.5944C132.15 15.5232 132.581 16.1577 133.443 16.5024C134.305 16.8471 135.102 17.1416 135.835 17.3882C136.575 17.6348 137.178 17.9053 137.649 18.1998C138.121 18.4942 138.356 18.9156 138.356 19.4614C138.356 20.7518 137.535 21.3958 135.89 21.3958C134.585 21.3958 133.673 21.0583 133.151 20.3831C132.632 19.708 132.371 18.669 132.371 17.2685C132.371 17.1775 132.347 17.132 132.296 17.1344C132.246 17.1368 132.222 17.1823 132.222 17.2685C132.222 18.7863 132.203 19.7056 132.167 20.0288C132.131 20.352 132.112 20.5747 132.112 20.6968C132.112 20.8188 132.155 20.8835 132.241 20.8907C132.433 20.9386 132.816 21.0654 133.39 21.2641C133.965 21.4628 134.765 21.5634 135.787 21.5634C136.814 21.5634 137.654 21.2881 138.303 20.7375C138.952 20.1868 139.277 19.6003 139.277 18.9778C139.277 18.3554 139.184 17.8933 138.995 17.5965C138.806 17.2996 138.559 17.0459 138.255 16.8328Z" fill="#151515"/>
    <path d="M77.4755 12.8959C77.8873 13.5303 78.0932 14.3131 78.0932 15.2444C78.0932 16.1757 77.8897 16.9035 77.4803 17.4278C77.0709 17.9521 76.4844 18.213 75.7159 18.213C75.3281 18.213 74.8421 18.0526 74.2556 17.7318C73.669 17.411 73.3746 16.4917 73.3746 14.9763C73.3746 12.9533 74.179 11.943 75.7877 11.943C76.5036 11.943 77.0638 12.2614 77.4755 12.8959ZM77.3247 21.4545C78.3972 21.4545 79.1777 21.5766 79.6709 21.8232C80.164 22.0698 80.4106 22.4935 80.4106 23.0968C80.4106 23.9347 79.9198 24.641 78.9407 25.2203C77.9615 25.7997 76.8555 26.087 75.6226 26.087H75.5483C74.4638 26.087 73.6211 25.9074 73.0202 25.5507C72.4193 25.194 72.1201 24.7128 72.1201 24.1095C72.1201 23.5062 72.3739 22.9747 72.879 22.5175C73.3841 22.0578 74.0473 21.7035 74.8684 21.4521H77.3247V21.4545ZM78.742 12.0388C79.52 12.1537 79.9749 12.2088 80.109 12.2088C80.243 12.2088 80.4202 12.1465 80.6428 12.0244C80.8631 11.9023 80.9756 11.6701 80.9756 11.3302C80.9756 11.1338 80.7937 11.0381 80.4298 11.0381C80.3196 11.0381 79.757 11.1602 78.7444 11.4068C77.7317 11.6534 76.7334 11.7754 75.7446 11.7754C74.7559 11.7754 73.8773 12.0986 73.1088 12.745C72.3403 13.3914 71.9549 14.1886 71.9549 15.1319C71.9549 16.0751 72.1967 16.8053 72.6827 17.3224C73.1663 17.8395 73.8127 18.1699 74.6218 18.3112C73.8198 18.4548 73.1711 18.6918 72.6779 19.027C72.1847 19.3621 71.9381 19.75 71.9381 20.1905C71.9381 20.631 72.168 20.9422 72.6276 21.1241C73.0873 21.3061 73.6978 21.409 74.4567 21.433C73.5924 21.7538 72.8503 22.211 72.2254 22.8095C71.603 23.4057 71.2917 24.0473 71.2917 24.7296C71.2917 25.4119 71.5647 25.984 72.1129 26.4413C72.6611 26.901 73.4272 27.1284 74.4088 27.1284C75.3927 27.1284 76.3958 26.8938 77.4181 26.4221C78.4403 25.9505 79.2854 25.3424 79.9558 24.5931C80.6237 23.8462 80.9589 23.0729 80.9589 22.2805C80.9589 21.6891 80.7123 21.2008 80.2215 20.8177C79.7307 20.4323 78.9862 20.2408 77.9855 20.2408H75.4502C74.6171 20.2408 73.9898 20.1953 73.5661 20.1043C73.1447 20.0133 72.9317 19.7835 72.9317 19.4148C72.9317 19.2592 73.0514 19.0677 73.2932 18.8426C73.5326 18.6176 74.1598 18.462 75.1725 18.3734H75.5148C76.6951 18.3734 77.6551 18.0765 78.3996 17.4804C79.1442 16.8843 79.5153 16.1326 79.5153 15.2205C79.5153 14.3083 79.2495 13.5614 78.718 12.982C78.1866 12.4027 77.4253 12.0412 76.4341 11.8999V11.864C77.1954 11.8688 77.9639 11.9263 78.742 12.0388Z" fill="#151515"/>
    <path d="M91.1764 21.2133C91.0304 21.2133 90.8891 21.1942 90.755 21.1535C90.621 21.1128 90.5132 21.0002 90.4295 20.8111C90.3457 20.6244 90.305 20.0618 90.305 19.1257V11.9628C90.305 11.9125 90.2547 11.8742 90.1565 11.8431C90.0584 11.8119 89.9961 11.8095 89.9698 11.8335C89.1032 12.2836 88.3395 12.5661 87.6811 12.6834C87.6021 12.6929 87.5614 12.7241 87.5614 12.7743C87.5614 12.8246 87.6404 12.8366 87.8008 12.8126C87.9588 12.7887 88.1144 12.7719 88.2629 12.7624C88.4137 12.7528 88.5525 12.8103 88.6842 12.9347C88.8159 13.0568 88.8805 13.4997 88.8805 14.2634V19.2885C88.4233 19.8918 87.978 20.3299 87.5446 20.6004C87.1089 20.871 86.5799 21.0074 85.9574 21.0074C85.335 21.0074 84.8131 20.7632 84.3941 20.2725C83.9751 19.7841 83.7645 19.0012 83.7645 17.9239V11.9628C83.7645 11.9125 83.7142 11.8742 83.6136 11.8431C83.5131 11.8119 83.4509 11.8095 83.4269 11.8335C82.5938 12.2716 81.8229 12.5541 81.1143 12.6834C81.0401 12.6953 81.0042 12.7241 81.0042 12.7743C81.0042 12.8246 81.0855 12.839 81.2483 12.815C81.4111 12.7935 81.5667 12.7767 81.7176 12.7648C81.866 12.7528 82.0096 12.8103 82.1437 12.9323C82.2778 13.0544 82.3448 13.4949 82.3448 14.2515V17.7324C82.3448 19.1113 82.6105 20.0953 83.1396 20.6818C83.6687 21.2684 84.4156 21.5628 85.3757 21.5628C86.6828 21.5628 87.8511 20.8758 88.8805 19.504C88.8685 20.0331 88.8326 20.4664 88.7752 20.8015C88.7177 21.1367 88.6866 21.3354 88.6866 21.3976C88.6866 21.4599 88.6938 21.5054 88.7105 21.5365C88.7249 21.5676 88.8207 21.5724 88.993 21.5557C89.1654 21.5365 89.4455 21.503 89.8333 21.4551C90.2212 21.4048 90.7096 21.3809 91.3009 21.3809C91.3631 21.3809 91.3943 21.3522 91.3943 21.2971C91.3966 21.242 91.3224 21.2133 91.1764 21.2133Z" fill="#151515"/>
    <path d="M131.016 21.2133C130.869 21.2133 130.728 21.1942 130.594 21.1535C130.46 21.1128 130.352 21.0002 130.269 20.8111C130.187 20.6244 130.144 20.0618 130.144 19.1257V11.9628C130.144 11.9125 130.094 11.8742 129.996 11.8431C129.897 11.8119 129.835 11.8095 129.809 11.8335C128.942 12.2836 128.179 12.5661 127.52 12.6834C127.441 12.6929 127.401 12.7241 127.401 12.7743C127.401 12.8246 127.48 12.8366 127.64 12.8126C127.798 12.7887 127.954 12.7719 128.102 12.7624C128.253 12.7528 128.392 12.8103 128.523 12.9347C128.655 13.0568 128.72 13.4997 128.72 14.2634V19.2885C128.262 19.8918 127.817 20.3299 127.384 20.6004C126.948 20.871 126.421 21.0074 125.797 21.0074C125.174 21.0074 124.652 20.7632 124.233 20.2725C123.814 19.7841 123.604 19.0012 123.604 17.9239V11.9628C123.604 11.9125 123.553 11.8742 123.453 11.8431C123.352 11.8119 123.29 11.8095 123.266 11.8335C122.433 12.2716 121.662 12.5541 120.953 12.6834C120.879 12.6953 120.843 12.7241 120.843 12.7743C120.843 12.8246 120.925 12.839 121.087 12.815C121.25 12.7935 121.406 12.7767 121.557 12.7648C121.705 12.7528 121.849 12.8103 121.983 12.9323C122.117 13.0544 122.184 13.4949 122.184 14.2515V17.7324C122.184 19.1113 122.45 20.0953 122.979 20.6818C123.508 21.2684 124.255 21.5628 125.215 21.5628C126.522 21.5628 127.69 20.8758 128.72 19.504C128.708 20.0331 128.672 20.4664 128.614 20.8015C128.557 21.1367 128.526 21.3354 128.526 21.3976C128.526 21.4599 128.533 21.5054 128.55 21.5365C128.564 21.5676 128.66 21.5724 128.832 21.5557C129.005 21.5365 129.285 21.503 129.672 21.4551C130.06 21.4048 130.549 21.3809 131.14 21.3809C131.202 21.3809 131.233 21.3522 131.233 21.2971C131.233 21.242 131.162 21.2133 131.016 21.2133Z" fill="#151515"/>
    <path d="M98.4155 16.8328C98.1115 16.6221 97.7619 16.4402 97.3669 16.2893C96.9719 16.1385 96.5841 15.9973 96.2034 15.8608C95.8228 15.7267 95.2267 15.5017 94.4223 15.1881C93.6155 14.8745 93.2133 14.3286 93.2133 13.5482C93.2133 13.0574 93.4527 12.66 93.9339 12.3583C94.4151 12.0567 95.0447 11.9059 95.8276 11.9059C96.936 11.9059 97.7164 12.2243 98.1689 12.8563C98.6214 13.4907 98.8464 14.3765 98.8464 15.5161C98.8464 15.5903 98.8728 15.6262 98.9254 15.6262C98.9781 15.6262 99.0044 15.5903 99.0044 15.5161L99.0954 12.2099C99.0954 12.1165 99.0523 12.0663 98.9661 12.0519C98.6884 12.016 98.3341 11.9537 97.9032 11.8676C97.4723 11.7814 96.7923 11.7383 95.8635 11.7383C94.9346 11.7383 94.1086 11.9825 93.388 12.4709C92.6674 12.9592 92.3083 13.6679 92.3083 14.5944C92.3083 15.5232 92.7392 16.1577 93.6011 16.5024C94.463 16.8471 95.2602 17.1416 95.9927 17.3882C96.7325 17.6348 97.3358 17.9053 97.8074 18.1998C98.279 18.4942 98.5137 18.9156 98.5137 19.4614C98.5137 20.7518 97.6925 21.3958 96.0478 21.3958C94.7431 21.3958 93.8309 21.0583 93.309 20.3831C92.7895 19.708 92.5286 18.669 92.5286 17.2685C92.5286 17.1775 92.5046 17.132 92.4544 17.1344C92.4041 17.1368 92.3801 17.1823 92.3801 17.2685C92.3801 18.7863 92.361 19.7056 92.3251 20.0288C92.2892 20.352 92.27 20.5747 92.27 20.6968C92.27 20.8188 92.3131 20.8835 92.3993 20.8907C92.5908 20.9386 92.9739 21.0654 93.5484 21.2641C94.123 21.4628 94.9226 21.5634 95.9449 21.5634C96.9719 21.5634 97.8122 21.2881 98.461 20.7375C99.1098 20.1868 99.4354 19.6003 99.4354 18.9778C99.4354 18.3554 99.342 17.8933 99.1529 17.5965C98.9661 17.2996 98.7219 17.0459 98.4155 16.8328Z" fill="#151515"/>
    <path d="M120.853 21.2134C120.728 21.2134 120.614 21.2038 120.506 21.1823C120.398 21.1608 120.29 21.077 120.183 20.9285C120.075 20.7801 120.022 20.3133 120.022 19.5256V15.5731C120.022 13.0186 118.988 11.7402 116.922 11.7402C116.189 11.7402 115.545 11.9246 114.985 12.2909C114.425 12.6571 113.908 13.1599 113.427 13.8015C113.403 13.4065 113.312 13.0402 113.151 12.7026C112.993 12.3651 112.826 12.1065 112.646 11.927C112.596 11.8911 112.56 11.8839 112.534 11.9078C112.21 12.2286 111.748 12.492 111.145 12.7026C111.095 12.7266 111.095 12.7649 111.145 12.8128C111.361 13.0163 111.562 13.2365 111.746 13.4783C111.93 13.7177 112.024 13.9763 112.024 14.254V19.1306C112.024 20.0595 111.981 20.6412 111.894 20.8711C111.808 21.1009 111.6 21.2182 111.267 21.2182C111.131 21.2182 111.061 21.2469 111.059 21.302C111.057 21.3571 111.092 21.3858 111.164 21.3858L112.981 21.3571L113.743 21.3666L114.269 21.3858H114.435C114.509 21.3858 114.545 21.3571 114.545 21.302C114.545 21.2469 114.509 21.2182 114.435 21.2182H113.446V14.0217C113.889 13.4304 114.327 12.9971 114.76 12.7194C115.193 12.4417 115.72 12.3028 116.34 12.3028C116.967 12.3028 117.497 12.5494 117.93 13.0426C118.363 13.5358 118.579 14.3162 118.579 15.3887L118.598 19.4155C118.598 20.2103 118.533 20.7083 118.404 20.9118C118.275 21.1153 118.042 21.2158 117.702 21.2158C117.568 21.2158 117.501 21.2445 117.504 21.2996C117.506 21.3547 117.544 21.3834 117.619 21.3834L119.278 21.3547L120.108 21.3642L120.726 21.3834H120.92C120.994 21.3834 121.03 21.3547 121.03 21.2996C121.037 21.2422 120.975 21.2134 120.853 21.2134Z" fill="#151515"/>
    <path d="M110.032 21.2128C109.859 21.2128 109.699 21.1889 109.551 21.1434C109.402 21.0979 109.282 20.9878 109.187 20.8154C109.091 20.6431 109.043 20.1379 109.043 19.3024V11.8641C109.043 11.8139 108.993 11.7756 108.892 11.7444C108.792 11.7133 108.729 11.7109 108.703 11.7349C107.88 12.2927 107.092 12.6494 106.343 12.8026C106.268 12.8289 106.242 12.8696 106.264 12.9247C106.285 12.9798 106.333 12.9941 106.407 12.9702C106.893 12.8481 107.216 12.8577 107.379 13.0037C107.54 13.1473 107.621 13.5615 107.621 14.2462V19.3024C107.621 20.1283 107.561 20.655 107.441 20.8777C107.322 21.1027 107.042 21.2152 106.606 21.2152C106.434 21.2152 106.35 21.244 106.352 21.299C106.355 21.3541 106.393 21.3828 106.467 21.3828L108.366 21.3541L109.23 21.3637L109.931 21.3828H110.18C110.254 21.3828 110.29 21.3541 110.29 21.299C110.29 21.2416 110.204 21.2128 110.032 21.2128Z" fill="#151515"/>
</svg>