<?xml version="1.0" standalone="no"?>
<!DOCTYPE svg PUBLIC "-//W3C//DTD SVG 1.1//EN" "http://www.w3.org/Graphics/SVG/1.1/DTD/svg11.dtd">
<svg xmlns="http://www.w3.org/2000/svg" id="Layer_1" data-name="Layer 1" viewBox="0 0 79.67 20.43" width="79.66999816894531" height="20.43000030517578">
  <defs>
    <style>
      .cls-1 {
        fill: #fff;
        stroke-width: 0px;
      }
    </style>
  </defs>
  <path class="cls-1" d="m.02.51C.02.23.28,0,.56,0h.72l12.42,14.23V.82c0-.28.23-.54.54-.54h1.83c.28,0,.54.26.54.54v19.09c0,.28-.26.51-.54.51h-.74L2.92,5.78h-.04v13.81c0,.28-.23.54-.54.54H.54c-.28,0-.54-.26-.54-.54V.51h.02Z"/>
  <path class="cls-1" d="m25.05.82c0-.28.26-.54.54-.54h1.88c.28,0,.54.26.54.54v18.78c0,.28-.26.54-.54.54h-1.88c-.28,0-.54-.26-.54-.54V.82Z"/>
  <path class="cls-1" d="m45.26,0c5.73,0,10.3,4.56,10.3,10.24s-4.59,10.19-10.3,10.19-10.28-4.51-10.28-10.19S39.53,0,45.26,0Zm0,17.58c4.09,0,7.43-3.29,7.43-7.35s-3.36-7.4-7.43-7.4-7.42,3.38-7.42,7.4,3.36,7.35,7.42,7.35Z"/>
  <path class="cls-1" d="m62.52.82c0-.28.23-.54.51-.54h6.59c5.52,0,10.05,4.46,10.05,9.89s-4.52,9.96-10.05,9.96h-6.59c-.28,0-.51-.26-.51-.54V.82Zm6.7,16.62c4.2,0,7.28-3.07,7.28-7.26s-3.06-7.21-7.28-7.21h-3.78v14.46h3.78v.02Z"/>
</svg>