<?xml version="1.0" encoding="utf-8"?>
<svg xml:space="preserve" viewBox="0 0 100 100" y="0" x="0" xmlns="http://www.w3.org/2000/svg" id="圖層_1" version="1.1" style="height: 100%; width: 100%; background: none; shape-rendering: auto;" width="200px" height="200px"><g class="ldl-scale" style="transform-origin: 50% 50%; transform: rotate(0deg) scale(0.8, 0.8);"><g class="ldl-ani"><g class="ldl-layer"><g class="ldl-ani" style="transform: scale(0.91); transform-origin: 50px 50px; animation: 1.11111s linear -0.740741s infinite normal forwards running breath-f8de8abf-b6cc-4d73-80db-2e4fc3c322fd;"><path d="M22.2 84.9c-8.1 0-14.7-6.6-14.7-14.7v-9.7c0-8.1 6.6-14.7 14.7-14.7v39.1z" style="fill: rgb(255, 255, 255);"></path></g></g><g class="ldl-layer"><g class="ldl-ani" style="transform: scale(0.91); transform-origin: 50px 50px; animation: 1.11111s linear -0.925926s infinite normal forwards running breath-f8de8abf-b6cc-4d73-80db-2e4fc3c322fd;"><path d="M77.8 84.9v-39c8.1 0 14.7 6.6 14.7 14.7v9.7c0 8.1-6.6 14.6-14.7 14.6z" style="fill: rgb(255, 255, 255);"></path></g></g><g class="ldl-layer"><g class="ldl-ani" style="transform: scale(0.91); transform-origin: 50px 50px; animation: 1.11111s linear -1.11111s infinite normal forwards running breath-f8de8abf-b6cc-4d73-80db-2e4fc3c322fd;"><path d="M26.6 80.1V45.9c0-13.1 10.7-24.2 23.8-24 12.7.2 23 10.6 23 23.4v34.8c0 2.7 2.2 4.9 4.9 4.9V46c0-15.4-12.1-28.5-27.5-28.9-16-.5-29.2 12.4-29.2 28.3V85c2.8-.1 5-2.3 5-4.9z" style="fill: rgb(255, 255, 255);"></path></g></g><metadata xmlns:d="https://loading.io/stock/"><d:name>headset</d:name><d:tags>earphone,earbud,music,listen,radio,headphone,headset,web application</d:tags><d:license>pro</d:license><d:slug>6et4m5</d:slug></metadata></g></g><style id="breath-f8de8abf-b6cc-4d73-80db-2e4fc3c322fd" data-anikit="">@keyframes breath-f8de8abf-b6cc-4d73-80db-2e4fc3c322fd
{
  0% {
    animation-timing-function: cubic-bezier(0.9647,0.2413,-0.0705,0.7911);
    transform: scale(0.9099999999999999);
  }
  51% {
    animation-timing-function: cubic-bezier(0.9226,0.2631,-0.0308,0.7628);
    transform: scale(1.02994);
  }
  100% {
    transform: scale(0.9099999999999999);
  }
}</style><!-- [ldio] generated by https://loading.io/ --></svg>