<?xml version="1.0" encoding="utf-8"?>
<svg xml:space="preserve" viewBox="0 0 100 100" y="0" x="0" xmlns="http://www.w3.org/2000/svg" id="圖層_1" version="1.1" style="height: 100%; width: 100%; background: none; shape-rendering: auto;" width="200px" height="200px"><g class="ldl-scale" style="transform-origin: 50% 50%; transform: rotate(0deg) scale(0.8, 0.8);"><g class="ldl-ani"><g class="ldl-layer"><g class="ldl-ani" style="transform-origin: 50px 50px; transform: translateY(78.4752px) skewY(-30deg); opacity: 0; animation: 1.11111s linear 0.37037s 1 normal forwards running rush-btt-in-03ebdf40-a3e2-4a87-a4eb-e67dbe57c29b;"><path d="M22.2 84.9c-8.1 0-14.7-6.6-14.7-14.7v-9.7c0-8.1 6.6-14.7 14.7-14.7v39.1z" style="fill: rgb(255, 255, 255);"></path></g></g><g class="ldl-layer"><g class="ldl-ani" style="transform-origin: 50px 50px; transform: translateY(78.4752px) skewY(-30deg); opacity: 0; animation: 1.11111s linear 0.185185s 1 normal forwards running rush-btt-in-03ebdf40-a3e2-4a87-a4eb-e67dbe57c29b;"><path d="M77.8 84.9v-39c8.1 0 14.7 6.6 14.7 14.7v9.7c0 8.1-6.6 14.6-14.7 14.6z" style="fill: rgb(255, 255, 255);"></path></g></g><g class="ldl-layer"><g class="ldl-ani" style="transform-origin: 50px 50px; transform: translateY(78.4752px) skewY(-30deg); opacity: 0; animation: 1.11111s linear 0s 1 normal forwards running rush-btt-in-03ebdf40-a3e2-4a87-a4eb-e67dbe57c29b;"><path d="M26.6 80.1V45.9c0-13.1 10.7-24.2 23.8-24 12.7.2 23 10.6 23 23.4v34.8c0 2.7 2.2 4.9 4.9 4.9V46c0-15.4-12.1-28.5-27.5-28.9-16-.5-29.2 12.4-29.2 28.3V85c2.8-.1 5-2.3 5-4.9z" style="fill: rgb(255, 255, 255);"></path></g></g><metadata xmlns:d="https://loading.io/stock/"><d:name>headset</d:name><d:tags>earphone,earbud,music,listen,radio,headphone,headset,web application</d:tags><d:license>pro</d:license><d:slug>6et4m5</d:slug></metadata></g></g><style id="rush-btt-in-03ebdf40-a3e2-4a87-a4eb-e67dbe57c29b" data-anikit="">@keyframes rush-btt-in-03ebdf40-a3e2-4a87-a4eb-e67dbe57c29b {
  0% { animation-timing-function: cubic-bezier(0,0.5,0.5,1); opacity: 0 }
  5% { opacity: 1}
  0% { transform: translateY(78.47520861406802px) skewY(-30deg); }
30% { transform: translateY(-2.5743741577959263px) skewY(15deg); }
40% { transform: translateY(-8.574374157795926px) skewY(15deg); }
55.00000000000001% { transform: translateY(4.212879922796667px) skewY(-7.5deg); }
70% { transform: translateY(-2.097390810087623px) skewY(3.75deg); }
80% { transform: translateY(0px) skewY(0deg); }
100% { transform: translateY(0px) skewY(0deg); }

  100% { opacity: 1}
}</style><!-- [ldio] generated by https://loading.io/ --></svg>