<?xml version="1.0" encoding="utf-8"?><svg xml:space="preserve" viewBox="0 0 100 100" y="0" x="0" xmlns="http://www.w3.org/2000/svg" id="圖層_1" version="1.1" width="200px" height="200px" xmlns:xlink="http://www.w3.org/1999/xlink" style="width:100%;height:100%;background-size:initial;background-repeat:initial;background-position-y:initial;background-position-x:initial;background-origin:initial;background-color:initial;background-clip:initial;background-attachment:initial;animation-play-state:paused" ><g class="ldl-scale" style="transform-origin:50% 50%;transform:rotate(0deg) scale(0.8, 0.8);animation-play-state:paused" ><path d="M22.2 84.9c-8.1 0-14.7-6.6-14.7-14.7v-9.7c0-8.1 6.6-14.7 14.7-14.7v39.1z" style="animation-play-state:paused" ></path>
<path d="M77.8 84.9v-39c8.1 0 14.7 6.6 14.7 14.7v9.7c0 8.1-6.6 14.6-14.7 14.6z" style="animation-play-state:paused" ></path>
<path d="M26.6 80.1V45.9c0-13.1 10.7-24.2 23.8-24 12.7.2 23 10.6 23 23.4v34.8c0 2.7 2.2 4.9 4.9 4.9V46c0-15.4-12.1-28.5-27.5-28.9-16-.5-29.2 12.4-29.2 28.3V85c2.8-.1 5-2.3 5-4.9z" style="animation-play-state:paused" ></path>
<metadata xmlns:d="https://loading.io/stock/" style="animation-play-state:paused" ><d:name style="animation-play-state:paused" >headset</d:name>
<d:tags style="animation-play-state:paused" >earphone,earbud,music,listen,radio,headphone,headset,web application</d:tags>
<d:license style="animation-play-state:paused" >pro</d:license>
<d:slug style="animation-play-state:paused" >6et4m5</d:slug></metadata></g><!-- generated by https://loading.io/ --></svg>