<?xml version="1.0" encoding="utf-8"?><svg xml:space="preserve" viewBox="0 0 100 100" y="0" x="0" xmlns="http://www.w3.org/2000/svg" id="圖層_1" version="1.1" width="200px" height="200px" xmlns:xlink="http://www.w3.org/1999/xlink" style="width:100%;height:100%;background-size:initial;background-repeat:initial;background-position-y:initial;background-position-x:initial;background-origin:initial;background-color:initial;background-clip:initial;background-attachment:initial;animation-play-state:paused" ><g class="ldl-scale" style="transform-origin:50% 50%;transform:rotate(0deg) scale(0.8, 0.8);animation-play-state:paused" ><path stroke="#333" fill="none" stroke-miterlimit="10" stroke-width="3.5" d="M73.7 25.4v28c0 7.4-6.7 13.4-14.9 13.4H41.6c-8.2 0-14.9-6-14.9-13.4v-28" style="stroke:rgb(0, 0, 0);animation-play-state:paused" ></path>
<path d="M46.7 48.1h7v39.5h-7z" stroke="#333" fill="#e0e0e0" stroke-miterlimit="10" stroke-width="3.5" style="stroke:rgb(0, 0, 0);fill:rgb(0, 0, 0);animation-play-state:paused" ></path>
<path stroke="#333" fill="#e0e0e0" stroke-miterlimit="10" stroke-width="3.5" d="M55.2 58.4H45.1c-5.5 0-9.9-4.4-9.9-9.9v-30c0-5.5 4.4-9.9 9.9-9.9h10.1c5.5 0 9.9 4.4 9.9 9.9v30c.1 5.5-4.4 9.9-9.9 9.9z" style="stroke:rgb(0, 0, 0);fill:rgb(0, 0, 0);animation-play-state:paused" ></path>
<path stroke-miterlimit="10" stroke-width="3.5" stroke="#333" fill="#666" d="M67.8 91.4H32.6v-3c0-2.5 2-4.5 4.5-4.5h26.1c2.5 0 4.5 2 4.5 4.5v3z" style="stroke:rgb(0, 0, 0);fill:rgb(0, 0, 0);animation-play-state:paused" ></path>
<g style="animation-play-state:paused" ><path d="M35.2 21.8h8.1" stroke-miterlimit="10" stroke-linecap="round" stroke-width="3.5" stroke="#333" fill="none" style="stroke:rgb(0, 0, 0);animation-play-state:paused" ></path>
<path d="M35.2 27.9h8.1" stroke-miterlimit="10" stroke-linecap="round" stroke-width="3.5" stroke="#333" fill="none" style="stroke:rgb(0, 0, 0);animation-play-state:paused" ></path>
<path d="M35.2 34h8.1" stroke-miterlimit="10" stroke-linecap="round" stroke-width="3.5" stroke="#333" fill="none" style="stroke:rgb(0, 0, 0);animation-play-state:paused" ></path>
<path d="M35.2 40.1h8.1" stroke-miterlimit="10" stroke-linecap="round" stroke-width="3.5" stroke="#333" fill="none" style="stroke:rgb(0, 0, 0);animation-play-state:paused" ></path>
<path d="M35.2 46.2h8.1" stroke-miterlimit="10" stroke-linecap="round" stroke-width="3.5" stroke="#333" fill="none" style="stroke:rgb(0, 0, 0);animation-play-state:paused" ></path></g>
<g style="animation-play-state:paused" ><path d="M64.8 21.8h-8.1" stroke-miterlimit="10" stroke-linecap="round" stroke-width="3.5" stroke="#333" fill="none" style="stroke:rgb(0, 0, 0);animation-play-state:paused" ></path>
<path d="M64.8 27.9h-8.1" stroke-miterlimit="10" stroke-linecap="round" stroke-width="3.5" stroke="#333" fill="none" style="stroke:rgb(0, 0, 0);animation-play-state:paused" ></path>
<path d="M64.8 34h-8.1" stroke-miterlimit="10" stroke-linecap="round" stroke-width="3.5" stroke="#333" fill="none" style="stroke:rgb(0, 0, 0);animation-play-state:paused" ></path>
<path d="M64.8 40.1h-8.1" stroke-miterlimit="10" stroke-linecap="round" stroke-width="3.5" stroke="#333" fill="none" style="stroke:rgb(0, 0, 0);animation-play-state:paused" ></path>
<path d="M64.8 46.2h-8.1" stroke-miterlimit="10" stroke-linecap="round" stroke-width="3.5" stroke="#333" fill="none" style="stroke:rgb(0, 0, 0);animation-play-state:paused" ></path></g>
<path d="M50.2 14.8v37" stroke-miterlimit="10" stroke-linecap="round" stroke-width="3.5" stroke="#333" fill="none" style="stroke:rgb(0, 0, 0);animation-play-state:paused" ></path>
<path d="M65.2 32.3h14.1" stroke="#333" fill="none" stroke-miterlimit="10" stroke-width="3.5" style="stroke:rgb(0, 0, 0);animation-play-state:paused" ></path>
<path d="M34.8 32.3H20.7" stroke="#333" fill="none" stroke-miterlimit="10" stroke-width="3.5" style="stroke:rgb(0, 0, 0);animation-play-state:paused" ></path>
<path stroke-miterlimit="10" stroke-width="3.5" stroke="#333" fill="#333" d="M78.7 26.9v10.8c3 0 5.4-2.4 5.4-5.4.1-3-2.4-5.4-5.4-5.4z" style="stroke:rgb(0, 0, 0);fill:rgb(0, 0, 0);animation-play-state:paused" ></path>
<path stroke-miterlimit="10" stroke-width="3.5" stroke="#333" fill="#333" d="M21.3 26.9v10.8c-3 0-5.4-2.4-5.4-5.4-.1-3 2.4-5.4 5.4-5.4z" style="stroke:rgb(0, 0, 0);fill:rgb(0, 0, 0);animation-play-state:paused" ></path>
<metadata xmlns:d="https://loading.io/stock/" style="animation-play-state:paused" ><d:name style="animation-play-state:paused" >mic</d:name>
<d:tags style="animation-play-state:paused" >mic,micphone,speaker,receiver,talk,speech,lecture,onlive,broadcast</d:tags>
<d:license style="animation-play-state:paused" >by</d:license>
<d:slug style="animation-play-state:paused" >dac1qd</d:slug></metadata></g><!-- generated by https://loading.io/ --></svg>