<?xml version="1.0" encoding="utf-8"?><svg xml:space="preserve" viewBox="0 0 100 100" y="0" x="0" xmlns="http://www.w3.org/2000/svg" id="Layer_1" version="1.1" width="200px" height="200px" xmlns:xlink="http://www.w3.org/1999/xlink" style="width:100%;height:100%;background-size:initial;background-repeat:initial;background-position-y:initial;background-position-x:initial;background-origin:initial;background-color:initial;background-clip:initial;background-attachment:initial;animation-play-state:paused" ><g class="ldl-scale" style="transform-origin:50% 50%;transform:rotate(0deg) scale(0.8, 0.8);animation-play-state:paused" ><circle fill="#333" r="40" cy="50" cx="50" style="fill:rgb(0, 0, 0);animation-play-state:paused" ></circle>
<path fill="#0000" d="M70.822 50.811a6.426 6.426 0 0 0 1.456-4.078 6.465 6.465 0 0 0-6.457-6.458c-.8 0-1.562.153-2.27.42a6.517 6.517 0 0 0-.64-.432 6.428 6.428 0 0 0 1.456-4.079 6.465 6.465 0 0 0-6.458-6.457 6.464 6.464 0 0 0-6.457 6.457c0 1.546.547 2.966 1.456 4.079a6.291 6.291 0 0 0-.64.432c-.707-.267-1.47-.42-2.27-.42s-1.562.153-2.27.42a6.517 6.517 0 0 0-.64-.432 6.428 6.428 0 0 0 1.456-4.079 6.465 6.465 0 0 0-6.457-6.457 6.465 6.465 0 0 0-6.458 6.457c0 1.546.547 2.966 1.456 4.079a6.291 6.291 0 0 0-.64.432 6.408 6.408 0 0 0-2.27-.42 6.464 6.464 0 0 0-6.457 6.458c0 1.545.547 2.965 1.456 4.078A6.44 6.44 0 0 0 26 56.353v9.919h48v-9.919c0-2.36-1.28-4.421-3.178-5.542zM27.21 56.353a5.23 5.23 0 0 1 2.851-4.651 6.422 6.422 0 0 0 3.85 1.474c.09.004.178.014.268.014.114 0 .225-.011.337-.017a6.43 6.43 0 0 0 3.781-1.471 5.253 5.253 0 0 1 2.852 4.651v8.709H27.21v-8.709zm6.969-14.867c.437 0 .859.059 1.264.16.216.054.427.12.632.2.199.077.394.163.581.263a5.25 5.25 0 0 1 2.771 4.624c0 1.368-.53 2.611-1.391 3.546a5.245 5.245 0 0 1-.491.475 5.209 5.209 0 0 1-.656.464 5.23 5.23 0 0 1-1.767.673c-.198.036-.4.059-.605.072-.112.007-.223.017-.337.017-.091 0-.179-.009-.268-.014a5.207 5.207 0 0 1-2.441-.748 5.209 5.209 0 0 1-.656-.464 5.245 5.245 0 0 1-.491-.475 5.218 5.218 0 0 1-1.391-3.546 5.25 5.25 0 0 1 5.246-5.247zm3.793-.331a6.431 6.431 0 0 0 4.118 1.488 6.426 6.426 0 0 0 4.118-1.488c.098.051.194.105.289.162a6.454 6.454 0 0 0-2.954 5.417c0 1.545.547 2.965 1.456 4.078a6.461 6.461 0 0 0-2.907 3.703h-.006a6.458 6.458 0 0 0-2.907-3.703 6.426 6.426 0 0 0 1.456-4.078 6.454 6.454 0 0 0-2.954-5.417c.096-.057.192-.111.291-.162zm9.365-4.97a5.225 5.225 0 0 1-1.391 3.547 5.245 5.245 0 0 1-.491.475 5.32 5.32 0 0 1-.656.465 5.21 5.21 0 0 1-2.709.762 5.21 5.21 0 0 1-2.709-.762 5.216 5.216 0 0 1-.656-.465 5.12 5.12 0 0 1-.491-.475 5.22 5.22 0 0 1-1.391-3.547 5.253 5.253 0 0 1 5.248-5.247 5.253 5.253 0 0 1 5.246 5.247zM50 41.486c.437 0 .859.059 1.264.16.216.054.427.12.632.2.199.077.394.163.581.263a5.25 5.25 0 0 1 2.771 4.624c0 1.368-.53 2.611-1.391 3.546a5.245 5.245 0 0 1-.491.475 5.209 5.209 0 0 1-.656.464 5.23 5.23 0 0 1-1.767.673c-.198.036-.4.059-.605.072l-.069.003c-.09.005-.178.014-.269.014s-.179-.009-.268-.014l-.069-.003a5.188 5.188 0 0 1-2.372-.745 5.209 5.209 0 0 1-.656-.464 5.245 5.245 0 0 1-.491-.475 5.218 5.218 0 0 1-1.391-3.546 5.25 5.25 0 0 1 2.771-4.624c.187-.1.381-.186.581-.263.205-.08.416-.146.632-.2.404-.101.826-.16 1.263-.16zm3.793-.331a6.431 6.431 0 0 0 4.118 1.488 6.426 6.426 0 0 0 4.118-1.488c.098.051.194.105.289.162a6.454 6.454 0 0 0-2.954 5.417c0 1.545.547 2.965 1.456 4.078a6.461 6.461 0 0 0-2.907 3.703h-.006A6.458 6.458 0 0 0 55 50.812a6.426 6.426 0 0 0 1.456-4.078 6.454 6.454 0 0 0-2.954-5.417 5.95 5.95 0 0 1 .291-.162zm4.117-10.217a5.253 5.253 0 0 1 5.248 5.247 5.225 5.225 0 0 1-1.391 3.547 5.245 5.245 0 0 1-.491.475 5.32 5.32 0 0 1-.656.465 5.21 5.21 0 0 1-2.709.762 5.21 5.21 0 0 1-2.709-.762 5.216 5.216 0 0 1-.656-.465 5.245 5.245 0 0 1-.491-.475 5.22 5.22 0 0 1-1.391-3.547 5.252 5.252 0 0 1 5.246-5.247zm13.159 15.795c0 1.368-.53 2.611-1.391 3.546a5.245 5.245 0 0 1-.491.475 5.209 5.209 0 0 1-.656.464c-.72.436-1.55.703-2.441.748-.09.005-.178.014-.269.014-.114 0-.225-.01-.337-.017a5.188 5.188 0 0 1-2.372-.745 5.209 5.209 0 0 1-.656-.464 5.245 5.245 0 0 1-.491-.475 5.218 5.218 0 0 1-1.391-3.546 5.25 5.25 0 0 1 2.771-4.624c.187-.1.381-.186.581-.263.205-.08.416-.146.632-.2.406-.101.828-.16 1.264-.16a5.253 5.253 0 0 1 5.247 5.247zm-14.142 8.992c.025.207.042.416.042.629v8.709H43.031v-8.709a5.231 5.231 0 0 1 .154-1.234 5.246 5.246 0 0 1 2.698-3.417 6.43 6.43 0 0 0 3.781 1.471l.069.003c.09.004.178.014.268.014s.179-.01.268-.014l.069-.003a6.43 6.43 0 0 0 3.781-1.471 5.253 5.253 0 0 1 2.698 3.417c.047.197.085.399.11.605zm15.863 9.337H58.853v-8.709a5.231 5.231 0 0 1 .154-1.234 5.246 5.246 0 0 1 2.698-3.417 6.43 6.43 0 0 0 3.781 1.471c.112.006.223.017.337.017.091 0 .179-.01.268-.014a6.428 6.428 0 0 0 3.85-1.474 5.229 5.229 0 0 1 2.851 4.651v8.709z" style="fill:rgb(255, 255, 255);animation-play-state:paused" ></path>
<metadata xmlns:d="https://loading.io/stock/" style="animation-play-state:paused" ><d:name style="animation-play-state:paused" >crowdsourcing</d:name>


<d:tags style="animation-play-state:paused" >crowdsourcing,collaboration,cowork,crowd,participate,grassroot,together,people,citizen</d:tags>


<d:license style="animation-play-state:paused" >by</d:license>


<d:slug style="animation-play-state:paused" >4b7he</d:slug></metadata></g><!-- generated by https://loading.io/ --></svg>