<svg xmlns="http://www.w3.org/2000/svg" xmlns:xlink="http://www.w3.org/1999/xlink" width="1080" zoomAndPan="magnify" viewBox="0 0 810 809.999993" height="1080" preserveAspectRatio="xMidYMid meet" version="1.0"><path fill="#ffffff" d="M 144.585938 480.285156 C 144.585938 507.941406 115.742188 512.542969 97.007812 512.542969 C 85.3125 512.542969 76.230469 510.738281 68.171875 508.535156 L 54.054688 511.332031 L 50.21875 511.332031 L 50.21875 469.257812 L 54.253906 469.257812 L 91.957031 507.136719 C 92.761719 507.941406 93.976562 508.128906 94.582031 508.128906 C 105.878906 508.128906 108.292969 502.519531 108.292969 496.507812 C 108.292969 487.5 102.847656 481.683594 94.988281 478.875 L 80.066406 473.070312 C 61.304688 465.855469 48.609375 456.226562 48.609375 438.199219 C 48.609375 412.753906 74.015625 405.144531 94.582031 405.144531 C 103.652344 405.144531 113.539062 406.542969 122.609375 408.957031 L 136.730469 406.148438 L 140.554688 406.148438 L 140.554688 446.625 L 136.53125 446.625 L 98.617188 409.761719 C 98.007812 409.167969 97.203125 408.96875 96.191406 408.96875 C 86.511719 408.96875 83.480469 415.578125 83.480469 422.988281 C 83.480469 431.8125 87.910156 435.808594 99.605469 440.425781 L 114.527344 446.03125 C 132.484375 453.046875 144.585938 462.453125 144.585938 480.285156 " fill-opacity="1" fill-rule="nonzero"/><path fill="#ffffff" d="M 235.726562 475.273438 C 232.90625 495.503906 221.816406 512.542969 200.039062 512.542969 C 181.289062 512.542969 165.351562 500.320312 165.351562 475.867188 L 165.351562 411.964844 L 154.460938 411.964844 L 154.460938 407.953125 L 165.351562 407.953125 L 201.84375 375.496094 L 206.273438 375.496094 L 206.273438 407.953125 L 234.5 407.953125 L 234.5 411.964844 L 206.273438 411.964844 L 206.273438 477.871094 C 206.273438 486.285156 210.707031 491.902344 217.574219 491.902344 C 224.835938 491.902344 229.265625 486.285156 232.089844 474.664062 Z M 235.726562 475.273438 " fill-opacity="1" fill-rule="nonzero"/><path fill="#ffffff" d="M 345.414062 407.757812 L 345.414062 451.835938 L 340.972656 451.835938 L 310.320312 425.191406 C 304.070312 428.59375 298.835938 442.429688 298.835938 457.652344 L 298.835938 492.3125 L 319.800781 505.539062 L 319.800781 509.539062 L 244.191406 509.539062 L 244.191406 505.539062 L 257.902344 492.3125 L 257.902344 425.191406 L 244.191406 411.976562 L 244.191406 407.964844 L 298.835938 407.964844 L 298.835938 434.410156 L 299.640625 434.410156 C 303.476562 418.78125 312.957031 406.160156 332.3125 406.160156 C 337.347656 406.148438 342.398438 406.753906 345.414062 407.757812 " fill-opacity="1" fill-rule="nonzero"/><path fill="#ffffff" d="M 476.289062 495.515625 C 470.636719 508.746094 459.757812 512.558594 448.261719 512.558594 C 439.996094 512.558594 426.085938 509.351562 422.039062 492.113281 L 420.234375 492.113281 C 418.425781 501.332031 411.359375 512.558594 391.796875 512.558594 C 372.441406 512.558594 359.535156 500.132812 359.535156 483.5 C 359.535156 462.070312 376.066406 452.652344 400.878906 452.652344 L 420.851562 452.652344 L 420.851562 420.589844 C 420.851562 416.382812 419.03125 412.371094 415 410.367188 L 370.625 446.242188 L 366.191406 446.242188 L 366.191406 412.976562 C 385.546875 407.570312 399.46875 405.167969 409.144531 405.167969 C 443.027344 405.167969 460.574219 414.996094 460.574219 444.644531 L 460.574219 486.519531 C 460.574219 492.929688 463.59375 497.347656 467.824219 497.347656 C 470.054688 497.347656 472.664062 496.542969 474.878906 494.144531 Z M 420.839844 479.082031 L 420.839844 456.648438 L 418.808594 456.847656 C 403.6875 459.65625 403.6875 470.679688 403.6875 477.882812 C 403.6875 488.511719 407.3125 493.722656 412.5625 493.722656 C 416 493.710938 420.839844 491.507812 420.839844 479.082031 " fill-opacity="1" fill-rule="nonzero"/><path fill="#ffffff" d="M 557.542969 475.273438 C 554.734375 495.503906 543.632812 512.542969 521.855469 512.542969 C 503.105469 512.542969 487.167969 500.320312 487.167969 475.867188 L 487.167969 411.964844 L 476.289062 411.964844 L 476.289062 407.953125 L 487.167969 407.953125 L 523.660156 375.496094 L 528.101562 375.496094 L 528.101562 407.953125 L 556.328125 407.953125 L 556.328125 411.964844 L 528.101562 411.964844 L 528.101562 477.871094 C 528.101562 486.285156 532.535156 491.902344 539.390625 491.902344 C 546.652344 491.902344 551.082031 486.285156 553.90625 474.664062 Z M 557.542969 475.273438 " fill-opacity="1" fill-rule="nonzero"/><path fill="#ffffff" d="M 634.363281 505.539062 L 634.363281 509.539062 L 566.007812 509.539062 L 566.007812 505.539062 L 579.730469 492.3125 L 579.730469 425.191406 L 566.007812 411.976562 L 566.007812 407.964844 L 620.652344 407.964844 L 620.652344 492.324219 Z M 578.914062 378.699219 C 578.914062 367.886719 587.574219 358.46875 600.085938 358.46875 C 612.585938 358.46875 621.457031 367.886719 621.457031 378.699219 C 621.457031 390.320312 612.574219 399.144531 600.085938 399.144531 C 587.589844 399.144531 578.914062 390.320312 578.914062 378.699219 " fill-opacity="1" fill-rule="nonzero"/><path fill="#ffffff" d="M 761.402344 495.515625 C 755.761719 508.746094 744.871094 512.558594 733.375 512.558594 C 725.109375 512.558594 711.199219 509.351562 707.152344 492.113281 L 705.34375 492.113281 C 703.527344 501.332031 696.460938 512.558594 676.921875 512.558594 C 657.554688 512.558594 644.648438 500.132812 644.648438 483.5 C 644.648438 462.070312 661.179688 452.652344 685.980469 452.652344 L 705.953125 452.652344 L 705.953125 420.589844 C 705.953125 416.382812 704.121094 412.371094 700.097656 410.367188 L 655.722656 446.242188 L 651.304688 446.242188 L 651.304688 412.976562 C 670.660156 407.570312 684.570312 405.167969 694.246094 405.167969 C 728.128906 405.167969 745.664062 414.996094 745.664062 444.644531 L 745.664062 486.519531 C 745.664062 492.929688 748.695312 497.347656 752.914062 497.347656 C 755.140625 497.347656 757.753906 496.542969 759.980469 494.144531 Z M 705.953125 479.082031 L 705.953125 456.648438 L 703.933594 456.847656 C 688.8125 459.65625 688.8125 470.679688 688.8125 477.882812 C 688.8125 488.511719 692.4375 493.722656 697.6875 493.722656 C 701.113281 493.710938 705.953125 491.507812 705.953125 479.082031 " fill-opacity="1" fill-rule="nonzero"/><path fill="#ffffff" d="M 382.550781 317.394531 L 425.863281 317.394531 L 407.265625 298.710938 C 405.570312 297.015625 402.835938 297.015625 401.140625 298.710938 Z M 382.550781 317.394531 " fill-opacity="1" fill-rule="nonzero"/><path fill="#ffffff" d="M 425.863281 317.394531 L 382.550781 317.394531 L 363.65625 336.378906 L 444.761719 336.378906 Z M 425.863281 317.394531 " fill-opacity="1" fill-rule="nonzero"/><path fill="#ffffff" d="M 458.71875 350.410156 L 444.761719 336.378906 L 363.667969 336.378906 L 349.710938 350.410156 C 348.015625 352.121094 348.015625 354.878906 349.710938 356.574219 L 458.730469 356.574219 C 460.414062 354.867188 460.414062 352.121094 458.71875 350.410156 Z M 458.71875 350.410156 " fill-opacity="1" fill-rule="nonzero"/></svg>