<svg xmlns="http://www.w3.org/2000/svg" xmlns:xlink="http://www.w3.org/1999/xlink" width="1080" zoomAndPan="magnify" viewBox="0 0 810 809.999993" height="1080" preserveAspectRatio="xMidYMid meet" version="1.0"><defs><clipPath id="964e325271"><path d="M 518 307 L 625 307 L 625 502.738281 L 518 502.738281 Z M 518 307 " clip-rule="nonzero"/></clipPath></defs><path fill="#ffffff" d="M 257.34375 329.875 L 257.34375 333.199219 L 241.875 333.199219 L 241.875 378.699219 L 232.253906 378.699219 L 232.253906 333.199219 L 227.003906 333.199219 C 225.882812 333.136719 224.785156 333.273438 223.714844 333.609375 C 222.644531 333.949219 221.667969 334.464844 220.785156 335.15625 C 219.261719 336.46875 218.5 338.769531 218.5 342.074219 L 216.28125 342.074219 L 216.28125 335.789062 C 216.28125 335.050781 216.359375 334.324219 216.523438 333.601562 C 216.695312 332.898438 217.019531 332.269531 217.496094 331.722656 C 218.03125 331.125 218.675781 330.675781 219.421875 330.378906 C 220.4375 330.003906 221.484375 329.835938 222.566406 329.875 Z M 257.34375 329.875 " fill-opacity="1" fill-rule="nonzero"/><path fill="#ffffff" d="M 265.1875 339.484375 C 265.257812 337.628906 264.949219 335.84375 264.261719 334.121094 C 263.648438 332.761719 262.222656 332.097656 260.003906 332.097656 L 259.257812 332.097656 L 259.257812 329.875 L 268.132812 329.875 C 269.242188 329.839844 270.320312 329.996094 271.375 330.347656 C 272.234375 330.671875 272.925781 331.210938 273.445312 331.964844 C 274.027344 332.875 274.386719 333.863281 274.515625 334.929688 C 274.734375 336.449219 274.839844 337.980469 274.824219 339.515625 L 274.824219 345.996094 C 275.550781 345.476562 276.3125 345.011719 277.109375 344.601562 C 277.917969 344.203125 278.753906 343.878906 279.617188 343.628906 C 280.710938 343.324219 281.824219 343.179688 282.957031 343.191406 C 284.65625 343.195312 286.335938 343.390625 287.992188 343.777344 C 289.640625 344.164062 291.144531 344.863281 292.496094 345.882812 C 293.90625 347.007812 294.988281 348.386719 295.738281 350.027344 C 296.664062 352.167969 297.085938 354.402344 297 356.734375 L 297 378.699219 L 287.378906 378.699219 L 287.378906 356.992188 C 287.421875 355.347656 287.238281 353.726562 286.828125 352.132812 C 286.542969 350.957031 286.046875 349.875 285.335938 348.894531 C 284.792969 348.121094 284.09375 347.535156 283.230469 347.144531 C 282.429688 346.796875 281.59375 346.625 280.71875 346.625 C 279.917969 346.617188 279.140625 346.753906 278.386719 347.03125 C 277.730469 347.277344 277.105469 347.585938 276.507812 347.953125 C 275.945312 348.351562 275.40625 348.78125 274.890625 349.234375 L 274.890625 378.585938 L 265.265625 378.585938 Z M 265.1875 339.484375 " fill-opacity="1" fill-rule="nonzero"/><path fill="#ffffff" d="M 321.867188 376.109375 C 324.140625 376.214844 326.21875 375.625 328.101562 374.34375 C 329.769531 373.125 331.230469 371.695312 332.476562 370.050781 L 334.761719 371.75 C 334.164062 372.667969 333.511719 373.542969 332.800781 374.375 C 331.980469 375.34375 331.046875 376.1875 329.996094 376.902344 C 328.78125 377.714844 327.472656 378.339844 326.078125 378.78125 C 324.351562 379.308594 322.585938 379.554688 320.78125 379.527344 C 318.328125 379.566406 315.976562 379.109375 313.71875 378.148438 C 311.648438 377.277344 309.863281 376.007812 308.355469 374.34375 C 306.832031 372.660156 305.691406 370.75 304.9375 368.609375 C 304.128906 366.273438 303.734375 363.871094 303.753906 361.398438 C 303.707031 358.710938 304.128906 356.097656 305.019531 353.558594 C 305.769531 351.433594 306.914062 349.542969 308.453125 347.890625 C 309.917969 346.371094 311.636719 345.222656 313.605469 344.457031 C 315.6875 343.636719 317.847656 343.242188 320.085938 343.273438 C 322.308594 343.25 324.46875 343.605469 326.5625 344.34375 C 328.464844 345.019531 330.175781 346.015625 331.699219 347.339844 C 333.183594 348.648438 334.332031 350.203125 335.148438 352.003906 C 336.007812 353.933594 336.421875 355.953125 336.398438 358.0625 C 336.398438 358.613281 336.398438 359.164062 336.398438 359.683594 C 336.398438 360.203125 336.398438 360.753906 336.28125 361.207031 C 336.167969 361.660156 336.1875 362.242188 336.136719 362.679688 L 313.863281 362.679688 C 313.863281 367.550781 314.613281 371.015625 316.117188 373.078125 C 316.765625 374.027344 317.601562 374.765625 318.617188 375.300781 C 319.632812 375.835938 320.71875 376.105469 321.867188 376.109375 Z M 326.304688 359.308594 C 326.339844 357.25 326.175781 355.203125 325.820312 353.171875 C 325.578125 351.800781 325.148438 350.492188 324.523438 349.25 C 324.070312 348.359375 323.417969 347.65625 322.5625 347.144531 C 321.765625 346.710938 320.910156 346.5 320.003906 346.511719 C 319.148438 346.511719 318.347656 346.722656 317.605469 347.144531 C 316.738281 347.65625 316.074219 348.359375 315.613281 349.25 C 314.953125 350.488281 314.492188 351.792969 314.234375 353.171875 C 313.859375 355.199219 313.683594 357.246094 313.71875 359.308594 Z M 326.304688 359.308594 " fill-opacity="1" fill-rule="nonzero"/><path fill="#ffffff" d="M 399.476562 369.386719 C 400.210938 371.324219 401.289062 373.046875 402.714844 374.554688 C 403.925781 375.832031 405.40625 376.570312 407.152344 376.773438 L 407.152344 378.636719 C 406.621094 378.753906 406.078125 378.835938 405.535156 378.878906 C 404.910156 378.953125 404.285156 378.988281 403.65625 378.992188 C 402.378906 378.980469 401.109375 378.875 399.847656 378.667969 C 398.445312 378.433594 397.113281 377.992188 395.847656 377.339844 C 394.441406 376.589844 393.203125 375.625 392.136719 374.441406 C 390.824219 372.933594 389.804688 371.25 389.074219 369.386719 L 387.359375 365.238281 L 367.578125 365.238281 L 361.472656 378.699219 L 357.777344 378.699219 L 379.597656 329.875 L 382.9375 329.875 Z M 369.101562 361.949219 L 385.933594 361.949219 L 377.832031 342.640625 Z M 369.101562 361.949219 " fill-opacity="1" fill-rule="nonzero"/><path fill="#ffffff" d="M 420.484375 376.109375 C 421.5 376.210938 422.503906 376.136719 423.496094 375.890625 C 424.484375 375.640625 425.402344 375.234375 426.253906 374.667969 C 426.777344 374.222656 427.183594 373.6875 427.464844 373.058594 C 427.75 372.433594 427.886719 371.773438 427.871094 371.085938 C 427.878906 370.382812 427.707031 369.722656 427.363281 369.105469 C 427.019531 368.492188 426.546875 368 425.945312 367.636719 C 424.4375 366.660156 422.859375 365.8125 421.214844 365.09375 L 417.359375 363.472656 C 414.78125 362.4375 412.464844 360.984375 410.410156 359.117188 C 409.582031 358.328125 408.949219 357.402344 408.511719 356.34375 C 408.074219 355.285156 407.871094 354.1875 407.898438 353.042969 C 407.863281 351.527344 408.207031 350.109375 408.9375 348.78125 C 409.667969 347.539062 410.636719 346.527344 411.851562 345.75 C 413.230469 344.855469 414.71875 344.230469 416.324219 343.871094 C 418.171875 343.4375 420.042969 343.226562 421.945312 343.242188 C 424.484375 343.175781 426.992188 343.445312 429.460938 344.050781 C 431.113281 344.429688 432.582031 345.167969 433.867188 346.269531 C 434.878906 347.269531 435.417969 348.476562 435.484375 349.898438 C 435.632812 351.519531 435.695312 353.136719 435.695312 355.066406 L 433.074219 355.066406 C 432.726562 352.746094 431.761719 350.71875 430.171875 348.992188 C 429.28125 348.113281 428.25 347.460938 427.078125 347.027344 C 425.90625 346.59375 424.695312 346.421875 423.449219 346.511719 C 422.578125 346.429688 421.71875 346.511719 420.878906 346.761719 C 420.039062 347.011719 419.277344 347.410156 418.589844 347.953125 C 418.105469 348.425781 417.734375 348.972656 417.476562 349.597656 C 417.222656 350.226562 417.101562 350.875 417.117188 351.550781 C 417.085938 352.167969 417.195312 352.761719 417.4375 353.332031 C 417.683594 353.902344 418.039062 354.386719 418.507812 354.789062 C 419.675781 355.75 420.960938 356.507812 422.363281 357.058594 L 426.804688 358.90625 C 429.621094 359.960938 432.195312 361.441406 434.53125 363.34375 C 435.40625 364.140625 436.066406 365.089844 436.523438 366.183594 C 436.976562 367.277344 437.175781 368.414062 437.121094 369.597656 C 437.15625 371.128906 436.773438 372.550781 435.972656 373.855469 C 435.160156 375.125 434.113281 376.148438 432.828125 376.933594 C 431.339844 377.828125 429.75 378.453125 428.050781 378.8125 C 426.039062 379.253906 424.003906 379.464844 421.945312 379.445312 C 419.410156 379.503906 416.90625 379.234375 414.445312 378.636719 C 412.792969 378.25 411.324219 377.503906 410.039062 376.398438 C 409.027344 375.40625 408.484375 374.203125 408.417969 372.789062 C 408.273438 371.167969 408.191406 369.546875 408.191406 367.605469 L 410.78125 367.605469 C 411.136719 369.902344 412.097656 371.910156 413.664062 373.628906 C 414.570312 374.519531 415.617188 375.175781 416.808594 375.609375 C 417.996094 376.042969 419.222656 376.207031 420.484375 376.109375 Z M 420.484375 376.109375 " fill-opacity="1" fill-rule="nonzero"/><path fill="#ffffff" d="M 445.496094 353.542969 C 445.566406 351.691406 445.261719 349.902344 444.574219 348.183594 C 443.957031 346.820312 442.53125 346.140625 440.3125 346.140625 L 439.566406 346.140625 L 439.566406 343.921875 L 448.460938 343.921875 C 449.570312 343.886719 450.652344 344.050781 451.703125 344.40625 C 452.5625 344.730469 453.253906 345.269531 453.773438 346.027344 C 454.355469 346.933594 454.710938 347.921875 454.84375 348.992188 C 455.074219 350.511719 455.175781 352.039062 455.152344 353.574219 L 455.152344 378.734375 L 445.53125 378.734375 Z M 454.375 335.726562 C 454.40625 336.292969 454.316406 336.839844 454.109375 337.367188 C 453.902344 337.894531 453.597656 338.359375 453.191406 338.753906 C 452.382812 339.523438 451.421875 339.894531 450.308594 339.871094 C 449.523438 339.945312 448.761719 339.839844 448.027344 339.554688 C 447.292969 339.269531 446.660156 338.835938 446.128906 338.25 C 445.191406 337.113281 444.734375 335.804688 444.75 334.332031 C 444.722656 333.761719 444.8125 333.214844 445.019531 332.683594 C 445.226562 332.152344 445.53125 331.6875 445.933594 331.285156 C 446.746094 330.53125 447.707031 330.164062 448.816406 330.183594 C 449.609375 330.121094 450.375 330.238281 451.109375 330.539062 C 451.84375 330.839844 452.472656 331.289062 452.996094 331.886719 C 453.933594 333.019531 454.390625 334.320312 454.375 335.789062 Z M 454.375 335.726562 " fill-opacity="1" fill-rule="nonzero"/><path fill="#ffffff" d="M 477.085938 343.191406 C 481.945312 343.191406 485.65625 344.472656 488.292969 347.03125 C 490.933594 349.589844 492.261719 353.511719 492.261719 358.726562 L 492.261719 378.699219 L 485.960938 378.699219 L 483.386719 375.378906 L 483.015625 375.378906 C 482.445312 376.1875 481.753906 376.875 480.941406 377.4375 C 480.109375 378.0625 479.195312 378.53125 478.203125 378.847656 C 476.878906 379.269531 475.523438 379.46875 474.136719 379.445312 C 472.460938 379.566406 470.8125 379.382812 469.203125 378.90625 C 467.589844 378.425781 466.113281 377.675781 464.773438 376.660156 C 463.707031 375.769531 462.890625 374.695312 462.324219 373.429688 C 461.753906 372.164062 461.492188 370.835938 461.535156 369.449219 C 461.5 367.824219 461.796875 366.257812 462.425781 364.753906 C 463.117188 363.269531 464.164062 362.109375 465.566406 361.269531 C 467.46875 360.164062 469.503906 359.4375 471.675781 359.101562 C 474.929688 358.542969 478.207031 358.296875 481.507812 358.355469 L 482.625 358.355469 C 482.625 353.917969 482.007812 350.832031 480.777344 349.105469 C 480.195312 348.257812 479.441406 347.601562 478.519531 347.140625 C 477.597656 346.679688 476.625 346.472656 475.59375 346.511719 C 474.78125 346.507812 473.976562 346.59375 473.179688 346.773438 C 472.40625 346.949219 471.703125 347.285156 471.074219 347.777344 C 470.40625 348.347656 469.867188 349.023438 469.457031 349.800781 C 468.894531 350.867188 468.5 351.988281 468.273438 353.171875 L 464.207031 353.171875 C 464.207031 351.859375 464.292969 350.550781 464.464844 349.25 C 464.636719 347.917969 465.175781 346.757812 466.085938 345.769531 C 467.332031 344.609375 468.800781 343.933594 470.492188 343.742188 C 472.671875 343.363281 474.871094 343.179688 477.085938 343.191406 Z M 482.640625 361.675781 L 481.507812 361.675781 C 477.960938 361.675781 475.417969 362.339844 473.863281 363.621094 C 473.039062 364.375 472.425781 365.269531 472.015625 366.308594 C 471.609375 367.34375 471.445312 368.421875 471.527344 369.53125 C 471.402344 371.265625 471.832031 372.847656 472.824219 374.277344 C 473.246094 374.8125 473.769531 375.222656 474.386719 375.507812 C 475.007812 375.792969 475.660156 375.925781 476.339844 375.898438 C 477.367188 375.929688 478.316406 375.675781 479.191406 375.136719 C 479.914062 374.683594 480.566406 374.140625 481.152344 373.515625 C 481.773438 372.769531 482.261719 371.941406 482.625 371.039062 Z M 482.640625 361.675781 " fill-opacity="1" fill-rule="nonzero"/><path fill="#ffffff" d="M 188.386719 434.847656 C 187.105469 435.871094 186 437.058594 185.070312 438.40625 C 184.136719 439.753906 183.417969 441.207031 182.910156 442.769531 C 182.035156 445.578125 181.59375 448.457031 181.582031 451.402344 L 181.582031 487.558594 C 177.796875 489.273438 173.871094 490.558594 169.804688 491.414062 C 164.640625 492.445312 159.425781 492.921875 154.15625 492.839844 C 148.125 492.890625 142.304688 491.8125 136.695312 489.597656 C 133.898438 488.453125 131.292969 486.96875 128.882812 485.148438 C 126.472656 483.324219 124.335938 481.222656 122.472656 478.84375 C 117.90625 472.835938 114.722656 466.167969 112.929688 458.835938 C 110.410156 448.664062 109.257812 438.339844 109.480469 427.863281 C 109.460938 420.289062 110.269531 412.808594 111.910156 405.414062 C 113.371094 398.554688 115.976562 392.167969 119.734375 386.25 C 121.476562 383.515625 123.519531 381.027344 125.855469 378.777344 C 128.1875 376.53125 130.753906 374.589844 133.550781 372.949219 C 136.699219 371.203125 140.019531 369.90625 143.515625 369.058594 C 147.015625 368.210938 150.5625 367.847656 154.15625 367.960938 C 165.949219 367.960938 175.296875 370.773438 182.199219 376.398438 C 189.097656 382.027344 193.835938 391.066406 196.40625 403.515625 L 202.511719 403.515625 C 202.511719 401.21875 202.511719 398.769531 202.398438 396.195312 C 202.335938 393.648438 202.136719 391.109375 201.800781 388.582031 C 201.464844 386.140625 200.957031 383.738281 200.277344 381.375 C 199.636719 379.15625 198.621094 377.125 197.230469 375.28125 C 193.429688 370.960938 187.488281 367.132812 179.410156 363.796875 C 171.332031 360.460938 160.886719 358.765625 148.066406 358.710938 C 143.34375 358.640625 138.664062 359.050781 134.027344 359.941406 C 129.390625 360.832031 124.890625 362.179688 120.527344 363.992188 C 112.503906 367.398438 105.484375 372.257812 99.46875 378.570312 C 93.453125 384.964844 88.917969 392.273438 85.863281 400.503906 C 82.566406 409.28125 80.945312 418.359375 81.003906 427.734375 C 80.917969 437.679688 82.75 447.257812 86.496094 456.472656 C 90.03125 465.199219 95.109375 472.917969 101.722656 479.621094 C 108.410156 486.34375 116.128906 491.527344 124.886719 495.171875 C 129.515625 497.097656 134.292969 498.535156 139.21875 499.492188 C 144.140625 500.453125 149.109375 500.90625 154.125 500.859375 C 163.871094 500.945312 173.488281 499.863281 182.976562 497.617188 C 191.828125 495.433594 200.152344 491.984375 207.953125 487.265625 L 207.953125 451.046875 C 207.953125 444.953125 208.96875 440.214844 211 436.824219 C 213.039062 433.4375 216.34375 431.753906 220.960938 431.753906 L 220.960938 426.664062 C 213.945312 426.464844 207.039062 427.246094 200.242188 429.015625 C 195.894531 430.148438 191.941406 432.09375 188.386719 434.847656 Z M 188.386719 434.847656 " fill-opacity="1" fill-rule="nonzero"/><path fill="#ffffff" d="M 271.566406 399.402344 C 265.394531 399.359375 259.265625 399.867188 253.183594 400.925781 C 247.5625 401.945312 243.460938 403.808594 241.097656 406.515625 C 239.894531 407.839844 238.917969 409.316406 238.171875 410.945312 C 237.425781 412.574219 236.945312 414.277344 236.722656 416.054688 C 236.261719 419.632812 236.03125 423.222656 236.027344 426.828125 L 247.1875 426.828125 C 247.796875 423.578125 248.875 420.496094 250.429688 417.578125 C 251.609375 415.402344 253.164062 413.539062 255.09375 411.988281 C 256.828125 410.65625 258.761719 409.742188 260.894531 409.253906 C 263.0625 408.769531 265.261719 408.53125 267.484375 408.539062 C 268.875 408.484375 270.25 408.605469 271.605469 408.898438 C 272.964844 409.191406 274.265625 409.648438 275.511719 410.269531 C 276.753906 410.890625 277.898438 411.65625 278.949219 412.570312 C 280 413.480469 280.917969 414.507812 281.707031 415.652344 C 285.101562 420.402344 286.789062 428.867188 286.777344 441.050781 L 283.734375 441.050781 C 274.667969 440.890625 265.667969 441.566406 256.730469 443.074219 C 250.765625 444.023438 245.175781 446.023438 239.964844 449.070312 C 238.078125 450.1875 236.398438 451.558594 234.925781 453.1875 C 233.453125 454.8125 232.253906 456.621094 231.328125 458.609375 C 229.613281 462.761719 228.800781 467.078125 228.898438 471.570312 C 228.84375 473.445312 228.996094 475.304688 229.355469 477.148438 C 229.71875 478.992188 230.28125 480.769531 231.046875 482.484375 C 231.8125 484.199219 232.757812 485.808594 233.886719 487.3125 C 235.011719 488.8125 236.292969 490.167969 237.726562 491.382812 C 243.625 496.445312 252.1875 498.984375 263.421875 498.996094 C 267.238281 499.082031 270.960938 498.542969 274.597656 497.375 C 277.3125 496.5 279.820312 495.214844 282.113281 493.519531 C 284.34375 491.957031 286.238281 490.0625 287.800781 487.832031 L 288.820312 487.832031 L 295.929688 496.96875 L 313.199219 496.96875 L 313.199219 442.054688 C 313.199219 427.703125 309.578125 417.007812 302.328125 409.964844 C 295.082031 402.921875 284.828125 399.402344 271.566406 399.402344 Z M 286.796875 475.847656 C 285.792969 478.3125 284.445312 480.570312 282.746094 482.617188 C 281.140625 484.351562 279.339844 485.859375 277.351562 487.136719 C 274.953125 488.597656 272.351562 489.28125 269.542969 489.179688 C 268.617188 489.222656 267.699219 489.15625 266.785156 488.980469 C 265.875 488.808594 264.996094 488.527344 264.152344 488.144531 C 263.308594 487.761719 262.519531 487.285156 261.789062 486.714844 C 261.054688 486.144531 260.402344 485.496094 259.824219 484.773438 C 257.457031 481.839844 256.277344 477.480469 256.277344 471.8125 C 256.277344 464.566406 258.402344 459.167969 262.660156 455.613281 C 266.914062 452.0625 273.933594 450.285156 283.71875 450.285156 L 286.761719 450.285156 Z M 286.796875 475.847656 " fill-opacity="1" fill-rule="nonzero"/><path fill="#ffffff" d="M 348.949219 401.429688 C 345.980469 401.332031 343.101562 401.808594 340.316406 402.851562 C 338.273438 403.667969 336.515625 404.886719 335.035156 406.515625 C 333.734375 408.027344 332.851562 409.753906 332.394531 411.699219 C 331.921875 413.664062 331.683594 415.65625 331.683594 417.675781 L 331.683594 429.875 L 337.789062 429.875 C 337.789062 423.230469 339.507812 418.371094 342.957031 415.292969 C 346.40625 412.214844 352.464844 410.628906 361.148438 410.628906 L 385.105469 410.628906 L 331.648438 490.652344 L 331.648438 496.953125 L 416.96875 496.953125 L 416.96875 487.816406 L 363.515625 487.816406 L 421.199219 401.476562 Z M 348.949219 401.429688 " fill-opacity="1" fill-rule="nonzero"/><path fill="#ffffff" d="M 506.277344 410.546875 C 502.09375 406.898438 497.386719 404.15625 492.148438 402.320312 C 486.4375 400.296875 480.550781 399.316406 474.492188 399.371094 C 468.390625 399.304688 462.5 400.382812 456.820312 402.609375 C 451.390625 404.761719 446.660156 407.945312 442.628906 412.167969 C 438.382812 416.675781 435.234375 421.855469 433.1875 427.703125 C 430.753906 434.671875 429.605469 441.851562 429.734375 449.230469 C 429.65625 456.023438 430.738281 462.628906 432.976562 469.042969 C 435.03125 474.914062 438.144531 480.164062 442.304688 484.789062 C 446.464844 489.335938 451.378906 492.820312 457.046875 495.238281 C 463.261719 497.855469 469.742188 499.109375 476.484375 498.996094 C 481.453125 499.089844 486.3125 498.414062 491.066406 496.96875 C 494.898438 495.757812 498.484375 494.027344 501.820312 491.785156 C 504.710938 489.839844 507.289062 487.539062 509.546875 484.886719 C 511.484375 482.589844 513.277344 480.1875 514.925781 477.675781 L 508.625 472.996094 C 505.261719 477.582031 501.304688 481.578125 496.75 484.984375 C 492.34375 488.222656 486.621094 489.84375 479.578125 489.84375 C 477.984375 489.871094 476.414062 489.703125 474.859375 489.335938 C 473.308594 488.972656 471.824219 488.421875 470.410156 487.6875 C 468.996094 486.949219 467.695312 486.050781 466.503906 484.992188 C 465.316406 483.929688 464.273438 482.738281 463.378906 481.417969 C 459.265625 475.769531 457.207031 466.238281 457.207031 452.828125 L 518.34375 452.828125 C 518.472656 451.613281 518.621094 450.25 518.75 448.761719 C 518.878906 447.546875 518.992188 446.152344 519.058594 444.597656 C 519.121094 443.042969 519.152344 441.519531 519.152344 440.03125 C 519.230469 434.226562 518.078125 428.675781 515.703125 423.378906 C 513.476562 418.429688 510.332031 414.152344 506.277344 410.546875 Z M 457.207031 443.691406 C 457.105469 438.019531 457.582031 432.398438 458.632812 426.828125 C 459.324219 423.042969 460.578125 419.449219 462.394531 416.054688 C 463.671875 413.609375 465.496094 411.683594 467.867188 410.273438 C 469.921875 409.121094 472.125 408.542969 474.476562 408.539062 C 476.972656 408.507812 479.316406 409.085938 481.507812 410.273438 C 483.867188 411.675781 485.664062 413.605469 486.902344 416.054688 C 488.613281 419.472656 489.796875 423.0625 490.449219 426.828125 C 491.417969 432.40625 491.855469 438.027344 491.761719 443.691406 Z M 457.207031 443.691406 " fill-opacity="1" fill-rule="nonzero"/><path fill="#ffffff" d="M 725.546875 423.378906 C 723.308594 418.4375 720.160156 414.171875 716.101562 410.582031 C 711.921875 406.933594 707.210938 404.1875 701.976562 402.351562 C 696.257812 400.328125 690.367188 399.347656 684.304688 399.402344 C 678.203125 399.339844 672.3125 400.417969 666.628906 402.644531 C 661.234375 404.792969 656.53125 407.964844 652.519531 412.167969 C 648.273438 416.675781 645.125 421.855469 643.078125 427.703125 C 640.644531 434.671875 639.496094 441.851562 639.625 449.230469 C 639.554688 456.023438 640.636719 462.625 642.867188 469.042969 C 644.929688 474.914062 648.042969 480.164062 652.210938 484.789062 C 656.367188 489.332031 661.277344 492.816406 666.9375 495.238281 C 673.152344 497.851562 679.632812 499.105469 686.375 498.996094 C 691.34375 499.089844 696.203125 498.414062 700.957031 496.96875 C 704.796875 495.761719 708.386719 494.03125 711.726562 491.785156 C 714.617188 489.84375 717.1875 487.542969 719.4375 484.886719 C 721.382812 482.59375 723.183594 480.191406 724.832031 477.675781 L 718.53125 472.996094 C 715.167969 477.585938 711.207031 481.582031 706.640625 484.984375 C 702.25 488.222656 696.515625 489.84375 689.488281 489.84375 C 687.894531 489.871094 686.320312 489.703125 684.769531 489.335938 C 683.214844 488.972656 681.734375 488.421875 680.320312 487.6875 C 678.902344 486.949219 677.601562 486.050781 676.410156 484.992188 C 675.222656 483.929688 674.179688 482.738281 673.289062 481.417969 C 669.164062 475.792969 667.101562 466.277344 667.101562 452.875 L 728.1875 452.875 C 728.316406 451.660156 728.460938 450.300781 728.589844 448.808594 C 728.722656 447.59375 728.835938 446.203125 728.898438 444.648438 C 728.964844 443.089844 728.996094 441.570312 728.996094 440.078125 C 729.078125 434.257812 727.929688 428.691406 725.546875 423.378906 Z M 667.050781 443.691406 C 666.953125 438.023438 667.421875 432.402344 668.460938 426.828125 C 669.164062 423.046875 670.417969 419.457031 672.21875 416.054688 C 673.5 413.609375 675.332031 411.679688 677.710938 410.273438 C 679.757812 409.121094 681.953125 408.542969 684.304688 408.539062 C 686.792969 408.511719 689.128906 409.089844 691.316406 410.273438 C 693.675781 411.671875 695.46875 413.601562 696.695312 416.054688 C 698.421875 419.46875 699.609375 423.058594 700.257812 426.828125 C 701.226562 432.40625 701.664062 438.027344 701.570312 443.691406 Z M 667.050781 443.691406 " fill-opacity="1" fill-rule="nonzero"/><g clip-path="url(#964e325271)"><path fill="#ffffff" d="M 622.648438 378.585938 L 624.429688 378.585938 L 624.429688 376.804688 C 624.351562 373.566406 624.429688 370.230469 624.429688 366.925781 L 624.429688 362.421875 L 622.535156 362.421875 C 620.480469 362.421875 618.421875 362.421875 616.363281 362.421875 L 614.664062 362.421875 C 611.230469 362.421875 607.683594 362.421875 604.183594 362.421875 C 604.3125 345.121094 604.183594 328.402344 604.183594 311.265625 L 604.183594 307.230469 L 601.167969 309.9375 C 596.148438 314.457031 591.011719 318.910156 586.039062 323.234375 L 584.535156 324.53125 L 578.703125 329.554688 L 578.101562 330.085938 L 578.101562 330.898438 C 578.019531 338.398438 578.101562 345.914062 578.101562 353.414062 C 578.101562 356.394531 578.101562 359.390625 578.101562 362.371094 L 564.347656 362.371094 C 564.347656 353.574219 564.347656 344.78125 564.347656 335.984375 C 564.347656 327.769531 564.347656 319.558594 564.347656 311.34375 L 564.347656 307.441406 L 561.351562 309.953125 C 557.433594 313.273438 553.578125 316.660156 549.574219 320.171875 C 546.417969 322.945312 543.257812 325.714844 539.96875 328.53125 L 539.710938 328.757812 C 539.25 329.058594 538.890625 329.449219 538.628906 329.933594 C 538.367188 330.414062 538.234375 330.929688 538.238281 331.480469 C 538.105469 341.199219 538.140625 351.113281 538.238281 360.640625 L 538.238281 362.386719 C 533.945312 362.386719 529.636719 362.386719 525.277344 362.386719 L 518.796875 362.386719 L 518.796875 364.1875 C 518.796875 368.445312 518.796875 372.707031 518.796875 376.949219 L 518.796875 378.75 L 520.597656 378.75 C 526.410156 378.75 532.324219 378.75 538.027344 378.75 L 538.203125 378.75 C 538.203125 381.226562 538.203125 383.609375 538.203125 386.152344 C 538.203125 389.957031 538.300781 393.894531 538.125 397.863281 C 538.238281 419.296875 538.253906 436.546875 538.125 452.164062 L 538.125 454.625 C 537.839844 460.246094 538.378906 465.785156 539.742188 471.246094 C 540.433594 473.722656 541.335938 476.117188 542.453125 478.429688 C 543.570312 480.742188 544.886719 482.9375 546.398438 485.019531 C 547.910156 487.097656 549.59375 489.023438 551.449219 490.800781 C 553.304688 492.578125 555.304688 494.175781 557.449219 495.59375 C 560.988281 497.941406 564.789062 499.726562 568.855469 500.949219 C 572.921875 502.171875 577.078125 502.777344 581.324219 502.769531 C 584.636719 502.773438 587.90625 502.386719 591.125 501.617188 C 595.300781 500.636719 599.238281 499.066406 602.9375 496.90625 C 606.640625 494.746094 609.945312 492.085938 612.847656 488.933594 C 614.582031 487.054688 616.136719 485.039062 617.511719 482.882812 C 618.886719 480.726562 620.0625 478.46875 621.035156 476.105469 C 622.011719 473.742188 622.769531 471.3125 623.3125 468.8125 C 623.855469 466.316406 624.175781 463.789062 624.269531 461.234375 C 624.269531 460.539062 624.269531 459.839844 624.269531 459.160156 C 624.226562 458.539062 624.105469 457.929688 623.902344 457.339844 C 623.703125 456.746094 623.429688 456.191406 623.085938 455.667969 C 622.742188 455.148438 622.335938 454.679688 621.867188 454.265625 C 621.402344 453.847656 620.890625 453.5 620.332031 453.214844 C 619.921875 453 619.492188 452.828125 619.046875 452.691406 C 618.601562 452.558594 618.148438 452.46875 617.6875 452.417969 C 617.222656 452.371094 616.761719 452.363281 616.296875 452.402344 C 615.835938 452.441406 615.378906 452.523438 614.933594 452.644531 C 614.484375 452.769531 614.050781 452.933594 613.632812 453.140625 C 613.21875 453.34375 612.824219 453.585938 612.453125 453.863281 C 612.082031 454.144531 611.738281 454.457031 611.425781 454.796875 C 611.113281 455.140625 610.832031 455.511719 610.589844 455.90625 C 610.347656 456.304688 610.140625 456.71875 609.976562 457.152344 C 609.808594 457.585938 609.6875 458.03125 609.605469 458.488281 C 609.523438 458.945312 609.484375 459.40625 609.488281 459.871094 C 609.492188 460.335938 609.542969 460.796875 609.632812 461.253906 C 609.722656 461.710938 609.855469 462.152344 610.03125 462.582031 C 610.207031 463.011719 610.417969 463.425781 610.671875 463.816406 C 610.921875 464.207031 611.207031 464.570312 611.527344 464.90625 C 611.847656 465.242188 612.195312 465.546875 612.574219 465.820312 C 613.535156 466.546875 614.617188 466.984375 615.8125 467.132812 C 615.132812 467.535156 614.398438 467.777344 613.609375 467.859375 C 612.449219 468.078125 611.300781 468.027344 610.164062 467.714844 C 609.027344 467.402344 608.015625 466.855469 607.132812 466.078125 C 606.199219 465.320312 605.472656 464.398438 604.953125 463.316406 C 604.429688 462.234375 604.164062 461.089844 604.148438 459.890625 L 604.148438 440.242188 C 604.148438 419.722656 604.148438 399.203125 604.148438 378.683594 C 610.792969 378.863281 616.816406 378.832031 622.648438 378.585938 Z M 610.824219 480.640625 C 609.210938 482.1875 607.417969 483.480469 605.445312 484.527344 C 604.394531 485.09375 603.308594 485.589844 602.191406 486.011719 C 601.078125 486.4375 599.9375 486.789062 598.777344 487.0625 C 597.613281 487.339844 596.4375 487.539062 595.25 487.664062 C 594.0625 487.785156 592.871094 487.832031 591.675781 487.800781 C 590.484375 487.769531 589.296875 487.660156 588.117188 487.472656 C 586.9375 487.285156 585.773438 487.023438 584.628906 486.6875 C 583.484375 486.347656 582.363281 485.9375 581.269531 485.457031 C 580.179688 484.972656 579.121094 484.421875 578.101562 483.800781 C 576.074219 482.578125 574.230469 481.128906 572.566406 479.445312 C 570.90625 477.765625 569.476562 475.902344 568.277344 473.863281 C 567.082031 471.824219 566.15625 469.667969 565.496094 467.394531 C 564.839844 465.125 564.472656 462.804688 564.398438 460.441406 C 564.398438 449.101562 564.398438 437.890625 564.398438 426.632812 L 564.398438 425.53125 C 564.398438 411.035156 564.398438 394.625 564.316406 378.71875 C 566.457031 378.601562 568.609375 378.71875 571.121094 378.71875 C 573.632812 378.71875 575.722656 378.71875 578.054688 378.71875 L 578.054688 459.257812 C 578.039062 460.023438 578.0625 460.792969 578.125 461.554688 C 578.1875 462.320312 578.289062 463.078125 578.425781 463.835938 C 578.5625 464.589844 578.738281 465.335938 578.949219 466.074219 C 579.160156 466.808594 579.40625 467.535156 579.691406 468.246094 C 579.976562 468.960938 580.292969 469.65625 580.644531 470.339844 C 581 471.019531 581.382812 471.679688 581.800781 472.324219 C 582.222656 472.96875 582.671875 473.589844 583.148438 474.1875 C 583.628906 474.785156 584.136719 475.359375 584.675781 475.90625 C 585.210938 476.453125 585.773438 476.972656 586.363281 477.464844 C 586.953125 477.957031 587.5625 478.417969 588.199219 478.851562 C 588.832031 479.28125 589.488281 479.679688 590.160156 480.046875 C 590.835938 480.414062 591.523438 480.746094 592.230469 481.042969 C 592.9375 481.339844 593.660156 481.601562 594.390625 481.828125 C 595.125 482.054688 595.867188 482.246094 596.617188 482.398438 C 597.371094 482.550781 598.128906 482.664062 598.890625 482.742188 C 599.652344 482.820312 600.417969 482.859375 601.1875 482.859375 L 601.527344 482.859375 C 604.78125 482.820312 607.882812 482.101562 610.824219 480.707031 Z M 610.824219 480.640625 " fill-opacity="1" fill-rule="nonzero"/></g></svg>