<svg xmlns="http://www.w3.org/2000/svg" xmlns:xlink="http://www.w3.org/1999/xlink" width="1080" zoomAndPan="magnify" viewBox="0 0 810 809.999993" height="1080" preserveAspectRatio="xMidYMid meet" version="1.0"><defs><clipPath id="451552eb91"><path d="M 81 360 L 168 360 L 168 475.21875 L 81 475.21875 Z M 81 360 " clip-rule="nonzero"/></clipPath><clipPath id="2e7b20ec0c"><path d="M 109 334.96875 L 185 334.96875 L 185 434 L 109 434 Z M 109 334.96875 " clip-rule="nonzero"/></clipPath></defs><path fill="#ffffff" d="M 194.679688 386.796875 L 199.398438 381.136719 C 199.753906 381.71875 200.175781 382.253906 200.660156 382.738281 C 201.144531 383.222656 201.683594 383.640625 202.269531 383.992188 C 202.855469 384.34375 203.476562 384.621094 204.132812 384.820312 C 204.789062 385.023438 205.457031 385.140625 206.140625 385.179688 C 209.511719 385.179688 211.332031 383.125 211.332031 379.09375 L 211.332031 361.636719 L 198.503906 361.636719 L 198.503906 354.808594 L 219.84375 354.808594 L 219.84375 378.625 C 219.84375 387.691406 215.292969 392.105469 206.628906 392.105469 C 205.496094 392.15625 204.371094 392.074219 203.257812 391.859375 C 202.144531 391.648438 201.070312 391.3125 200.03125 390.851562 C 198.996094 390.390625 198.027344 389.820312 197.121094 389.132812 C 196.21875 388.449219 195.402344 387.671875 194.679688 386.796875 Z M 194.679688 386.796875 " fill-opacity="1" fill-rule="nonzero"/><path fill="#ffffff" d="M 262.09375 383.664062 L 245.054688 383.664062 L 241.804688 391.515625 L 233.089844 391.515625 L 249.453125 354.808594 L 257.882812 354.808594 L 274.265625 391.515625 L 265.347656 391.515625 Z M 259.433594 377.207031 L 253.601562 363.152344 L 247.785156 377.207031 Z M 259.433594 377.207031 " fill-opacity="1" fill-rule="nonzero"/><path fill="#ffffff" d="M 320.394531 368.140625 C 320.394531 376.316406 314.257812 381.40625 304.449219 381.40625 L 297.136719 381.40625 L 297.136719 391.515625 L 288.707031 391.515625 L 288.707031 354.808594 L 304.601562 354.808594 C 314.257812 354.808594 320.394531 359.898438 320.394531 368.140625 Z M 311.796875 368.140625 C 311.796875 364.09375 309.167969 361.734375 303.976562 361.734375 L 297.136719 361.734375 L 297.136719 374.476562 L 304.0625 374.476562 C 309.167969 374.476562 311.796875 372.117188 311.796875 368.140625 Z M 311.796875 368.140625 " fill-opacity="1" fill-rule="nonzero"/><path fill="#ffffff" d="M 359.242188 383.664062 L 342.183594 383.664062 L 338.933594 391.515625 L 330.234375 391.515625 L 346.601562 354.808594 L 355.027344 354.808594 L 371.410156 391.515625 L 362.496094 391.515625 Z M 356.5625 377.207031 L 350.746094 363.152344 L 344.914062 377.207031 Z M 356.5625 377.207031 " fill-opacity="1" fill-rule="nonzero"/><path fill="#ffffff" d="M 419.375 354.808594 L 419.375 391.515625 L 412.398438 391.515625 L 394.09375 369.234375 L 394.09375 391.515625 L 385.667969 391.515625 L 385.667969 354.808594 L 392.695312 354.808594 L 410.949219 377.105469 L 410.949219 354.808594 Z M 419.375 354.808594 " fill-opacity="1" fill-rule="nonzero"/><path fill="#ffffff" d="M 239.394531 405.335938 L 239.394531 454.449219 L 233.089844 454.449219 L 233.089844 445.449219 C 231.355469 448.449219 228.964844 450.769531 225.910156 452.410156 C 222.628906 454.117188 219.140625 454.9375 215.445312 454.871094 C 209.039062 454.871094 203.984375 453.085938 200.273438 449.511719 C 196.566406 445.9375 194.730469 440.679688 194.730469 433.785156 L 194.730469 405.335938 L 201.355469 405.335938 L 201.355469 433.164062 C 201.355469 438.320312 202.628906 442.253906 205.179688 444.960938 C 206.636719 446.367188 208.316406 447.417969 210.21875 448.117188 C 212.117188 448.816406 214.078125 449.101562 216.101562 448.972656 C 217.230469 449.03125 218.351562 448.972656 219.46875 448.792969 C 220.582031 448.617188 221.667969 448.324219 222.722656 447.917969 C 223.777344 447.511719 224.777344 446.996094 225.722656 446.378906 C 226.667969 445.761719 227.539062 445.054688 228.335938 444.253906 C 231.320312 441.117188 232.804688 436.734375 232.804688 431.140625 L 232.804688 405.335938 Z M 239.394531 405.335938 " fill-opacity="1" fill-rule="nonzero"/><path fill="#ffffff" d="M 257.816406 453.183594 C 254.679688 452.308594 251.835938 450.859375 249.285156 448.835938 L 252.269531 443.613281 C 254.621094 445.390625 257.207031 446.71875 260.023438 447.589844 C 263.175781 448.617188 266.414062 449.128906 269.730469 449.125 C 273.246094 449.367188 276.558594 448.664062 279.675781 447.015625 C 280.179688 446.707031 280.632812 446.339844 281.039062 445.910156 C 281.449219 445.484375 281.792969 445.007812 282.074219 444.488281 C 282.359375 443.96875 282.570312 443.421875 282.707031 442.847656 C 282.847656 442.273438 282.90625 441.691406 282.894531 441.101562 C 282.933594 440.292969 282.796875 439.519531 282.484375 438.773438 C 282.167969 438.03125 281.710938 437.390625 281.105469 436.855469 C 279.789062 435.746094 278.300781 434.964844 276.640625 434.511719 C 274.269531 433.863281 271.871094 433.351562 269.445312 432.976562 C 266.199219 432.398438 262.996094 431.636719 259.835938 430.683594 C 257.410156 429.917969 255.339844 428.597656 253.617188 426.726562 C 252.714844 425.640625 252.039062 424.433594 251.597656 423.09375 C 251.15625 421.753906 250.976562 420.378906 251.054688 418.972656 C 251.035156 417.988281 251.132812 417.015625 251.347656 416.050781 C 251.5625 415.089844 251.890625 414.171875 252.332031 413.289062 C 252.769531 412.40625 253.3125 411.59375 253.949219 410.84375 C 254.589844 410.09375 255.3125 409.433594 256.113281 408.859375 C 259.484375 406.242188 264.242188 404.933594 270.386719 404.933594 C 273.617188 404.9375 276.792969 405.359375 279.910156 406.195312 C 282.710938 406.886719 285.320312 408.007812 287.746094 409.566406 L 284.847656 414.875 C 282.714844 413.445312 280.414062 412.371094 277.945312 411.652344 C 275.476562 410.9375 272.957031 410.613281 270.386719 410.679688 C 268.714844 410.570312 267.066406 410.707031 265.433594 411.085938 C 263.804688 411.46875 262.261719 412.082031 260.816406 412.921875 C 260.316406 413.234375 259.867188 413.601562 259.464844 414.03125 C 259.0625 414.457031 258.722656 414.929688 258.441406 415.445312 C 258.15625 415.957031 257.945312 416.5 257.800781 417.070312 C 257.660156 417.636719 257.589844 418.214844 257.59375 418.804688 C 257.558594 419.648438 257.699219 420.460938 258.015625 421.242188 C 258.335938 422.027344 258.800781 422.707031 259.414062 423.285156 C 260.734375 424.464844 262.246094 425.285156 263.949219 425.746094 C 266.40625 426.445312 268.894531 427.007812 271.414062 427.433594 C 274.597656 428.007812 277.738281 428.757812 280.835938 429.675781 C 283.203125 430.40625 285.222656 431.683594 286.90625 433.5 C 287.792969 434.535156 288.457031 435.703125 288.894531 436.996094 C 289.332031 438.289062 289.511719 439.621094 289.433594 440.984375 C 289.460938 441.992188 289.359375 442.992188 289.128906 443.976562 C 288.898438 444.957031 288.550781 445.898438 288.078125 446.792969 C 287.609375 447.6875 287.03125 448.507812 286.351562 449.253906 C 285.667969 450 284.902344 450.648438 284.054688 451.195312 C 280.484375 453.726562 275.527344 454.972656 269.175781 454.972656 C 265.296875 454.957031 261.511719 454.363281 257.816406 453.183594 Z M 257.816406 453.183594 " fill-opacity="1" fill-rule="nonzero"/><path fill="#ffffff" d="M 299.882812 405.335938 L 306.503906 405.335938 L 306.503906 454.449219 L 299.882812 454.449219 Z M 299.882812 405.335938 " fill-opacity="1" fill-rule="nonzero"/><path fill="#ffffff" d="M 362.863281 410.34375 C 366.503906 413.914062 368.324219 419.125 368.324219 425.964844 L 368.324219 454.449219 L 361.703125 454.449219 L 361.703125 426.625 C 361.703125 421.566406 360.4375 417.640625 357.875 414.960938 C 356.421875 413.550781 354.742188 412.496094 352.839844 411.796875 C 350.9375 411.097656 348.976562 410.816406 346.953125 410.949219 C 345.804688 410.890625 344.65625 410.949219 343.519531 411.125 C 342.378906 411.304688 341.269531 411.59375 340.1875 412 C 339.109375 412.402344 338.082031 412.914062 337.105469 413.527344 C 336.132812 414.144531 335.230469 414.851562 334.398438 415.652344 C 332.785156 417.421875 331.574219 419.441406 330.773438 421.699219 C 329.972656 423.960938 329.640625 426.285156 329.78125 428.679688 L 329.78125 454.449219 L 323.15625 454.449219 L 323.15625 405.335938 L 329.496094 405.335938 L 329.496094 414.40625 C 331.328125 411.359375 333.832031 409.039062 337.011719 407.445312 C 340.527344 405.707031 344.246094 404.882812 348.167969 404.964844 C 349.511719 404.898438 350.847656 404.960938 352.175781 405.164062 C 353.507812 405.363281 354.800781 405.695312 356.066406 406.15625 C 357.328125 406.617188 358.53125 407.203125 359.675781 407.90625 C 360.820312 408.613281 361.882812 409.421875 362.863281 410.34375 Z M 362.863281 410.34375 " fill-opacity="1" fill-rule="nonzero"/><path fill="#ffffff" d="M 427.382812 431.964844 L 386.308594 431.964844 C 386.417969 434.339844 386.980469 436.601562 388 438.746094 C 389.019531 440.890625 390.417969 442.753906 392.191406 444.335938 C 394.0625 445.941406 396.160156 447.148438 398.488281 447.960938 C 400.816406 448.769531 403.210938 449.132812 405.675781 449.039062 C 408.601562 449.066406 411.410156 448.503906 414.101562 447.355469 C 416.6875 446.265625 418.898438 444.664062 420.742188 442.550781 L 424.464844 446.847656 C 422.238281 449.511719 419.519531 451.5 416.308594 452.816406 C 412.851562 454.234375 409.257812 454.917969 405.523438 454.871094 C 403.175781 454.925781 400.855469 454.679688 398.570312 454.136719 C 396.289062 453.589844 394.109375 452.761719 392.039062 451.652344 C 390.132812 450.621094 388.40625 449.351562 386.859375 447.835938 C 385.3125 446.320312 384.007812 444.621094 382.9375 442.734375 C 381.832031 440.773438 381.003906 438.699219 380.449219 436.515625 C 379.894531 434.332031 379.632812 432.113281 379.667969 429.859375 C 379.59375 425.292969 380.636719 421.003906 382.804688 416.984375 C 383.792969 415.132812 385.015625 413.453125 386.472656 411.945312 C 387.929688 410.433594 389.566406 409.152344 391.382812 408.101562 C 393.25 407.035156 395.226562 406.230469 397.3125 405.691406 C 399.398438 405.15625 401.515625 404.902344 403.667969 404.933594 C 405.8125 404.902344 407.917969 405.152344 409.992188 405.691406 C 412.066406 406.230469 414.03125 407.03125 415.886719 408.101562 C 417.671875 409.15625 419.277344 410.4375 420.710938 411.9375 C 422.140625 413.4375 423.34375 415.101562 424.316406 416.933594 C 426.457031 420.976562 427.488281 425.285156 427.398438 429.859375 Z M 391.769531 415.214844 C 390.148438 416.765625 388.863281 418.558594 387.921875 420.59375 C 386.980469 422.632812 386.441406 424.769531 386.308594 427.011719 L 421.128906 427.011719 C 420.996094 424.769531 420.457031 422.632812 419.515625 420.59375 C 418.574219 418.558594 417.289062 416.765625 415.667969 415.214844 C 414.851562 414.488281 413.976562 413.84375 413.042969 413.28125 C 412.109375 412.714844 411.128906 412.238281 410.109375 411.851562 C 409.089844 411.464844 408.042969 411.171875 406.96875 410.976562 C 405.894531 410.777344 404.8125 410.679688 403.71875 410.679688 C 402.628906 410.679688 401.542969 410.777344 400.472656 410.976562 C 399.398438 411.171875 398.351562 411.464844 397.328125 411.851562 C 396.308594 412.238281 395.332031 412.714844 394.394531 413.28125 C 393.460938 413.84375 392.585938 414.488281 391.769531 415.214844 Z M 391.769531 415.214844 " fill-opacity="1" fill-rule="nonzero"/><path fill="#ffffff" d="M 440.882812 453.183594 C 437.742188 452.308594 434.894531 450.859375 432.335938 448.835938 L 435.320312 443.613281 C 437.671875 445.390625 440.253906 446.71875 443.074219 447.589844 C 446.226562 448.617188 449.464844 449.128906 452.78125 449.125 C 456.296875 449.367188 459.609375 448.664062 462.726562 447.015625 C 463.230469 446.707031 463.683594 446.339844 464.089844 445.910156 C 464.5 445.484375 464.84375 445.007812 465.125 444.488281 C 465.410156 443.96875 465.617188 443.421875 465.757812 442.847656 C 465.894531 442.273438 465.957031 441.691406 465.945312 441.101562 C 465.996094 440.300781 465.875 439.53125 465.582031 438.785156 C 465.285156 438.042969 464.84375 437.398438 464.257812 436.855469 C 462.933594 435.753906 461.4375 434.972656 459.773438 434.511719 C 457.40625 433.863281 455.007812 433.351562 452.578125 432.976562 C 449.332031 432.398438 446.128906 431.636719 442.972656 430.683594 C 440.546875 429.917969 438.472656 428.597656 436.753906 426.726562 C 435.847656 425.640625 435.175781 424.433594 434.730469 423.09375 C 434.289062 421.753906 434.109375 420.378906 434.191406 418.972656 C 434.171875 417.988281 434.269531 417.015625 434.484375 416.054688 C 434.699219 415.09375 435.027344 414.171875 435.46875 413.289062 C 435.910156 412.410156 436.449219 411.59375 437.089844 410.84375 C 437.726562 410.097656 438.445312 409.433594 439.246094 408.859375 C 442.617188 406.242188 447.375 404.933594 453.523438 404.933594 C 456.75 404.9375 459.925781 405.359375 463.042969 406.195312 C 465.84375 406.886719 468.457031 408.007812 470.882812 409.566406 L 468 414.875 C 465.863281 413.445312 463.558594 412.371094 461.085938 411.652344 C 458.617188 410.9375 456.09375 410.613281 453.523438 410.679688 C 451.851562 410.570312 450.199219 410.707031 448.570312 411.085938 C 446.9375 411.46875 445.398438 412.082031 443.949219 412.921875 C 443.453125 413.234375 443.003906 413.601562 442.601562 414.03125 C 442.199219 414.457031 441.855469 414.929688 441.574219 415.445312 C 441.292969 415.957031 441.082031 416.5 440.9375 417.070312 C 440.792969 417.636719 440.726562 418.214844 440.730469 418.804688 C 440.695312 419.648438 440.835938 420.460938 441.152344 421.242188 C 441.46875 422.027344 441.9375 422.707031 442.550781 423.285156 C 443.886719 424.464844 445.414062 425.277344 447.132812 425.730469 C 449.59375 426.429688 452.082031 426.992188 454.601562 427.414062 C 457.769531 427.976562 460.898438 428.707031 463.988281 429.605469 C 466.351562 430.339844 468.375 431.613281 470.054688 433.433594 C 470.945312 434.46875 471.609375 435.632812 472.046875 436.929688 C 472.484375 438.222656 472.664062 439.550781 472.585938 440.914062 C 472.605469 441.925781 472.503906 442.917969 472.273438 443.902344 C 472.042969 444.882812 471.695312 445.820312 471.226562 446.714844 C 470.757812 447.609375 470.183594 448.429688 469.503906 449.175781 C 468.828125 449.925781 468.066406 450.574219 467.226562 451.128906 C 463.636719 453.65625 458.679688 454.90625 452.324219 454.90625 C 448.421875 454.921875 444.609375 454.347656 440.882812 453.183594 Z M 440.882812 453.183594 " fill-opacity="1" fill-rule="nonzero"/><path fill="#ffffff" d="M 484.652344 453.183594 C 481.511719 452.308594 478.664062 450.859375 476.105469 448.835938 L 479.105469 443.613281 C 481.453125 445.386719 484.03125 446.714844 486.84375 447.589844 C 489.996094 448.617188 493.234375 449.128906 496.550781 449.125 C 501.042969 449.125 504.359375 448.421875 506.496094 447.015625 C 507 446.710938 507.460938 446.347656 507.871094 445.917969 C 508.28125 445.492188 508.625 445.015625 508.910156 444.496094 C 509.191406 443.976562 509.402344 443.429688 509.539062 442.851562 C 509.675781 442.277344 509.734375 441.691406 509.714844 441.101562 C 509.757812 440.296875 509.621094 439.519531 509.3125 438.777344 C 509.003906 438.03125 508.546875 437.390625 507.945312 436.855469 C 506.617188 435.75 505.125 434.96875 503.460938 434.511719 C 501.097656 433.863281 498.703125 433.351562 496.28125 432.976562 C 493.027344 432.398438 489.820312 431.632812 486.65625 430.683594 C 484.238281 429.917969 482.167969 428.597656 480.453125 426.726562 C 479.546875 425.644531 478.871094 424.433594 478.429688 423.09375 C 477.984375 421.753906 477.808594 420.378906 477.894531 418.972656 C 477.871094 417.988281 477.96875 417.015625 478.183594 416.054688 C 478.402344 415.09375 478.730469 414.171875 479.167969 413.289062 C 479.609375 412.410156 480.148438 411.59375 480.789062 410.84375 C 481.429688 410.09375 482.148438 409.433594 482.949219 408.859375 C 486.320312 406.242188 491.085938 404.933594 497.242188 404.933594 C 500.472656 404.9375 503.644531 405.359375 506.765625 406.195312 C 509.5625 406.886719 512.175781 408.007812 514.601562 409.566406 L 511.703125 414.875 C 509.566406 413.445312 507.265625 412.371094 504.796875 411.652344 C 502.328125 410.9375 499.8125 410.613281 497.242188 410.679688 C 495.570312 410.566406 493.917969 410.699219 492.285156 411.082031 C 490.65625 411.464844 489.117188 412.078125 487.667969 412.921875 C 487.171875 413.234375 486.722656 413.601562 486.320312 414.03125 C 485.917969 414.457031 485.574219 414.929688 485.292969 415.445312 C 485.011719 415.957031 484.800781 416.5 484.65625 417.070312 C 484.511719 417.636719 484.445312 418.214844 484.449219 418.804688 C 484.414062 419.648438 484.554688 420.460938 484.871094 421.242188 C 485.1875 422.027344 485.65625 422.707031 486.269531 423.285156 C 487.632812 424.484375 489.195312 425.296875 490.953125 425.730469 C 493.414062 426.429688 495.902344 426.992188 498.421875 427.414062 C 501.589844 427.976562 504.71875 428.707031 507.808594 429.605469 C 510.167969 430.347656 512.191406 431.621094 513.875 433.433594 C 514.765625 434.46875 515.429688 435.632812 515.867188 436.929688 C 516.304688 438.222656 516.484375 439.550781 516.40625 440.914062 C 516.425781 441.925781 516.320312 442.921875 516.089844 443.902344 C 515.855469 444.886719 515.503906 445.824219 515.035156 446.71875 C 514.566406 447.609375 513.992188 448.429688 513.3125 449.175781 C 512.632812 449.925781 511.871094 450.574219 511.027344 451.128906 C 507.453125 453.65625 502.484375 454.90625 496.144531 454.90625 C 492.226562 454.925781 488.394531 454.355469 484.652344 453.183594 Z M 484.652344 453.183594 " fill-opacity="1" fill-rule="nonzero"/><path fill="#ffffff" d="M 581.863281 412.820312 C 581.863281 427.382812 570.945312 436.414062 553.5 436.414062 L 540.335938 436.414062 L 540.335938 454.433594 L 525.167969 454.433594 L 525.167969 389.105469 L 553.449219 389.105469 C 570.945312 389.105469 581.863281 398.15625 581.863281 412.820312 Z M 566.5625 412.820312 C 566.5625 405.625 561.894531 401.425781 552.65625 401.425781 L 540.335938 401.425781 L 540.335938 424.113281 L 552.65625 424.113281 C 561.894531 424.113281 566.5625 419.898438 566.5625 412.820312 Z M 566.5625 412.820312 " fill-opacity="1" fill-rule="nonzero"/><path fill="#ffffff" d="M 585.894531 429.335938 C 585.894531 414.167969 597.554688 403.484375 613.515625 403.484375 C 629.476562 403.484375 641.054688 414.21875 641.054688 429.335938 C 641.054688 444.453125 629.476562 455.191406 613.515625 455.191406 C 597.554688 455.191406 585.894531 444.453125 585.894531 429.335938 Z M 626.34375 429.335938 C 626.34375 420.65625 620.832031 415.433594 613.550781 415.433594 C 606.269531 415.433594 600.675781 420.65625 600.675781 429.335938 C 600.675781 438.015625 606.269531 443.242188 613.550781 443.242188 C 620.832031 443.242188 626.308594 438.015625 626.308594 429.335938 Z M 626.34375 429.335938 " fill-opacity="1" fill-rule="nonzero"/><path fill="#ffffff" d="M 644.054688 449.78125 L 648.910156 439.316406 C 651.546875 440.890625 654.34375 442.089844 657.304688 442.914062 C 660.265625 443.738281 663.28125 444.15625 666.355469 444.167969 C 673.09375 444.167969 675.589844 442.398438 675.589844 439.601562 C 675.589844 431.394531 645.253906 439.785156 645.253906 419.714844 C 645.253906 410.207031 653.832031 403.484375 668.496094 403.484375 C 675.386719 403.484375 683.054688 405.066406 687.808594 407.863281 L 682.953125 418.230469 C 680.75 416.984375 678.421875 416.042969 675.96875 415.410156 C 673.519531 414.773438 671.027344 414.46875 668.496094 414.488281 C 661.953125 414.488281 659.15625 416.546875 659.15625 419.15625 C 659.15625 427.753906 689.496094 419.445312 689.496094 439.230469 C 689.496094 448.566406 680.816406 455.191406 665.78125 455.191406 C 657.304688 455.191406 648.707031 452.847656 644.054688 449.78125 Z M 644.054688 449.78125 " fill-opacity="1" fill-rule="nonzero"/><path fill="#ffffff" d="M 729 452.023438 C 727.234375 453.125 725.347656 453.949219 723.335938 454.488281 C 721.328125 455.027344 719.28125 455.261719 717.203125 455.191406 C 705.40625 455.191406 698.445312 449.125 698.445312 437.175781 L 698.445312 416.546875 L 690.691406 416.546875 L 690.691406 405.355469 L 698.445312 405.355469 L 698.445312 393.203125 L 713.003906 393.203125 L 713.003906 405.4375 L 725.511719 405.4375 L 725.511719 416.628906 L 713.003906 416.628906 L 713.003906 437.023438 C 713.003906 441.320312 715.332031 443.644531 719.257812 443.644531 C 721.425781 443.671875 723.386719 443.046875 725.140625 441.773438 Z M 729 452.023438 " fill-opacity="1" fill-rule="nonzero"/><g clip-path="url(#451552eb91)"><path fill="#ffffff" d="M 146.003906 448.5 L 104.308594 455.089844 L 104.308594 362.964844 L 81 360.253906 L 81 475.011719 L 167.949219 457.332031 L 167.949219 436.769531 C 163.988281 442.683594 156.808594 446.796875 146.003906 448.5 Z M 146.003906 448.5 " fill-opacity="1" fill-rule="nonzero"/></g><path fill="#ffffff" d="M 124.230469 435.792969 L 144.792969 433.601562 C 153.101562 432.707031 157.363281 429.167969 157.363281 422.074219 C 157.363281 414.976562 153.101562 411.960938 144.792969 412.195312 L 124.230469 412.90625 Z M 124.230469 435.792969 " fill-opacity="1" fill-rule="nonzero"/><path fill="#ffffff" d="M 154.0625 387.792969 C 154.0625 381.203125 149.898438 377.679688 141.925781 376.9375 L 124.230469 375.4375 L 124.230469 397.347656 L 141.925781 397.617188 C 149.898438 397.667969 154.0625 394.382812 154.0625 387.792969 Z M 154.0625 387.792969 " fill-opacity="1" fill-rule="nonzero"/><g clip-path="url(#2e7b20ec0c)"><path fill="#ffffff" d="M 109.601562 334.988281 L 109.601562 357.320312 L 143.984375 361.972656 C 160.835938 364.265625 168.808594 373.636719 168.808594 386.023438 C 168.808594 393.976562 165.691406 400.09375 160.585938 403.566406 C 167.511719 406.398438 171.773438 413.074219 171.773438 422.964844 C 171.832031 426.652344 171.140625 430.191406 169.703125 433.585938 L 184.683594 431.898438 L 184.683594 350.324219 Z M 109.601562 334.988281 " fill-opacity="1" fill-rule="nonzero"/></g></svg>